SplineFontDB: 3.2
FontName: MobileTrainer
FullName: Mobile Trainer
FamilyName: Mobile Trainer
Weight: Regular
Copyright: Copyright (c) 2024, REON Team
UComments: "2024-7-26: Created with FontForge (http://fontforge.org)"
Version: 001.000
ItalicAngle: 0
UnderlinePosition: -100
UnderlineWidth: 50
Ascent: 1000
Descent: 200
InvalidEm: 0
LayerCount: 2
Layer: 0 0 "Back" 1
Layer: 1 0 "Fore" 0
XUID: [1021 749 2104372056 11756428]
OS2Version: 0
OS2_WeightWidthSlopeOnly: 0
OS2_UseTypoMetrics: 1
CreationTime: 1721968908
ModificationTime: 1721972218
OS2TypoAscent: 0
OS2TypoAOffset: 1
OS2TypoDescent: 0
OS2TypoDOffset: 1
OS2TypoLinegap: 0
OS2WinAscent: 0
OS2WinAOffset: 1
OS2WinDescent: 0
OS2WinDOffset: 1
HheadAscent: 0
HheadAOffset: 1
HheadDescent: 0
HheadDOffset: 1
OS2Vendor: 'PfEd'
MarkAttachClasses: 1
DEI: 91125
Encoding: UnicodeBmp
Compacted: 1
UnicodeInterp: none
NameList: AGL For New Fonts
DisplaySize: -48
AntiAlias: 1
FitToEm: 0
WinInfo: 252 18 7
BeginPrivate: 0
EndPrivate
BeginChars: 65536 618

StartChar: exclam
Encoding: 33 33 1
Width: 600
Flags: HW
LayerCount: 2
Back
Fore
SplineSet
300 50 m 1
 300 100 l 1
 350 100 l 1
 400 100 l 1
 400 50 l 1
 400 0 l 1
 350 0 l 1
 300 0 l 1
 300 50 l 1
300 600 m 1
 300 1000 l 1
 350 1000 l 1
 400 1000 l 1
 400 600 l 1
 400 200 l 1
 350 200 l 1
 300 200 l 1
 300 600 l 1
EndSplineSet
EndChar

StartChar: quotedbl
Encoding: 34 34 2
Width: 600
Flags: HW
LayerCount: 2
Back
Fore
SplineSet
400 900 m 1
 400 1000 l 1
 500 1000 l 1
 600 1000 l 1
 600 850 l 1
 600 700 l 1
 550 700 l 1
 500 700 l 1
 500 650 l 1
 500 600 l 1
 450 600 l 1
 400 600 l 1
 400 650 l 1
 400 700 l 1
 450 700 l 1
 500 700 l 1
 500 750 l 1
 500 800 l 1
 450 800 l 1
 400 800 l 1
 400 900 l 1
100 900 m 1
 100 1000 l 1
 200 1000 l 1
 300 1000 l 1
 300 850 l 1
 300 700 l 1
 250 700 l 1
 200 700 l 1
 200 650 l 1
 200 600 l 1
 150 600 l 1
 100 600 l 1
 100 650 l 1
 100 700 l 1
 150 700 l 1
 200 700 l 1
 200 750 l 1
 200 800 l 1
 150 800 l 1
 100 800 l 1
 100 900 l 1
EndSplineSet
EndChar

StartChar: numbersign
Encoding: 35 35 3
Width: 600
Flags: HW
LayerCount: 2
Back
Fore
SplineSet
300 900 m 1
 300 1000 l 1
 350 1000 l 1
 400 1000 l 1
 400 900 l 1
 400 800 l 1
 450 800 l 1
 500 800 l 1
 500 900 l 1
 500 1000 l 1
 550 1000 l 1
 600 1000 l 1
 600 850 l 1
 600 700 l 1
 550 700 l 1
 500 700 l 1
 500 550 l 1
 500 400 l 1
 550 400 l 1
 600 400 l 1
 600 350 l 1
 600 300 l 1
 500 300 l 1
 400 300 l 1
 400 150 l 1
 400 0 l 1
 350 0 l 1
 300 0 l 1
 300 150 l 1
 300 300 l 1
 250 300 l 1
 200 300 l 1
 200 150 l 1
 200 0 l 1
 150 0 l 1
 100 0 l 1
 100 200 l 1
 100 400 l 1
 150 400 l 1
 200 400 l 1
 200 550 l 1
 200 700 l 1
 150 700 l 1
 100 700 l 1
 100 750 l 1
 100 800 l 1
 200 800 l 1
 300 800 l 1
 300 900 l 1
400 550 m 1
 400 700 l 1
 350 700 l 1
 300 700 l 1
 300 550 l 1
 300 400 l 1
 350 400 l 1
 400 400 l 1
 400 550 l 1
EndSplineSet
EndChar

StartChar: dollar
Encoding: 36 36 4
Width: 600
Flags: HW
LayerCount: 2
Back
Fore
SplineSet
300 950 m 1
 300 1000 l 1
 350 1000 l 1
 400 1000 l 1
 400 950 l 1
 400 900 l 1
 450 900 l 1
 500 900 l 1
 500 850 l 1
 500 800 l 1
 550 800 l 1
 600 800 l 1
 600 700 l 1
 600 600 l 1
 550 600 l 1
 500 600 l 1
 500 700 l 1
 500 800 l 1
 450 800 l 1
 400 800 l 1
 400 600 l 1
 400 400 l 1
 450 400 l 1
 500 400 l 1
 500 350 l 1
 500 300 l 1
 550 300 l 1
 600 300 l 1
 600 200 l 1
 600 100 l 1
 550 100 l 1
 500 100 l 1
 500 50 l 1
 500 0 l 1
 450 0 l 1
 400 0 l 1
 400 -50 l 1
 400 -100 l 1
 350 -100 l 1
 300 -100 l 1
 300 -50 l 1
 300 0 l 1
 250 0 l 1
 200 0 l 1
 200 50 l 1
 200 100 l 1
 150 100 l 1
 100 100 l 1
 100 200 l 1
 100 300 l 1
 150 300 l 1
 200 300 l 1
 200 200 l 1
 200 100 l 1
 250 100 l 1
 300 100 l 1
 300 300 l 1
 300 500 l 1
 250 500 l 1
 200 500 l 1
 200 550 l 1
 200 600 l 1
 150 600 l 1
 100 600 l 1
 100 700 l 1
 100 800 l 1
 150 800 l 1
 200 800 l 1
 200 850 l 1
 200 900 l 1
 250 900 l 1
 300 900 l 1
 300 950 l 1
300 700 m 1
 300 800 l 1
 250 800 l 1
 200 800 l 1
 200 700 l 1
 200 600 l 1
 250 600 l 1
 300 600 l 1
 300 700 l 1
500 200 m 1
 500 300 l 1
 450 300 l 1
 400 300 l 1
 400 200 l 1
 400 100 l 1
 450 100 l 1
 500 100 l 1
 500 200 l 1
EndSplineSet
EndChar

StartChar: percent
Encoding: 37 37 5
Width: 600
Flags: HW
LayerCount: 2
Back
Fore
SplineSet
200 950 m 1
 200 1000 l 1
 250 1000 l 1
 300 1000 l 1
 300 950 l 1
 300 900 l 1
 350 900 l 1
 400 900 l 1
 400 850 l 1
 400 800 l 1
 450 800 l 1
 500 800 l 1
 500 900 l 1
 500 1000 l 1
 550 1000 l 1
 600 1000 l 1
 600 900 l 1
 600 800 l 1
 550 800 l 1
 500 800 l 1
 500 700 l 1
 500 600 l 1
 450 600 l 1
 400 600 l 1
 400 500 l 1
 400 400 l 1
 450 400 l 1
 500 400 l 1
 500 350 l 1
 500 300 l 1
 550 300 l 1
 600 300 l 1
 600 200 l 1
 600 100 l 1
 550 100 l 1
 500 100 l 1
 500 50 l 1
 500 0 l 1
 450 0 l 1
 400 0 l 1
 400 50 l 1
 400 100 l 1
 350 100 l 1
 300 100 l 1
 300 150 l 1
 300 200 l 1
 250 200 l 1
 200 200 l 1
 200 100 l 1
 200 0 l 1
 150 0 l 1
 100 0 l 1
 100 100 l 1
 100 200 l 1
 150 200 l 1
 200 200 l 1
 200 300 l 1
 200 400 l 1
 250 400 l 1
 300 400 l 1
 300 500 l 1
 300 600 l 1
 250 600 l 1
 200 600 l 1
 200 650 l 1
 200 700 l 1
 150 700 l 1
 100 700 l 1
 100 800 l 1
 100 900 l 1
 150 900 l 1
 200 900 l 1
 200 950 l 1
300 800 m 1
 300 900 l 1
 250 900 l 1
 200 900 l 1
 200 800 l 1
 200 700 l 1
 250 700 l 1
 300 700 l 1
 300 650 l 1
 300 600 l 1
 350 600 l 1
 400 600 l 1
 400 650 l 1
 400 700 l 1
 350 700 l 1
 300 700 l 1
 300 800 l 1
400 350 m 1
 400 400 l 1
 350 400 l 1
 300 400 l 1
 300 350 l 1
 300 300 l 1
 350 300 l 1
 400 300 l 1
 400 200 l 1
 400 100 l 1
 450 100 l 1
 500 100 l 1
 500 200 l 1
 500 300 l 1
 450 300 l 1
 400 300 l 1
 400 350 l 1
EndSplineSet
EndChar

StartChar: ampersand
Encoding: 38 38 6
Width: 600
Flags: HW
LayerCount: 2
Back
Fore
SplineSet
200 850 m 1
 200 900 l 1
 250 900 l 1
 300 900 l 1
 300 850 l 1
 300 800 l 1
 350 800 l 1
 400 800 l 1
 400 650 l 1
 400 500 l 1
 350 500 l 1
 300 500 l 1
 300 450 l 1
 300 400 l 1
 350 400 l 1
 400 400 l 1
 400 350 l 1
 400 300 l 1
 450 300 l 1
 500 300 l 1
 500 400 l 1
 500 500 l 1
 550 500 l 1
 600 500 l 1
 600 400 l 1
 600 300 l 1
 550 300 l 1
 500 300 l 1
 500 200 l 1
 500 100 l 1
 550 100 l 1
 600 100 l 1
 600 50 l 1
 600 0 l 1
 550 0 l 1
 500 0 l 1
 500 50 l 1
 500 100 l 1
 450 100 l 1
 400 100 l 1
 400 50 l 1
 400 0 l 1
 300 0 l 1
 200 0 l 1
 200 50 l 1
 200 100 l 1
 150 100 l 1
 100 100 l 1
 100 250 l 1
 100 400 l 1
 150 400 l 1
 200 400 l 1
 200 450 l 1
 200 500 l 1
 150 500 l 1
 100 500 l 1
 100 650 l 1
 100 800 l 1
 150 800 l 1
 200 800 l 1
 200 850 l 1
300 650 m 1
 300 800 l 1
 250 800 l 1
 200 800 l 1
 200 650 l 1
 200 500 l 1
 250 500 l 1
 300 500 l 1
 300 650 l 1
300 350 m 1
 300 400 l 1
 250 400 l 1
 200 400 l 1
 200 250 l 1
 200 100 l 1
 300 100 l 1
 400 100 l 1
 400 200 l 1
 400 300 l 1
 350 300 l 1
 300 300 l 1
 300 350 l 1
EndSplineSet
EndChar

StartChar: quotesingle
Encoding: 39 39 7
Width: 600
Flags: HW
LayerCount: 2
Back
Fore
SplineSet
100 900 m 1
 100 1000 l 1
 200 1000 l 1
 300 1000 l 1
 300 850 l 1
 300 700 l 1
 250 700 l 1
 200 700 l 1
 200 650 l 1
 200 600 l 1
 150 600 l 1
 100 600 l 1
 100 650 l 1
 100 700 l 1
 150 700 l 1
 200 700 l 1
 200 750 l 1
 200 800 l 1
 150 800 l 1
 100 800 l 1
 100 900 l 1
EndSplineSet
EndChar

StartChar: parenleft
Encoding: 40 40 8
Width: 600
Flags: HW
LayerCount: 2
Back
Fore
SplineSet
500 950 m 1
 500 1000 l 1
 550 1000 l 1
 600 1000 l 1
 600 950 l 1
 600 900 l 1
 550 900 l 1
 500 900 l 1
 500 800 l 1
 500 700 l 1
 450 700 l 1
 400 700 l 1
 400 450 l 1
 400 200 l 1
 450 200 l 1
 500 200 l 1
 500 100 l 1
 500 0 l 1
 550 0 l 1
 600 0 l 1
 600 -50 l 1
 600 -100 l 1
 550 -100 l 1
 500 -100 l 1
 500 -50 l 1
 500 0 l 1
 450 0 l 1
 400 0 l 1
 400 100 l 1
 400 200 l 1
 350 200 l 1
 300 200 l 1
 300 450 l 1
 300 700 l 1
 350 700 l 1
 400 700 l 1
 400 800 l 1
 400 900 l 1
 450 900 l 1
 500 900 l 1
 500 950 l 1
EndSplineSet
EndChar

StartChar: parenright
Encoding: 41 41 9
Width: 600
Flags: HW
LayerCount: 2
Back
Fore
SplineSet
100 950 m 1
 100 1000 l 1
 150 1000 l 1
 200 1000 l 1
 200 950 l 1
 200 900 l 1
 250 900 l 1
 300 900 l 1
 300 800 l 1
 300 700 l 1
 350 700 l 1
 400 700 l 1
 400 450 l 1
 400 200 l 1
 350 200 l 1
 300 200 l 1
 300 100 l 1
 300 0 l 1
 250 0 l 1
 200 0 l 1
 200 -50 l 1
 200 -100 l 1
 150 -100 l 1
 100 -100 l 1
 100 -50 l 1
 100 0 l 1
 150 0 l 1
 200 0 l 1
 200 100 l 1
 200 200 l 1
 250 200 l 1
 300 200 l 1
 300 450 l 1
 300 700 l 1
 250 700 l 1
 200 700 l 1
 200 800 l 1
 200 900 l 1
 150 900 l 1
 100 900 l 1
 100 950 l 1
EndSplineSet
EndChar

StartChar: asterisk
Encoding: 42 42 10
Width: 600
Flags: HW
LayerCount: 2
Back
Fore
SplineSet
300 750 m 1
 300 900 l 1
 350 900 l 1
 400 900 l 1
 400 750 l 1
 400 600 l 1
 450 600 l 1
 500 600 l 1
 500 650 l 1
 500 700 l 1
 550 700 l 1
 600 700 l 1
 600 650 l 1
 600 600 l 1
 550 600 l 1
 500 600 l 1
 500 550 l 1
 500 500 l 1
 450 500 l 1
 400 500 l 1
 400 450 l 1
 400 400 l 1
 450 400 l 1
 500 400 l 1
 500 350 l 1
 500 300 l 1
 550 300 l 1
 600 300 l 1
 600 250 l 1
 600 200 l 1
 550 200 l 1
 500 200 l 1
 500 250 l 1
 500 300 l 1
 450 300 l 1
 400 300 l 1
 400 150 l 1
 400 0 l 1
 350 0 l 1
 300 0 l 1
 300 150 l 1
 300 300 l 1
 250 300 l 1
 200 300 l 1
 200 250 l 1
 200 200 l 1
 150 200 l 1
 100 200 l 1
 100 250 l 1
 100 300 l 1
 150 300 l 1
 200 300 l 1
 200 350 l 1
 200 400 l 1
 250 400 l 1
 300 400 l 1
 300 450 l 1
 300 500 l 1
 250 500 l 1
 200 500 l 1
 200 550 l 1
 200 600 l 1
 150 600 l 1
 100 600 l 1
 100 650 l 1
 100 700 l 1
 150 700 l 1
 200 700 l 1
 200 650 l 1
 200 600 l 1
 250 600 l 1
 300 600 l 1
 300 750 l 1
EndSplineSet
EndChar

StartChar: plus
Encoding: 43 43 11
Width: 600
Flags: HW
LayerCount: 2
Back
Fore
SplineSet
300 700 m 1
 300 900 l 1
 350 900 l 1
 400 900 l 1
 400 700 l 1
 400 500 l 1
 500 500 l 1
 600 500 l 1
 600 450 l 1
 600 400 l 1
 500 400 l 1
 400 400 l 1
 400 200 l 1
 400 0 l 1
 350 0 l 1
 300 0 l 1
 300 200 l 1
 300 400 l 1
 200 400 l 1
 100 400 l 1
 100 450 l 1
 100 500 l 1
 200 500 l 1
 300 500 l 1
 300 700 l 1
EndSplineSet
EndChar

StartChar: comma
Encoding: 44 44 12
Width: 600
Flags: HW
LayerCount: 2
Back
Fore
SplineSet
100 200 m 1
 100 300 l 1
 200 300 l 1
 300 300 l 1
 300 150 l 1
 300 0 l 1
 250 0 l 1
 200 0 l 1
 200 -50 l 1
 200 -100 l 1
 150 -100 l 1
 100 -100 l 1
 100 -50 l 1
 100 0 l 1
 150 0 l 1
 200 0 l 1
 200 50 l 1
 200 100 l 1
 150 100 l 1
 100 100 l 1
 100 200 l 1
EndSplineSet
EndChar

StartChar: hyphen
Encoding: 45 45 13
Width: 600
Flags: HW
LayerCount: 2
Back
Fore
SplineSet
100 450 m 1
 100 500 l 1
 350 500 l 1
 600 500 l 1
 600 450 l 1
 600 400 l 1
 350 400 l 1
 100 400 l 1
 100 450 l 1
EndSplineSet
EndChar

StartChar: period
Encoding: 46 46 14
Width: 600
Flags: HW
LayerCount: 2
Back
Fore
SplineSet
100 100 m 1
 100 200 l 1
 200 200 l 1
 300 200 l 1
 300 100 l 1
 300 0 l 1
 200 0 l 1
 100 0 l 1
 100 100 l 1
EndSplineSet
EndChar

StartChar: slash
Encoding: 47 47 15
Width: 600
Flags: HW
LayerCount: 2
Back
Fore
SplineSet
500 900 m 1
 500 1000 l 1
 550 1000 l 1
 600 1000 l 1
 600 900 l 1
 600 800 l 1
 550 800 l 1
 500 800 l 1
 500 700 l 1
 500 600 l 1
 450 600 l 1
 400 600 l 1
 400 450 l 1
 400 300 l 1
 350 300 l 1
 300 300 l 1
 300 200 l 1
 300 100 l 1
 250 100 l 1
 200 100 l 1
 200 0 l 1
 200 -100 l 1
 150 -100 l 1
 100 -100 l 1
 100 0 l 1
 100 100 l 1
 150 100 l 1
 200 100 l 1
 200 200 l 1
 200 300 l 1
 250 300 l 1
 300 300 l 1
 300 450 l 1
 300 600 l 1
 350 600 l 1
 400 600 l 1
 400 700 l 1
 400 800 l 1
 450 800 l 1
 500 800 l 1
 500 900 l 1
EndSplineSet
EndChar

StartChar: zero
Encoding: 48 48 16
Width: 600
Flags: HW
LayerCount: 2
Back
Fore
SplineSet
300 550 m 1
 300 600 l 1
 350 600 l 1
 400 600 l 1
 400 550 l 1
 400 500 l 1
 350 500 l 1
 300 500 l 1
 300 550 l 1
200 950 m 1
 200 1000 l 1
 350 1000 l 1
 500 1000 l 1
 500 950 l 1
 500 900 l 1
 550 900 l 1
 600 900 l 1
 600 500 l 1
 600 100 l 1
 550 100 l 1
 500 100 l 1
 500 50 l 1
 500 0 l 1
 350 0 l 1
 200 0 l 1
 200 50 l 1
 200 100 l 1
 150 100 l 1
 100 100 l 1
 100 500 l 1
 100 900 l 1
 150 900 l 1
 200 900 l 1
 200 950 l 1
500 800 m 1
 500 900 l 1
 350 900 l 1
 200 900 l 1
 200 700 l 1
 200 500 l 1
 250 500 l 1
 300 500 l 1
 300 450 l 1
 300 400 l 1
 250 400 l 1
 200 400 l 1
 200 250 l 1
 200 100 l 1
 350 100 l 1
 500 100 l 1
 500 350 l 1
 500 600 l 1
 450 600 l 1
 400 600 l 1
 400 650 l 1
 400 700 l 1
 450 700 l 1
 500 700 l 1
 500 800 l 1
EndSplineSet
EndChar

StartChar: one
Encoding: 49 49 17
Width: 600
Flags: HW
LayerCount: 2
Back
Fore
SplineSet
300 950 m 1
 300 1000 l 1
 350 1000 l 1
 400 1000 l 1
 400 550 l 1
 400 100 l 1
 450 100 l 1
 500 100 l 1
 500 50 l 1
 500 0 l 1
 350 0 l 1
 200 0 l 1
 200 50 l 1
 200 100 l 1
 250 100 l 1
 300 100 l 1
 300 450 l 1
 300 800 l 1
 250 800 l 1
 200 800 l 1
 200 850 l 1
 200 900 l 1
 250 900 l 1
 300 900 l 1
 300 950 l 1
EndSplineSet
EndChar

StartChar: two
Encoding: 50 50 18
Width: 600
Flags: HW
LayerCount: 2
Back
Fore
SplineSet
200 950 m 1
 200 1000 l 1
 350 1000 l 1
 500 1000 l 1
 500 950 l 1
 500 900 l 1
 550 900 l 1
 600 900 l 1
 600 750 l 1
 600 600 l 1
 550 600 l 1
 500 600 l 1
 500 550 l 1
 500 500 l 1
 450 500 l 1
 400 500 l 1
 400 400 l 1
 400 300 l 1
 350 300 l 1
 300 300 l 1
 300 250 l 1
 300 200 l 1
 250 200 l 1
 200 200 l 1
 200 150 l 1
 200 100 l 1
 400 100 l 1
 600 100 l 1
 600 50 l 1
 600 0 l 1
 350 0 l 1
 100 0 l 1
 100 100 l 1
 100 200 l 1
 150 200 l 1
 200 200 l 1
 200 250 l 1
 200 300 l 1
 250 300 l 1
 300 300 l 1
 300 400 l 1
 300 500 l 1
 350 500 l 1
 400 500 l 1
 400 550 l 1
 400 600 l 1
 450 600 l 1
 500 600 l 1
 500 750 l 1
 500 900 l 1
 350 900 l 1
 200 900 l 1
 200 850 l 1
 200 800 l 1
 150 800 l 1
 100 800 l 1
 100 850 l 1
 100 900 l 1
 150 900 l 1
 200 900 l 1
 200 950 l 1
EndSplineSet
EndChar

StartChar: three
Encoding: 51 51 19
Width: 600
Flags: HW
LayerCount: 2
Back
Fore
SplineSet
200 950 m 1
 200 1000 l 1
 350 1000 l 1
 500 1000 l 1
 500 950 l 1
 500 900 l 1
 550 900 l 1
 600 900 l 1
 600 750 l 1
 600 600 l 1
 550 600 l 1
 500 600 l 1
 500 550 l 1
 500 500 l 1
 550 500 l 1
 600 500 l 1
 600 300 l 1
 600 100 l 1
 550 100 l 1
 500 100 l 1
 500 50 l 1
 500 0 l 1
 350 0 l 1
 200 0 l 1
 200 50 l 1
 200 100 l 1
 150 100 l 1
 100 100 l 1
 100 200 l 1
 100 300 l 1
 150 300 l 1
 200 300 l 1
 200 200 l 1
 200 100 l 1
 350 100 l 1
 500 100 l 1
 500 300 l 1
 500 500 l 1
 400 500 l 1
 300 500 l 1
 300 550 l 1
 300 600 l 1
 400 600 l 1
 500 600 l 1
 500 750 l 1
 500 900 l 1
 350 900 l 1
 200 900 l 1
 200 800 l 1
 200 700 l 1
 150 700 l 1
 100 700 l 1
 100 800 l 1
 100 900 l 1
 150 900 l 1
 200 900 l 1
 200 950 l 1
EndSplineSet
EndChar

StartChar: four
Encoding: 52 52 20
Width: 600
Flags: HW
LayerCount: 2
Back
Fore
SplineSet
300 900 m 1
 300 1000 l 1
 400 1000 l 1
 500 1000 l 1
 500 650 l 1
 500 300 l 1
 550 300 l 1
 600 300 l 1
 600 250 l 1
 600 200 l 1
 550 200 l 1
 500 200 l 1
 500 100 l 1
 500 0 l 1
 450 0 l 1
 400 0 l 1
 400 100 l 1
 400 200 l 1
 250 200 l 1
 100 200 l 1
 100 350 l 1
 100 500 l 1
 150 500 l 1
 200 500 l 1
 200 650 l 1
 200 800 l 1
 250 800 l 1
 300 800 l 1
 300 900 l 1
400 550 m 1
 400 800 l 1
 350 800 l 1
 300 800 l 1
 300 650 l 1
 300 500 l 1
 250 500 l 1
 200 500 l 1
 200 400 l 1
 200 300 l 1
 300 300 l 1
 400 300 l 1
 400 550 l 1
EndSplineSet
EndChar

StartChar: five
Encoding: 53 53 21
Width: 600
Flags: HW
LayerCount: 2
Back
Fore
SplineSet
100 750 m 1
 100 1000 l 1
 350 1000 l 1
 600 1000 l 1
 600 950 l 1
 600 900 l 1
 400 900 l 1
 200 900 l 1
 200 750 l 1
 200 600 l 1
 350 600 l 1
 500 600 l 1
 500 550 l 1
 500 500 l 1
 550 500 l 1
 600 500 l 1
 600 300 l 1
 600 100 l 1
 550 100 l 1
 500 100 l 1
 500 50 l 1
 500 0 l 1
 350 0 l 1
 200 0 l 1
 200 50 l 1
 200 100 l 1
 150 100 l 1
 100 100 l 1
 100 200 l 1
 100 300 l 1
 150 300 l 1
 200 300 l 1
 200 200 l 1
 200 100 l 1
 350 100 l 1
 500 100 l 1
 500 300 l 1
 500 500 l 1
 300 500 l 1
 100 500 l 1
 100 750 l 1
EndSplineSet
EndChar

StartChar: six
Encoding: 54 54 22
Width: 600
Flags: HW
LayerCount: 2
Back
Fore
SplineSet
200 950 m 1
 200 1000 l 1
 350 1000 l 1
 500 1000 l 1
 500 950 l 1
 500 900 l 1
 550 900 l 1
 600 900 l 1
 600 850 l 1
 600 800 l 1
 550 800 l 1
 500 800 l 1
 500 850 l 1
 500 900 l 1
 350 900 l 1
 200 900 l 1
 200 750 l 1
 200 600 l 1
 350 600 l 1
 500 600 l 1
 500 550 l 1
 500 500 l 1
 550 500 l 1
 600 500 l 1
 600 300 l 1
 600 100 l 1
 550 100 l 1
 500 100 l 1
 500 50 l 1
 500 0 l 1
 350 0 l 1
 200 0 l 1
 200 50 l 1
 200 100 l 1
 150 100 l 1
 100 100 l 1
 100 500 l 1
 100 900 l 1
 150 900 l 1
 200 900 l 1
 200 950 l 1
500 300 m 1
 500 500 l 1
 350 500 l 1
 200 500 l 1
 200 300 l 1
 200 100 l 1
 350 100 l 1
 500 100 l 1
 500 300 l 1
EndSplineSet
EndChar

StartChar: seven
Encoding: 55 55 23
Width: 600
Flags: HW
LayerCount: 2
Back
Fore
SplineSet
100 950 m 1
 100 1000 l 1
 350 1000 l 1
 600 1000 l 1
 600 850 l 1
 600 700 l 1
 550 700 l 1
 500 700 l 1
 500 550 l 1
 500 400 l 1
 450 400 l 1
 400 400 l 1
 400 200 l 1
 400 0 l 1
 350 0 l 1
 300 0 l 1
 300 200 l 1
 300 400 l 1
 350 400 l 1
 400 400 l 1
 400 550 l 1
 400 700 l 1
 450 700 l 1
 500 700 l 1
 500 800 l 1
 500 900 l 1
 300 900 l 1
 100 900 l 1
 100 950 l 1
EndSplineSet
EndChar

StartChar: eight
Encoding: 56 56 24
Width: 600
Flags: HW
LayerCount: 2
Back
Fore
SplineSet
200 950 m 1
 200 1000 l 1
 350 1000 l 1
 500 1000 l 1
 500 950 l 1
 500 900 l 1
 550 900 l 1
 600 900 l 1
 600 750 l 1
 600 600 l 1
 550 600 l 1
 500 600 l 1
 500 550 l 1
 500 500 l 1
 550 500 l 1
 600 500 l 1
 600 300 l 1
 600 100 l 1
 550 100 l 1
 500 100 l 1
 500 50 l 1
 500 0 l 1
 350 0 l 1
 200 0 l 1
 200 50 l 1
 200 100 l 1
 150 100 l 1
 100 100 l 1
 100 300 l 1
 100 500 l 1
 150 500 l 1
 200 500 l 1
 200 550 l 1
 200 600 l 1
 150 600 l 1
 100 600 l 1
 100 750 l 1
 100 900 l 1
 150 900 l 1
 200 900 l 1
 200 950 l 1
500 750 m 1
 500 900 l 1
 350 900 l 1
 200 900 l 1
 200 750 l 1
 200 600 l 1
 350 600 l 1
 500 600 l 1
 500 750 l 1
500 300 m 1
 500 500 l 1
 350 500 l 1
 200 500 l 1
 200 300 l 1
 200 100 l 1
 350 100 l 1
 500 100 l 1
 500 300 l 1
EndSplineSet
EndChar

StartChar: nine
Encoding: 57 57 25
Width: 600
Flags: HW
LayerCount: 2
Back
Fore
SplineSet
200 950 m 1
 200 1000 l 1
 350 1000 l 1
 500 1000 l 1
 500 950 l 1
 500 900 l 1
 550 900 l 1
 600 900 l 1
 600 500 l 1
 600 100 l 1
 550 100 l 1
 500 100 l 1
 500 50 l 1
 500 0 l 1
 350 0 l 1
 200 0 l 1
 200 50 l 1
 200 100 l 1
 150 100 l 1
 100 100 l 1
 100 150 l 1
 100 200 l 1
 150 200 l 1
 200 200 l 1
 200 150 l 1
 200 100 l 1
 350 100 l 1
 500 100 l 1
 500 250 l 1
 500 400 l 1
 350 400 l 1
 200 400 l 1
 200 450 l 1
 200 500 l 1
 150 500 l 1
 100 500 l 1
 100 700 l 1
 100 900 l 1
 150 900 l 1
 200 900 l 1
 200 950 l 1
500 700 m 1
 500 900 l 1
 350 900 l 1
 200 900 l 1
 200 700 l 1
 200 500 l 1
 350 500 l 1
 500 500 l 1
 500 700 l 1
EndSplineSet
EndChar

StartChar: colon
Encoding: 58 58 26
Width: 600
Flags: HW
LayerCount: 2
Back
Fore
SplineSet
200 200 m 1
 200 300 l 1
 300 300 l 1
 400 300 l 1
 400 200 l 1
 400 100 l 1
 300 100 l 1
 200 100 l 1
 200 200 l 1
200 700 m 1
 200 800 l 1
 300 800 l 1
 400 800 l 1
 400 700 l 1
 400 600 l 1
 300 600 l 1
 200 600 l 1
 200 700 l 1
EndSplineSet
EndChar

StartChar: semicolon
Encoding: 59 59 27
Width: 600
Flags: HW
LayerCount: 2
Back
Fore
SplineSet
200 300 m 1
 200 400 l 1
 300 400 l 1
 400 400 l 1
 400 250 l 1
 400 100 l 1
 350 100 l 1
 300 100 l 1
 300 50 l 1
 300 0 l 1
 250 0 l 1
 200 0 l 1
 200 50 l 1
 200 100 l 1
 250 100 l 1
 300 100 l 1
 300 150 l 1
 300 200 l 1
 250 200 l 1
 200 200 l 1
 200 300 l 1
200 700 m 1
 200 800 l 1
 300 800 l 1
 400 800 l 1
 400 700 l 1
 400 600 l 1
 300 600 l 1
 200 600 l 1
 200 700 l 1
EndSplineSet
EndChar

StartChar: less
Encoding: 60 60 28
Width: 600
Flags: HW
LayerCount: 2
Back
Fore
SplineSet
500 850 m 1
 500 900 l 1
 550 900 l 1
 600 900 l 1
 600 850 l 1
 600 800 l 1
 550 800 l 1
 500 800 l 1
 500 750 l 1
 500 700 l 1
 450 700 l 1
 400 700 l 1
 400 650 l 1
 400 600 l 1
 350 600 l 1
 300 600 l 1
 300 550 l 1
 300 500 l 1
 250 500 l 1
 200 500 l 1
 200 450 l 1
 200 400 l 1
 250 400 l 1
 300 400 l 1
 300 350 l 1
 300 300 l 1
 350 300 l 1
 400 300 l 1
 400 250 l 1
 400 200 l 1
 450 200 l 1
 500 200 l 1
 500 150 l 1
 500 100 l 1
 550 100 l 1
 600 100 l 1
 600 50 l 1
 600 0 l 1
 550 0 l 1
 500 0 l 1
 500 50 l 1
 500 100 l 1
 450 100 l 1
 400 100 l 1
 400 150 l 1
 400 200 l 1
 350 200 l 1
 300 200 l 1
 300 250 l 1
 300 300 l 1
 250 300 l 1
 200 300 l 1
 200 350 l 1
 200 400 l 1
 150 400 l 1
 100 400 l 1
 100 450 l 1
 100 500 l 1
 150 500 l 1
 200 500 l 1
 200 550 l 1
 200 600 l 1
 250 600 l 1
 300 600 l 1
 300 650 l 1
 300 700 l 1
 350 700 l 1
 400 700 l 1
 400 750 l 1
 400 800 l 1
 450 800 l 1
 500 800 l 1
 500 850 l 1
EndSplineSet
EndChar

StartChar: equal
Encoding: 61 61 29
Width: 600
Flags: HW
LayerCount: 2
Back
Fore
SplineSet
100 350 m 1
 100 400 l 1
 350 400 l 1
 600 400 l 1
 600 350 l 1
 600 300 l 1
 350 300 l 1
 100 300 l 1
 100 350 l 1
100 650 m 1
 100 700 l 1
 350 700 l 1
 600 700 l 1
 600 650 l 1
 600 600 l 1
 350 600 l 1
 100 600 l 1
 100 650 l 1
EndSplineSet
EndChar

StartChar: greater
Encoding: 62 62 30
Width: 600
Flags: HW
LayerCount: 2
Back
Fore
SplineSet
100 850 m 1
 100 900 l 1
 150 900 l 1
 200 900 l 1
 200 850 l 1
 200 800 l 1
 250 800 l 1
 300 800 l 1
 300 750 l 1
 300 700 l 1
 350 700 l 1
 400 700 l 1
 400 650 l 1
 400 600 l 1
 450 600 l 1
 500 600 l 1
 500 550 l 1
 500 500 l 1
 550 500 l 1
 600 500 l 1
 600 450 l 1
 600 400 l 1
 550 400 l 1
 500 400 l 1
 500 350 l 1
 500 300 l 1
 450 300 l 1
 400 300 l 1
 400 250 l 1
 400 200 l 1
 350 200 l 1
 300 200 l 1
 300 150 l 1
 300 100 l 1
 250 100 l 1
 200 100 l 1
 200 50 l 1
 200 0 l 1
 150 0 l 1
 100 0 l 1
 100 50 l 1
 100 100 l 1
 150 100 l 1
 200 100 l 1
 200 150 l 1
 200 200 l 1
 250 200 l 1
 300 200 l 1
 300 250 l 1
 300 300 l 1
 350 300 l 1
 400 300 l 1
 400 350 l 1
 400 400 l 1
 450 400 l 1
 500 400 l 1
 500 450 l 1
 500 500 l 1
 450 500 l 1
 400 500 l 1
 400 550 l 1
 400 600 l 1
 350 600 l 1
 300 600 l 1
 300 650 l 1
 300 700 l 1
 250 700 l 1
 200 700 l 1
 200 750 l 1
 200 800 l 1
 150 800 l 1
 100 800 l 1
 100 850 l 1
EndSplineSet
EndChar

StartChar: question
Encoding: 63 63 31
Width: 600
Flags: HW
LayerCount: 2
Back
Fore
SplineSet
300 50 m 1
 300 100 l 1
 350 100 l 1
 400 100 l 1
 400 50 l 1
 400 0 l 1
 350 0 l 1
 300 0 l 1
 300 50 l 1
200 950 m 1
 200 1000 l 1
 350 1000 l 1
 500 1000 l 1
 500 950 l 1
 500 900 l 1
 550 900 l 1
 600 900 l 1
 600 750 l 1
 600 600 l 1
 550 600 l 1
 500 600 l 1
 500 550 l 1
 500 500 l 1
 450 500 l 1
 400 500 l 1
 400 350 l 1
 400 200 l 1
 350 200 l 1
 300 200 l 1
 300 350 l 1
 300 500 l 1
 350 500 l 1
 400 500 l 1
 400 550 l 1
 400 600 l 1
 450 600 l 1
 500 600 l 1
 500 750 l 1
 500 900 l 1
 350 900 l 1
 200 900 l 1
 200 800 l 1
 200 700 l 1
 150 700 l 1
 100 700 l 1
 100 800 l 1
 100 900 l 1
 150 900 l 1
 200 900 l 1
 200 950 l 1
EndSplineSet
EndChar

StartChar: at
Encoding: 64 64 32
Width: 600
Flags: HW
LayerCount: 2
Back
Fore
SplineSet
200 950 m 1
 200 1000 l 1
 350 1000 l 1
 500 1000 l 1
 500 950 l 1
 500 900 l 1
 550 900 l 1
 600 900 l 1
 600 550 l 1
 600 200 l 1
 550 200 l 1
 500 200 l 1
 500 150 l 1
 500 100 l 1
 550 100 l 1
 600 100 l 1
 600 50 l 1
 600 0 l 1
 550 0 l 1
 500 0 l 1
 500 -50 l 1
 500 -100 l 1
 350 -100 l 1
 200 -100 l 1
 200 -50 l 1
 200 0 l 1
 150 0 l 1
 100 0 l 1
 100 450 l 1
 100 900 l 1
 150 900 l 1
 200 900 l 1
 200 950 l 1
500 550 m 1
 500 900 l 1
 350 900 l 1
 200 900 l 1
 200 850 l 1
 200 800 l 1
 300 800 l 1
 400 800 l 1
 400 500 l 1
 400 200 l 1
 350 200 l 1
 300 200 l 1
 300 450 l 1
 300 700 l 1
 250 700 l 1
 200 700 l 1
 200 450 l 1
 200 200 l 1
 250 200 l 1
 300 200 l 1
 300 150 l 1
 300 100 l 1
 250 100 l 1
 200 100 l 1
 200 50 l 1
 200 0 l 1
 350 0 l 1
 500 0 l 1
 500 50 l 1
 500 100 l 1
 450 100 l 1
 400 100 l 1
 400 150 l 1
 400 200 l 1
 450 200 l 1
 500 200 l 1
 500 550 l 1
EndSplineSet
EndChar

StartChar: A
Encoding: 65 65 33
Width: 600
Flags: HW
LayerCount: 2
Back
Fore
SplineSet
300 850 m 1
 300 1000 l 1
 350 1000 l 1
 400 1000 l 1
 400 850 l 1
 400 700 l 1
 450 700 l 1
 500 700 l 1
 500 500 l 1
 500 300 l 1
 550 300 l 1
 600 300 l 1
 600 150 l 1
 600 0 l 1
 550 0 l 1
 500 0 l 1
 500 100 l 1
 500 200 l 1
 350 200 l 1
 200 200 l 1
 200 100 l 1
 200 0 l 1
 150 0 l 1
 100 0 l 1
 100 150 l 1
 100 300 l 1
 150 300 l 1
 200 300 l 1
 200 500 l 1
 200 700 l 1
 250 700 l 1
 300 700 l 1
 300 850 l 1
400 500 m 1
 400 700 l 1
 350 700 l 1
 300 700 l 1
 300 500 l 1
 300 300 l 1
 350 300 l 1
 400 300 l 1
 400 500 l 1
EndSplineSet
EndChar

StartChar: B
Encoding: 66 66 34
Width: 600
Flags: HW
LayerCount: 2
Back
Fore
SplineSet
100 500 m 1
 100 1000 l 1
 300 1000 l 1
 500 1000 l 1
 500 950 l 1
 500 900 l 1
 550 900 l 1
 600 900 l 1
 600 750 l 1
 600 600 l 1
 550 600 l 1
 500 600 l 1
 500 550 l 1
 500 500 l 1
 550 500 l 1
 600 500 l 1
 600 300 l 1
 600 100 l 1
 550 100 l 1
 500 100 l 1
 500 50 l 1
 500 0 l 1
 300 0 l 1
 100 0 l 1
 100 500 l 1
500 750 m 1
 500 900 l 1
 350 900 l 1
 200 900 l 1
 200 750 l 1
 200 600 l 1
 350 600 l 1
 500 600 l 1
 500 750 l 1
500 300 m 1
 500 500 l 1
 350 500 l 1
 200 500 l 1
 200 300 l 1
 200 100 l 1
 350 100 l 1
 500 100 l 1
 500 300 l 1
EndSplineSet
EndChar

StartChar: C
Encoding: 67 67 35
Width: 600
Flags: HW
LayerCount: 2
Back
Fore
SplineSet
200 950 m 1
 200 1000 l 1
 350 1000 l 1
 500 1000 l 1
 500 950 l 1
 500 900 l 1
 550 900 l 1
 600 900 l 1
 600 800 l 1
 600 700 l 1
 550 700 l 1
 500 700 l 1
 500 800 l 1
 500 900 l 1
 350 900 l 1
 200 900 l 1
 200 500 l 1
 200 100 l 1
 350 100 l 1
 500 100 l 1
 500 200 l 1
 500 300 l 1
 550 300 l 1
 600 300 l 1
 600 200 l 1
 600 100 l 1
 550 100 l 1
 500 100 l 1
 500 50 l 1
 500 0 l 1
 350 0 l 1
 200 0 l 1
 200 50 l 1
 200 100 l 1
 150 100 l 1
 100 100 l 1
 100 500 l 1
 100 900 l 1
 150 900 l 1
 200 900 l 1
 200 950 l 1
EndSplineSet
EndChar

StartChar: D
Encoding: 68 68 36
Width: 600
Flags: HW
LayerCount: 2
Back
Fore
SplineSet
100 500 m 1
 100 1000 l 1
 300 1000 l 1
 500 1000 l 1
 500 950 l 1
 500 900 l 1
 550 900 l 1
 600 900 l 1
 600 500 l 1
 600 100 l 1
 550 100 l 1
 500 100 l 1
 500 50 l 1
 500 0 l 1
 300 0 l 1
 100 0 l 1
 100 500 l 1
500 500 m 1
 500 900 l 1
 350 900 l 1
 200 900 l 1
 200 500 l 1
 200 100 l 1
 350 100 l 1
 500 100 l 1
 500 500 l 1
EndSplineSet
EndChar

StartChar: E
Encoding: 69 69 37
Width: 600
Flags: HW
LayerCount: 2
Back
Fore
SplineSet
100 500 m 1
 100 1000 l 1
 350 1000 l 1
 600 1000 l 1
 600 950 l 1
 600 900 l 1
 400 900 l 1
 200 900 l 1
 200 750 l 1
 200 600 l 1
 400 600 l 1
 600 600 l 1
 600 550 l 1
 600 500 l 1
 400 500 l 1
 200 500 l 1
 200 300 l 1
 200 100 l 1
 400 100 l 1
 600 100 l 1
 600 50 l 1
 600 0 l 1
 350 0 l 1
 100 0 l 1
 100 500 l 1
EndSplineSet
EndChar

StartChar: F
Encoding: 70 70 38
Width: 600
Flags: HW
LayerCount: 2
Back
Fore
SplineSet
100 500 m 1
 100 1000 l 1
 350 1000 l 1
 600 1000 l 1
 600 950 l 1
 600 900 l 1
 400 900 l 1
 200 900 l 1
 200 700 l 1
 200 500 l 1
 350 500 l 1
 500 500 l 1
 500 450 l 1
 500 400 l 1
 350 400 l 1
 200 400 l 1
 200 200 l 1
 200 0 l 1
 150 0 l 1
 100 0 l 1
 100 500 l 1
EndSplineSet
EndChar

StartChar: G
Encoding: 71 71 39
Width: 600
Flags: HW
LayerCount: 2
Back
Fore
SplineSet
200 950 m 1
 200 1000 l 1
 350 1000 l 1
 500 1000 l 1
 500 950 l 1
 500 900 l 1
 550 900 l 1
 600 900 l 1
 600 800 l 1
 600 700 l 1
 550 700 l 1
 500 700 l 1
 500 800 l 1
 500 900 l 1
 350 900 l 1
 200 900 l 1
 200 500 l 1
 200 100 l 1
 350 100 l 1
 500 100 l 1
 500 250 l 1
 500 400 l 1
 450 400 l 1
 400 400 l 1
 400 450 l 1
 400 500 l 1
 500 500 l 1
 600 500 l 1
 600 300 l 1
 600 100 l 1
 550 100 l 1
 500 100 l 1
 500 50 l 1
 500 0 l 1
 350 0 l 1
 200 0 l 1
 200 50 l 1
 200 100 l 1
 150 100 l 1
 100 100 l 1
 100 500 l 1
 100 900 l 1
 150 900 l 1
 200 900 l 1
 200 950 l 1
EndSplineSet
EndChar

StartChar: H
Encoding: 72 72 40
Width: 600
Flags: HW
LayerCount: 2
Back
Fore
SplineSet
100 500 m 1
 100 1000 l 1
 150 1000 l 1
 200 1000 l 1
 200 800 l 1
 200 600 l 1
 350 600 l 1
 500 600 l 1
 500 800 l 1
 500 1000 l 1
 550 1000 l 1
 600 1000 l 1
 600 500 l 1
 600 0 l 1
 550 0 l 1
 500 0 l 1
 500 250 l 1
 500 500 l 1
 350 500 l 1
 200 500 l 1
 200 250 l 1
 200 0 l 1
 150 0 l 1
 100 0 l 1
 100 500 l 1
EndSplineSet
EndChar

StartChar: I
Encoding: 73 73 41
Width: 600
Flags: HW
LayerCount: 2
Back
Fore
SplineSet
200 950 m 1
 200 1000 l 1
 350 1000 l 1
 500 1000 l 1
 500 950 l 1
 500 900 l 1
 450 900 l 1
 400 900 l 1
 400 500 l 1
 400 100 l 1
 450 100 l 1
 500 100 l 1
 500 50 l 1
 500 0 l 1
 350 0 l 1
 200 0 l 1
 200 50 l 1
 200 100 l 1
 250 100 l 1
 300 100 l 1
 300 500 l 1
 300 900 l 1
 250 900 l 1
 200 900 l 1
 200 950 l 1
EndSplineSet
EndChar

StartChar: J
Encoding: 74 74 42
Width: 600
Flags: HW
LayerCount: 2
Back
Fore
SplineSet
500 550 m 1
 500 1000 l 1
 550 1000 l 1
 600 1000 l 1
 600 550 l 1
 600 100 l 1
 550 100 l 1
 500 100 l 1
 500 50 l 1
 500 0 l 1
 350 0 l 1
 200 0 l 1
 200 50 l 1
 200 100 l 1
 150 100 l 1
 100 100 l 1
 100 200 l 1
 100 300 l 1
 150 300 l 1
 200 300 l 1
 200 200 l 1
 200 100 l 1
 350 100 l 1
 500 100 l 1
 500 550 l 1
EndSplineSet
EndChar

StartChar: K
Encoding: 75 75 43
Width: 600
Flags: HW
LayerCount: 2
Back
Fore
SplineSet
100 500 m 1
 100 1000 l 1
 150 1000 l 1
 200 1000 l 1
 200 700 l 1
 200 400 l 1
 250 400 l 1
 300 400 l 1
 300 500 l 1
 300 600 l 1
 350 600 l 1
 400 600 l 1
 400 700 l 1
 400 800 l 1
 450 800 l 1
 500 800 l 1
 500 900 l 1
 500 1000 l 1
 550 1000 l 1
 600 1000 l 1
 600 900 l 1
 600 800 l 1
 550 800 l 1
 500 800 l 1
 500 700 l 1
 500 600 l 1
 450 600 l 1
 400 600 l 1
 400 500 l 1
 400 400 l 1
 450 400 l 1
 500 400 l 1
 500 300 l 1
 500 200 l 1
 550 200 l 1
 600 200 l 1
 600 100 l 1
 600 0 l 1
 550 0 l 1
 500 0 l 1
 500 100 l 1
 500 200 l 1
 450 200 l 1
 400 200 l 1
 400 300 l 1
 400 400 l 1
 350 400 l 1
 300 400 l 1
 300 350 l 1
 300 300 l 1
 250 300 l 1
 200 300 l 1
 200 150 l 1
 200 0 l 1
 150 0 l 1
 100 0 l 1
 100 500 l 1
EndSplineSet
EndChar

StartChar: L
Encoding: 76 76 44
Width: 600
Flags: HW
LayerCount: 2
Back
Fore
SplineSet
100 500 m 1
 100 1000 l 1
 150 1000 l 1
 200 1000 l 1
 200 550 l 1
 200 100 l 1
 400 100 l 1
 600 100 l 1
 600 50 l 1
 600 0 l 1
 350 0 l 1
 100 0 l 1
 100 500 l 1
EndSplineSet
EndChar

StartChar: M
Encoding: 77 77 45
Width: 600
Flags: HW
LayerCount: 2
Back
Fore
SplineSet
100 500 m 1
 100 1000 l 1
 150 1000 l 1
 200 1000 l 1
 200 850 l 1
 200 700 l 1
 250 700 l 1
 300 700 l 1
 300 550 l 1
 300 400 l 1
 350 400 l 1
 400 400 l 1
 400 550 l 1
 400 700 l 1
 450 700 l 1
 500 700 l 1
 500 850 l 1
 500 1000 l 1
 550 1000 l 1
 600 1000 l 1
 600 500 l 1
 600 0 l 1
 550 0 l 1
 500 0 l 1
 500 200 l 1
 500 400 l 1
 450 400 l 1
 400 400 l 1
 400 200 l 1
 400 0 l 1
 350 0 l 1
 300 0 l 1
 300 200 l 1
 300 400 l 1
 250 400 l 1
 200 400 l 1
 200 200 l 1
 200 0 l 1
 150 0 l 1
 100 0 l 1
 100 500 l 1
EndSplineSet
EndChar

StartChar: N
Encoding: 78 78 46
Width: 600
Flags: HW
LayerCount: 2
Back
Fore
SplineSet
100 500 m 1
 100 1000 l 1
 150 1000 l 1
 200 1000 l 1
 200 900 l 1
 200 800 l 1
 250 800 l 1
 300 800 l 1
 300 700 l 1
 300 600 l 1
 350 600 l 1
 400 600 l 1
 400 500 l 1
 400 400 l 1
 450 400 l 1
 500 400 l 1
 500 700 l 1
 500 1000 l 1
 550 1000 l 1
 600 1000 l 1
 600 500 l 1
 600 0 l 1
 550 0 l 1
 500 0 l 1
 500 100 l 1
 500 200 l 1
 450 200 l 1
 400 200 l 1
 400 300 l 1
 400 400 l 1
 350 400 l 1
 300 400 l 1
 300 500 l 1
 300 600 l 1
 250 600 l 1
 200 600 l 1
 200 300 l 1
 200 0 l 1
 150 0 l 1
 100 0 l 1
 100 500 l 1
EndSplineSet
EndChar

StartChar: O
Encoding: 79 79 47
Width: 600
Flags: HW
LayerCount: 2
Back
Fore
SplineSet
200 950 m 1
 200 1000 l 1
 350 1000 l 1
 500 1000 l 1
 500 950 l 1
 500 900 l 1
 550 900 l 1
 600 900 l 1
 600 500 l 1
 600 100 l 1
 550 100 l 1
 500 100 l 1
 500 50 l 1
 500 0 l 1
 350 0 l 1
 200 0 l 1
 200 50 l 1
 200 100 l 1
 150 100 l 1
 100 100 l 1
 100 500 l 1
 100 900 l 1
 150 900 l 1
 200 900 l 1
 200 950 l 1
500 500 m 1
 500 900 l 1
 350 900 l 1
 200 900 l 1
 200 500 l 1
 200 100 l 1
 350 100 l 1
 500 100 l 1
 500 500 l 1
EndSplineSet
EndChar

StartChar: P
Encoding: 80 80 48
Width: 600
Flags: HW
LayerCount: 2
Back
Fore
SplineSet
100 500 m 1
 100 1000 l 1
 300 1000 l 1
 500 1000 l 1
 500 950 l 1
 500 900 l 1
 550 900 l 1
 600 900 l 1
 600 700 l 1
 600 500 l 1
 550 500 l 1
 500 500 l 1
 500 450 l 1
 500 400 l 1
 350 400 l 1
 200 400 l 1
 200 200 l 1
 200 0 l 1
 150 0 l 1
 100 0 l 1
 100 500 l 1
500 700 m 1
 500 900 l 1
 350 900 l 1
 200 900 l 1
 200 700 l 1
 200 500 l 1
 350 500 l 1
 500 500 l 1
 500 700 l 1
EndSplineSet
EndChar

StartChar: Q
Encoding: 81 81 49
Width: 600
Flags: HW
LayerCount: 2
Back
Fore
SplineSet
300 250 m 1
 300 300 l 1
 350 300 l 1
 400 300 l 1
 400 250 l 1
 400 200 l 1
 350 200 l 1
 300 200 l 1
 300 250 l 1
200 950 m 1
 200 1000 l 1
 350 1000 l 1
 500 1000 l 1
 500 950 l 1
 500 900 l 1
 550 900 l 1
 600 900 l 1
 600 550 l 1
 600 200 l 1
 550 200 l 1
 500 200 l 1
 500 150 l 1
 500 100 l 1
 550 100 l 1
 600 100 l 1
 600 50 l 1
 600 0 l 1
 550 0 l 1
 500 0 l 1
 500 50 l 1
 500 100 l 1
 450 100 l 1
 400 100 l 1
 400 50 l 1
 400 0 l 1
 300 0 l 1
 200 0 l 1
 200 50 l 1
 200 100 l 1
 150 100 l 1
 100 100 l 1
 100 500 l 1
 100 900 l 1
 150 900 l 1
 200 900 l 1
 200 950 l 1
500 550 m 1
 500 900 l 1
 350 900 l 1
 200 900 l 1
 200 500 l 1
 200 100 l 1
 300 100 l 1
 400 100 l 1
 400 150 l 1
 400 200 l 1
 450 200 l 1
 500 200 l 1
 500 550 l 1
EndSplineSet
EndChar

StartChar: R
Encoding: 82 82 50
Width: 600
Flags: HW
LayerCount: 2
Back
Fore
SplineSet
100 500 m 1
 100 1000 l 1
 300 1000 l 1
 500 1000 l 1
 500 950 l 1
 500 900 l 1
 550 900 l 1
 600 900 l 1
 600 700 l 1
 600 500 l 1
 550 500 l 1
 500 500 l 1
 500 400 l 1
 500 300 l 1
 550 300 l 1
 600 300 l 1
 600 150 l 1
 600 0 l 1
 550 0 l 1
 500 0 l 1
 500 150 l 1
 500 300 l 1
 450 300 l 1
 400 300 l 1
 400 350 l 1
 400 400 l 1
 300 400 l 1
 200 400 l 1
 200 200 l 1
 200 0 l 1
 150 0 l 1
 100 0 l 1
 100 500 l 1
500 700 m 1
 500 900 l 1
 350 900 l 1
 200 900 l 1
 200 700 l 1
 200 500 l 1
 350 500 l 1
 500 500 l 1
 500 700 l 1
EndSplineSet
EndChar

StartChar: S
Encoding: 83 83 51
Width: 600
Flags: HW
LayerCount: 2
Back
Fore
SplineSet
200 950 m 1
 200 1000 l 1
 350 1000 l 1
 500 1000 l 1
 500 950 l 1
 500 900 l 1
 550 900 l 1
 600 900 l 1
 600 800 l 1
 600 700 l 1
 550 700 l 1
 500 700 l 1
 500 800 l 1
 500 900 l 1
 350 900 l 1
 200 900 l 1
 200 750 l 1
 200 600 l 1
 250 600 l 1
 300 600 l 1
 300 550 l 1
 300 500 l 1
 400 500 l 1
 500 500 l 1
 500 450 l 1
 500 400 l 1
 550 400 l 1
 600 400 l 1
 600 250 l 1
 600 100 l 1
 550 100 l 1
 500 100 l 1
 500 50 l 1
 500 0 l 1
 350 0 l 1
 200 0 l 1
 200 50 l 1
 200 100 l 1
 150 100 l 1
 100 100 l 1
 100 200 l 1
 100 300 l 1
 150 300 l 1
 200 300 l 1
 200 200 l 1
 200 100 l 1
 350 100 l 1
 500 100 l 1
 500 250 l 1
 500 400 l 1
 400 400 l 1
 300 400 l 1
 300 450 l 1
 300 500 l 1
 250 500 l 1
 200 500 l 1
 200 550 l 1
 200 600 l 1
 150 600 l 1
 100 600 l 1
 100 750 l 1
 100 900 l 1
 150 900 l 1
 200 900 l 1
 200 950 l 1
EndSplineSet
EndChar

StartChar: T
Encoding: 84 84 52
Width: 600
Flags: HW
LayerCount: 2
Back
Fore
SplineSet
100 950 m 1
 100 1000 l 1
 350 1000 l 1
 600 1000 l 1
 600 950 l 1
 600 900 l 1
 500 900 l 1
 400 900 l 1
 400 450 l 1
 400 0 l 1
 350 0 l 1
 300 0 l 1
 300 450 l 1
 300 900 l 1
 200 900 l 1
 100 900 l 1
 100 950 l 1
EndSplineSet
EndChar

StartChar: U
Encoding: 85 85 53
Width: 600
Flags: HW
LayerCount: 2
Back
Fore
SplineSet
100 550 m 1
 100 1000 l 1
 150 1000 l 1
 200 1000 l 1
 200 550 l 1
 200 100 l 1
 350 100 l 1
 500 100 l 1
 500 550 l 1
 500 1000 l 1
 550 1000 l 1
 600 1000 l 1
 600 550 l 1
 600 100 l 1
 550 100 l 1
 500 100 l 1
 500 50 l 1
 500 0 l 1
 350 0 l 1
 200 0 l 1
 200 50 l 1
 200 100 l 1
 150 100 l 1
 100 100 l 1
 100 550 l 1
EndSplineSet
EndChar

StartChar: V
Encoding: 86 86 54
Width: 600
Flags: HW
LayerCount: 2
Back
Fore
SplineSet
100 800 m 1
 100 1000 l 1
 150 1000 l 1
 200 1000 l 1
 200 800 l 1
 200 600 l 1
 250 600 l 1
 300 600 l 1
 300 450 l 1
 300 300 l 1
 350 300 l 1
 400 300 l 1
 400 450 l 1
 400 600 l 1
 450 600 l 1
 500 600 l 1
 500 800 l 1
 500 1000 l 1
 550 1000 l 1
 600 1000 l 1
 600 800 l 1
 600 600 l 1
 550 600 l 1
 500 600 l 1
 500 450 l 1
 500 300 l 1
 450 300 l 1
 400 300 l 1
 400 150 l 1
 400 0 l 1
 350 0 l 1
 300 0 l 1
 300 150 l 1
 300 300 l 1
 250 300 l 1
 200 300 l 1
 200 450 l 1
 200 600 l 1
 150 600 l 1
 100 600 l 1
 100 800 l 1
EndSplineSet
EndChar

StartChar: W
Encoding: 87 87 55
Width: 600
Flags: HW
LayerCount: 2
Back
Fore
SplineSet
100 700 m 1
 100 1000 l 1
 150 1000 l 1
 200 1000 l 1
 200 700 l 1
 200 400 l 1
 250 400 l 1
 300 400 l 1
 300 700 l 1
 300 1000 l 1
 350 1000 l 1
 400 1000 l 1
 400 700 l 1
 400 400 l 1
 450 400 l 1
 500 400 l 1
 500 700 l 1
 500 1000 l 1
 550 1000 l 1
 600 1000 l 1
 600 700 l 1
 600 400 l 1
 550 400 l 1
 500 400 l 1
 500 200 l 1
 500 0 l 1
 450 0 l 1
 400 0 l 1
 400 200 l 1
 400 400 l 1
 350 400 l 1
 300 400 l 1
 300 200 l 1
 300 0 l 1
 250 0 l 1
 200 0 l 1
 200 200 l 1
 200 400 l 1
 150 400 l 1
 100 400 l 1
 100 700 l 1
EndSplineSet
EndChar

StartChar: X
Encoding: 88 88 56
Width: 600
Flags: HW
LayerCount: 2
Back
Fore
SplineSet
100 900 m 1
 100 1000 l 1
 150 1000 l 1
 200 1000 l 1
 200 900 l 1
 200 800 l 1
 250 800 l 1
 300 800 l 1
 300 700 l 1
 300 600 l 1
 350 600 l 1
 400 600 l 1
 400 700 l 1
 400 800 l 1
 450 800 l 1
 500 800 l 1
 500 900 l 1
 500 1000 l 1
 550 1000 l 1
 600 1000 l 1
 600 900 l 1
 600 800 l 1
 550 800 l 1
 500 800 l 1
 500 700 l 1
 500 600 l 1
 450 600 l 1
 400 600 l 1
 400 500 l 1
 400 400 l 1
 450 400 l 1
 500 400 l 1
 500 300 l 1
 500 200 l 1
 550 200 l 1
 600 200 l 1
 600 100 l 1
 600 0 l 1
 550 0 l 1
 500 0 l 1
 500 100 l 1
 500 200 l 1
 450 200 l 1
 400 200 l 1
 400 300 l 1
 400 400 l 1
 350 400 l 1
 300 400 l 1
 300 300 l 1
 300 200 l 1
 250 200 l 1
 200 200 l 1
 200 100 l 1
 200 0 l 1
 150 0 l 1
 100 0 l 1
 100 100 l 1
 100 200 l 1
 150 200 l 1
 200 200 l 1
 200 300 l 1
 200 400 l 1
 250 400 l 1
 300 400 l 1
 300 500 l 1
 300 600 l 1
 250 600 l 1
 200 600 l 1
 200 700 l 1
 200 800 l 1
 150 800 l 1
 100 800 l 1
 100 900 l 1
EndSplineSet
EndChar

StartChar: Y
Encoding: 89 89 57
Width: 600
Flags: HW
LayerCount: 2
Back
Fore
SplineSet
100 850 m 1
 100 1000 l 1
 150 1000 l 1
 200 1000 l 1
 200 850 l 1
 200 700 l 1
 250 700 l 1
 300 700 l 1
 300 600 l 1
 300 500 l 1
 350 500 l 1
 400 500 l 1
 400 600 l 1
 400 700 l 1
 450 700 l 1
 500 700 l 1
 500 850 l 1
 500 1000 l 1
 550 1000 l 1
 600 1000 l 1
 600 850 l 1
 600 700 l 1
 550 700 l 1
 500 700 l 1
 500 600 l 1
 500 500 l 1
 450 500 l 1
 400 500 l 1
 400 250 l 1
 400 0 l 1
 350 0 l 1
 300 0 l 1
 300 250 l 1
 300 500 l 1
 250 500 l 1
 200 500 l 1
 200 600 l 1
 200 700 l 1
 150 700 l 1
 100 700 l 1
 100 850 l 1
EndSplineSet
EndChar

StartChar: Z
Encoding: 90 90 58
Width: 600
Flags: HW
LayerCount: 2
Back
Fore
SplineSet
100 950 m 1
 100 1000 l 1
 350 1000 l 1
 600 1000 l 1
 600 900 l 1
 600 800 l 1
 550 800 l 1
 500 800 l 1
 500 700 l 1
 500 600 l 1
 450 600 l 1
 400 600 l 1
 400 500 l 1
 400 400 l 1
 350 400 l 1
 300 400 l 1
 300 300 l 1
 300 200 l 1
 250 200 l 1
 200 200 l 1
 200 150 l 1
 200 100 l 1
 400 100 l 1
 600 100 l 1
 600 50 l 1
 600 0 l 1
 350 0 l 1
 100 0 l 1
 100 100 l 1
 100 200 l 1
 150 200 l 1
 200 200 l 1
 200 300 l 1
 200 400 l 1
 250 400 l 1
 300 400 l 1
 300 500 l 1
 300 600 l 1
 350 600 l 1
 400 600 l 1
 400 700 l 1
 400 800 l 1
 450 800 l 1
 500 800 l 1
 500 850 l 1
 500 900 l 1
 300 900 l 1
 100 900 l 1
 100 950 l 1
EndSplineSet
EndChar

StartChar: bracketleft
Encoding: 91 91 59
Width: 600
Flags: HW
LayerCount: 2
Back
Fore
SplineSet
300 450 m 1
 300 1000 l 1
 450 1000 l 1
 600 1000 l 1
 600 950 l 1
 600 900 l 1
 500 900 l 1
 400 900 l 1
 400 450 l 1
 400 0 l 1
 500 0 l 1
 600 0 l 1
 600 -50 l 1
 600 -100 l 1
 450 -100 l 1
 300 -100 l 1
 300 450 l 1
EndSplineSet
EndChar

StartChar: backslash
Encoding: 92 92 60
Width: 600
Flags: HW
LayerCount: 2
Back
Fore
SplineSet
100 800 m 1
 100 900 l 1
 150 900 l 1
 200 900 l 1
 200 800 l 1
 200 700 l 1
 250 700 l 1
 300 700 l 1
 300 600 l 1
 300 500 l 1
 350 500 l 1
 400 500 l 1
 400 600 l 1
 400 700 l 1
 450 700 l 1
 500 700 l 1
 500 800 l 1
 500 900 l 1
 550 900 l 1
 600 900 l 1
 600 800 l 1
 600 700 l 1
 550 700 l 1
 500 700 l 1
 500 600 l 1
 500 500 l 1
 550 500 l 1
 600 500 l 1
 600 450 l 1
 600 400 l 1
 500 400 l 1
 400 400 l 1
 400 350 l 1
 400 300 l 1
 500 300 l 1
 600 300 l 1
 600 250 l 1
 600 200 l 1
 500 200 l 1
 400 200 l 1
 400 100 l 1
 400 0 l 1
 350 0 l 1
 300 0 l 1
 300 100 l 1
 300 200 l 1
 200 200 l 1
 100 200 l 1
 100 250 l 1
 100 300 l 1
 200 300 l 1
 300 300 l 1
 300 350 l 1
 300 400 l 1
 200 400 l 1
 100 400 l 1
 100 450 l 1
 100 500 l 1
 150 500 l 1
 200 500 l 1
 200 600 l 1
 200 700 l 1
 150 700 l 1
 100 700 l 1
 100 800 l 1
EndSplineSet
EndChar

StartChar: bracketright
Encoding: 93 93 61
Width: 600
Flags: HW
LayerCount: 2
Back
Fore
SplineSet
100 950 m 1
 100 1000 l 1
 250 1000 l 1
 400 1000 l 1
 400 450 l 1
 400 -100 l 1
 250 -100 l 1
 100 -100 l 1
 100 -50 l 1
 100 0 l 1
 200 0 l 1
 300 0 l 1
 300 450 l 1
 300 900 l 1
 200 900 l 1
 100 900 l 1
 100 950 l 1
EndSplineSet
EndChar

StartChar: asciicircum
Encoding: 94 94 62
Width: 600
Flags: HW
LayerCount: 2
Back
Fore
SplineSet
200 950 m 1
 200 1000 l 1
 300 1000 l 1
 400 1000 l 1
 400 950 l 1
 400 900 l 1
 450 900 l 1
 500 900 l 1
 500 850 l 1
 500 800 l 1
 450 800 l 1
 400 800 l 1
 400 850 l 1
 400 900 l 1
 300 900 l 1
 200 900 l 1
 200 850 l 1
 200 800 l 1
 150 800 l 1
 100 800 l 1
 100 850 l 1
 100 900 l 1
 150 900 l 1
 200 900 l 1
 200 950 l 1
EndSplineSet
EndChar

StartChar: underscore
Encoding: 95 95 63
Width: 600
Flags: HW
LayerCount: 2
Back
Fore
SplineSet
100 -50 m 1
 100 0 l 1
 350 0 l 1
 600 0 l 1
 600 -50 l 1
 600 -100 l 1
 350 -100 l 1
 100 -100 l 1
 100 -50 l 1
EndSplineSet
EndChar

StartChar: grave
Encoding: 96 96 64
Width: 600
Flags: HW
LayerCount: 2
Back
Fore
SplineSet
200 950 m 1
 200 1000 l 1
 250 1000 l 1
 300 1000 l 1
 300 950 l 1
 300 900 l 1
 350 900 l 1
 400 900 l 1
 400 850 l 1
 400 800 l 1
 350 800 l 1
 300 800 l 1
 300 850 l 1
 300 900 l 1
 250 900 l 1
 200 900 l 1
 200 950 l 1
EndSplineSet
EndChar

StartChar: a
Encoding: 97 97 65
Width: 600
Flags: HW
LayerCount: 2
Back
Fore
SplineSet
200 650 m 1
 200 700 l 1
 350 700 l 1
 500 700 l 1
 500 650 l 1
 500 600 l 1
 550 600 l 1
 600 600 l 1
 600 300 l 1
 600 0 l 1
 400 0 l 1
 200 0 l 1
 200 50 l 1
 200 100 l 1
 150 100 l 1
 100 100 l 1
 100 200 l 1
 100 300 l 1
 150 300 l 1
 200 300 l 1
 200 350 l 1
 200 400 l 1
 350 400 l 1
 500 400 l 1
 500 500 l 1
 500 600 l 1
 350 600 l 1
 200 600 l 1
 200 550 l 1
 200 500 l 1
 150 500 l 1
 100 500 l 1
 100 550 l 1
 100 600 l 1
 150 600 l 1
 200 600 l 1
 200 650 l 1
500 200 m 1
 500 300 l 1
 350 300 l 1
 200 300 l 1
 200 200 l 1
 200 100 l 1
 350 100 l 1
 500 100 l 1
 500 200 l 1
EndSplineSet
EndChar

StartChar: b
Encoding: 98 98 66
Width: 600
Flags: HW
LayerCount: 2
Back
Fore
SplineSet
100 500 m 1
 100 1000 l 1
 150 1000 l 1
 200 1000 l 1
 200 800 l 1
 200 600 l 1
 250 600 l 1
 300 600 l 1
 300 650 l 1
 300 700 l 1
 400 700 l 1
 500 700 l 1
 500 650 l 1
 500 600 l 1
 550 600 l 1
 600 600 l 1
 600 350 l 1
 600 100 l 1
 550 100 l 1
 500 100 l 1
 500 50 l 1
 500 0 l 1
 300 0 l 1
 100 0 l 1
 100 500 l 1
500 350 m 1
 500 600 l 1
 400 600 l 1
 300 600 l 1
 300 550 l 1
 300 500 l 1
 250 500 l 1
 200 500 l 1
 200 300 l 1
 200 100 l 1
 350 100 l 1
 500 100 l 1
 500 350 l 1
EndSplineSet
EndChar

StartChar: c
Encoding: 99 99 67
Width: 600
Flags: HW
LayerCount: 2
Back
Fore
SplineSet
200 650 m 1
 200 700 l 1
 350 700 l 1
 500 700 l 1
 500 650 l 1
 500 600 l 1
 550 600 l 1
 600 600 l 1
 600 550 l 1
 600 500 l 1
 550 500 l 1
 500 500 l 1
 500 550 l 1
 500 600 l 1
 350 600 l 1
 200 600 l 1
 200 350 l 1
 200 100 l 1
 350 100 l 1
 500 100 l 1
 500 150 l 1
 500 200 l 1
 550 200 l 1
 600 200 l 1
 600 150 l 1
 600 100 l 1
 550 100 l 1
 500 100 l 1
 500 50 l 1
 500 0 l 1
 350 0 l 1
 200 0 l 1
 200 50 l 1
 200 100 l 1
 150 100 l 1
 100 100 l 1
 100 350 l 1
 100 600 l 1
 150 600 l 1
 200 600 l 1
 200 650 l 1
EndSplineSet
EndChar

StartChar: d
Encoding: 100 100 68
Width: 600
Flags: HW
LayerCount: 2
Back
Fore
SplineSet
500 800 m 1
 500 1000 l 1
 550 1000 l 1
 600 1000 l 1
 600 500 l 1
 600 0 l 1
 400 0 l 1
 200 0 l 1
 200 50 l 1
 200 100 l 1
 150 100 l 1
 100 100 l 1
 100 350 l 1
 100 600 l 1
 150 600 l 1
 200 600 l 1
 200 650 l 1
 200 700 l 1
 300 700 l 1
 400 700 l 1
 400 650 l 1
 400 600 l 1
 450 600 l 1
 500 600 l 1
 500 800 l 1
400 550 m 1
 400 600 l 1
 300 600 l 1
 200 600 l 1
 200 350 l 1
 200 100 l 1
 350 100 l 1
 500 100 l 1
 500 300 l 1
 500 500 l 1
 450 500 l 1
 400 500 l 1
 400 550 l 1
EndSplineSet
EndChar

StartChar: e
Encoding: 101 101 69
Width: 600
Flags: HW
LayerCount: 2
Back
Fore
SplineSet
200 650 m 1
 200 700 l 1
 350 700 l 1
 500 700 l 1
 500 650 l 1
 500 600 l 1
 550 600 l 1
 600 600 l 1
 600 450 l 1
 600 300 l 1
 400 300 l 1
 200 300 l 1
 200 200 l 1
 200 100 l 1
 350 100 l 1
 500 100 l 1
 500 150 l 1
 500 200 l 1
 550 200 l 1
 600 200 l 1
 600 150 l 1
 600 100 l 1
 550 100 l 1
 500 100 l 1
 500 50 l 1
 500 0 l 1
 350 0 l 1
 200 0 l 1
 200 50 l 1
 200 100 l 1
 150 100 l 1
 100 100 l 1
 100 350 l 1
 100 600 l 1
 150 600 l 1
 200 600 l 1
 200 650 l 1
500 500 m 1
 500 600 l 1
 350 600 l 1
 200 600 l 1
 200 500 l 1
 200 400 l 1
 350 400 l 1
 500 400 l 1
 500 500 l 1
EndSplineSet
EndChar

StartChar: f
Encoding: 102 102 70
Width: 600
Flags: HW
LayerCount: 2
Back
Fore
SplineSet
400 950 m 1
 400 1000 l 1
 500 1000 l 1
 600 1000 l 1
 600 950 l 1
 600 900 l 1
 500 900 l 1
 400 900 l 1
 400 800 l 1
 400 700 l 1
 500 700 l 1
 600 700 l 1
 600 650 l 1
 600 600 l 1
 500 600 l 1
 400 600 l 1
 400 300 l 1
 400 0 l 1
 350 0 l 1
 300 0 l 1
 300 300 l 1
 300 600 l 1
 200 600 l 1
 100 600 l 1
 100 650 l 1
 100 700 l 1
 200 700 l 1
 300 700 l 1
 300 800 l 1
 300 900 l 1
 350 900 l 1
 400 900 l 1
 400 950 l 1
EndSplineSet
EndChar

StartChar: g
Encoding: 103 103 71
Width: 600
Flags: HW
LayerCount: 2
Back
Fore
SplineSet
200 650 m 1
 200 700 l 1
 400 700 l 1
 600 700 l 1
 600 350 l 1
 600 0 l 1
 550 0 l 1
 500 0 l 1
 500 -50 l 1
 500 -100 l 1
 350 -100 l 1
 200 -100 l 1
 200 -50 l 1
 200 0 l 1
 150 0 l 1
 100 0 l 1
 100 50 l 1
 100 100 l 1
 150 100 l 1
 200 100 l 1
 200 50 l 1
 200 0 l 1
 350 0 l 1
 500 0 l 1
 500 100 l 1
 500 200 l 1
 350 200 l 1
 200 200 l 1
 200 250 l 1
 200 300 l 1
 150 300 l 1
 100 300 l 1
 100 450 l 1
 100 600 l 1
 150 600 l 1
 200 600 l 1
 200 650 l 1
500 450 m 1
 500 600 l 1
 350 600 l 1
 200 600 l 1
 200 450 l 1
 200 300 l 1
 350 300 l 1
 500 300 l 1
 500 450 l 1
EndSplineSet
EndChar

StartChar: h
Encoding: 104 104 72
Width: 600
Flags: HW
LayerCount: 2
Back
Fore
SplineSet
100 500 m 1
 100 1000 l 1
 150 1000 l 1
 200 1000 l 1
 200 850 l 1
 200 700 l 1
 350 700 l 1
 500 700 l 1
 500 650 l 1
 500 600 l 1
 550 600 l 1
 600 600 l 1
 600 300 l 1
 600 0 l 1
 550 0 l 1
 500 0 l 1
 500 300 l 1
 500 600 l 1
 350 600 l 1
 200 600 l 1
 200 300 l 1
 200 0 l 1
 150 0 l 1
 100 0 l 1
 100 500 l 1
EndSplineSet
EndChar

StartChar: i
Encoding: 105 105 73
Width: 600
Flags: HW
LayerCount: 2
Back
Fore
SplineSet
300 350 m 1
 300 700 l 1
 350 700 l 1
 400 700 l 1
 400 350 l 1
 400 0 l 1
 350 0 l 1
 300 0 l 1
 300 350 l 1
300 850 m 1
 300 900 l 1
 350 900 l 1
 400 900 l 1
 400 850 l 1
 400 800 l 1
 350 800 l 1
 300 800 l 1
 300 850 l 1
EndSplineSet
EndChar

StartChar: j
Encoding: 106 106 74
Width: 600
Flags: HW
LayerCount: 2
Back
Fore
SplineSet
400 350 m 1
 400 700 l 1
 450 700 l 1
 500 700 l 1
 500 350 l 1
 500 0 l 1
 450 0 l 1
 400 0 l 1
 400 -50 l 1
 400 -100 l 1
 300 -100 l 1
 200 -100 l 1
 200 -50 l 1
 200 0 l 1
 150 0 l 1
 100 0 l 1
 100 50 l 1
 100 100 l 1
 150 100 l 1
 200 100 l 1
 200 50 l 1
 200 0 l 1
 300 0 l 1
 400 0 l 1
 400 350 l 1
400 850 m 1
 400 900 l 1
 450 900 l 1
 500 900 l 1
 500 850 l 1
 500 800 l 1
 450 800 l 1
 400 800 l 1
 400 850 l 1
EndSplineSet
EndChar

StartChar: k
Encoding: 107 107 75
Width: 600
Flags: HW
LayerCount: 2
Back
Fore
SplineSet
100 500 m 1
 100 1000 l 1
 150 1000 l 1
 200 1000 l 1
 200 700 l 1
 200 400 l 1
 250 400 l 1
 300 400 l 1
 300 450 l 1
 300 500 l 1
 350 500 l 1
 400 500 l 1
 400 550 l 1
 400 600 l 1
 450 600 l 1
 500 600 l 1
 500 650 l 1
 500 700 l 1
 550 700 l 1
 600 700 l 1
 600 650 l 1
 600 600 l 1
 550 600 l 1
 500 600 l 1
 500 550 l 1
 500 500 l 1
 450 500 l 1
 400 500 l 1
 400 450 l 1
 400 400 l 1
 350 400 l 1
 300 400 l 1
 300 350 l 1
 300 300 l 1
 350 300 l 1
 400 300 l 1
 400 250 l 1
 400 200 l 1
 450 200 l 1
 500 200 l 1
 500 150 l 1
 500 100 l 1
 550 100 l 1
 600 100 l 1
 600 50 l 1
 600 0 l 1
 550 0 l 1
 500 0 l 1
 500 50 l 1
 500 100 l 1
 450 100 l 1
 400 100 l 1
 400 150 l 1
 400 200 l 1
 350 200 l 1
 300 200 l 1
 300 250 l 1
 300 300 l 1
 250 300 l 1
 200 300 l 1
 200 150 l 1
 200 0 l 1
 150 0 l 1
 100 0 l 1
 100 500 l 1
EndSplineSet
EndChar

StartChar: l
Encoding: 108 108 76
Width: 600
Flags: HW
LayerCount: 2
Back
Fore
SplineSet
200 950 m 1
 200 1000 l 1
 300 1000 l 1
 400 1000 l 1
 400 550 l 1
 400 100 l 1
 450 100 l 1
 500 100 l 1
 500 50 l 1
 500 0 l 1
 400 0 l 1
 300 0 l 1
 300 450 l 1
 300 900 l 1
 250 900 l 1
 200 900 l 1
 200 950 l 1
EndSplineSet
EndChar

StartChar: m
Encoding: 109 109 77
Width: 600
Flags: HW
LayerCount: 2
Back
Fore
SplineSet
100 350 m 1
 100 700 l 1
 300 700 l 1
 500 700 l 1
 500 650 l 1
 500 600 l 1
 550 600 l 1
 600 600 l 1
 600 300 l 1
 600 0 l 1
 550 0 l 1
 500 0 l 1
 500 300 l 1
 500 600 l 1
 450 600 l 1
 400 600 l 1
 400 300 l 1
 400 0 l 1
 350 0 l 1
 300 0 l 1
 300 300 l 1
 300 600 l 1
 250 600 l 1
 200 600 l 1
 200 300 l 1
 200 0 l 1
 150 0 l 1
 100 0 l 1
 100 350 l 1
EndSplineSet
EndChar

StartChar: n
Encoding: 110 110 78
Width: 600
Flags: HW
LayerCount: 2
Back
Fore
SplineSet
100 350 m 1
 100 700 l 1
 300 700 l 1
 500 700 l 1
 500 650 l 1
 500 600 l 1
 550 600 l 1
 600 600 l 1
 600 300 l 1
 600 0 l 1
 550 0 l 1
 500 0 l 1
 500 300 l 1
 500 600 l 1
 350 600 l 1
 200 600 l 1
 200 300 l 1
 200 0 l 1
 150 0 l 1
 100 0 l 1
 100 350 l 1
EndSplineSet
EndChar

StartChar: o
Encoding: 111 111 79
Width: 600
Flags: HW
LayerCount: 2
Back
Fore
SplineSet
200 650 m 1
 200 700 l 1
 350 700 l 1
 500 700 l 1
 500 650 l 1
 500 600 l 1
 550 600 l 1
 600 600 l 1
 600 350 l 1
 600 100 l 1
 550 100 l 1
 500 100 l 1
 500 50 l 1
 500 0 l 1
 350 0 l 1
 200 0 l 1
 200 50 l 1
 200 100 l 1
 150 100 l 1
 100 100 l 1
 100 350 l 1
 100 600 l 1
 150 600 l 1
 200 600 l 1
 200 650 l 1
500 350 m 1
 500 600 l 1
 350 600 l 1
 200 600 l 1
 200 350 l 1
 200 100 l 1
 350 100 l 1
 500 100 l 1
 500 350 l 1
EndSplineSet
EndChar

StartChar: p
Encoding: 112 112 80
Width: 600
Flags: HW
LayerCount: 2
Back
Fore
SplineSet
100 300 m 1
 100 700 l 1
 150 700 l 1
 200 700 l 1
 200 650 l 1
 200 600 l 1
 250 600 l 1
 300 600 l 1
 300 650 l 1
 300 700 l 1
 400 700 l 1
 500 700 l 1
 500 650 l 1
 500 600 l 1
 550 600 l 1
 600 600 l 1
 600 350 l 1
 600 100 l 1
 550 100 l 1
 500 100 l 1
 500 50 l 1
 500 0 l 1
 400 0 l 1
 300 0 l 1
 300 50 l 1
 300 100 l 1
 250 100 l 1
 200 100 l 1
 200 0 l 1
 200 -100 l 1
 150 -100 l 1
 100 -100 l 1
 100 300 l 1
500 350 m 1
 500 600 l 1
 400 600 l 1
 300 600 l 1
 300 550 l 1
 300 500 l 1
 250 500 l 1
 200 500 l 1
 200 350 l 1
 200 200 l 1
 250 200 l 1
 300 200 l 1
 300 150 l 1
 300 100 l 1
 400 100 l 1
 500 100 l 1
 500 350 l 1
EndSplineSet
EndChar

StartChar: q
Encoding: 113 113 81
Width: 600
Flags: HW
LayerCount: 2
Back
Fore
SplineSet
200 650 m 1
 200 700 l 1
 300 700 l 1
 400 700 l 1
 400 650 l 1
 400 600 l 1
 450 600 l 1
 500 600 l 1
 500 650 l 1
 500 700 l 1
 550 700 l 1
 600 700 l 1
 600 300 l 1
 600 -100 l 1
 550 -100 l 1
 500 -100 l 1
 500 0 l 1
 500 100 l 1
 450 100 l 1
 400 100 l 1
 400 50 l 1
 400 0 l 1
 300 0 l 1
 200 0 l 1
 200 50 l 1
 200 100 l 1
 150 100 l 1
 100 100 l 1
 100 350 l 1
 100 600 l 1
 150 600 l 1
 200 600 l 1
 200 650 l 1
400 550 m 1
 400 600 l 1
 300 600 l 1
 200 600 l 1
 200 350 l 1
 200 100 l 1
 300 100 l 1
 400 100 l 1
 400 150 l 1
 400 200 l 1
 450 200 l 1
 500 200 l 1
 500 350 l 1
 500 500 l 1
 450 500 l 1
 400 500 l 1
 400 550 l 1
EndSplineSet
EndChar

StartChar: r
Encoding: 114 114 82
Width: 600
Flags: HW
LayerCount: 2
Back
Fore
SplineSet
100 350 m 1
 100 700 l 1
 150 700 l 1
 200 700 l 1
 200 650 l 1
 200 600 l 1
 250 600 l 1
 300 600 l 1
 300 650 l 1
 300 700 l 1
 400 700 l 1
 500 700 l 1
 500 650 l 1
 500 600 l 1
 400 600 l 1
 300 600 l 1
 300 550 l 1
 300 500 l 1
 250 500 l 1
 200 500 l 1
 200 250 l 1
 200 0 l 1
 150 0 l 1
 100 0 l 1
 100 350 l 1
EndSplineSet
EndChar

StartChar: s
Encoding: 115 115 83
Width: 600
Flags: HW
LayerCount: 2
Back
Fore
SplineSet
200 650 m 1
 200 700 l 1
 350 700 l 1
 500 700 l 1
 500 650 l 1
 500 600 l 1
 550 600 l 1
 600 600 l 1
 600 550 l 1
 600 500 l 1
 550 500 l 1
 500 500 l 1
 500 550 l 1
 500 600 l 1
 350 600 l 1
 200 600 l 1
 200 500 l 1
 200 400 l 1
 350 400 l 1
 500 400 l 1
 500 350 l 1
 500 300 l 1
 550 300 l 1
 600 300 l 1
 600 200 l 1
 600 100 l 1
 550 100 l 1
 500 100 l 1
 500 50 l 1
 500 0 l 1
 350 0 l 1
 200 0 l 1
 200 50 l 1
 200 100 l 1
 150 100 l 1
 100 100 l 1
 100 150 l 1
 100 200 l 1
 150 200 l 1
 200 200 l 1
 200 150 l 1
 200 100 l 1
 350 100 l 1
 500 100 l 1
 500 200 l 1
 500 300 l 1
 350 300 l 1
 200 300 l 1
 200 350 l 1
 200 400 l 1
 150 400 l 1
 100 400 l 1
 100 500 l 1
 100 600 l 1
 150 600 l 1
 200 600 l 1
 200 650 l 1
EndSplineSet
EndChar

StartChar: t
Encoding: 116 116 84
Width: 600
Flags: HW
LayerCount: 2
Back
Fore
SplineSet
200 800 m 1
 200 900 l 1
 250 900 l 1
 300 900 l 1
 300 800 l 1
 300 700 l 1
 400 700 l 1
 500 700 l 1
 500 650 l 1
 500 600 l 1
 400 600 l 1
 300 600 l 1
 300 350 l 1
 300 100 l 1
 400 100 l 1
 500 100 l 1
 500 50 l 1
 500 0 l 1
 400 0 l 1
 300 0 l 1
 300 50 l 1
 300 100 l 1
 250 100 l 1
 200 100 l 1
 200 350 l 1
 200 600 l 1
 150 600 l 1
 100 600 l 1
 100 650 l 1
 100 700 l 1
 150 700 l 1
 200 700 l 1
 200 800 l 1
EndSplineSet
EndChar

StartChar: u
Encoding: 117 117 85
Width: 600
Flags: HW
LayerCount: 2
Back
Fore
SplineSet
100 400 m 1
 100 700 l 1
 150 700 l 1
 200 700 l 1
 200 400 l 1
 200 100 l 1
 350 100 l 1
 500 100 l 1
 500 400 l 1
 500 700 l 1
 550 700 l 1
 600 700 l 1
 600 350 l 1
 600 0 l 1
 400 0 l 1
 200 0 l 1
 200 50 l 1
 200 100 l 1
 150 100 l 1
 100 100 l 1
 100 400 l 1
EndSplineSet
EndChar

StartChar: v
Encoding: 118 118 86
Width: 600
Flags: HW
LayerCount: 2
Back
Fore
SplineSet
100 550 m 1
 100 700 l 1
 150 700 l 1
 200 700 l 1
 200 550 l 1
 200 400 l 1
 250 400 l 1
 300 400 l 1
 300 300 l 1
 300 200 l 1
 350 200 l 1
 400 200 l 1
 400 300 l 1
 400 400 l 1
 450 400 l 1
 500 400 l 1
 500 550 l 1
 500 700 l 1
 550 700 l 1
 600 700 l 1
 600 550 l 1
 600 400 l 1
 550 400 l 1
 500 400 l 1
 500 300 l 1
 500 200 l 1
 450 200 l 1
 400 200 l 1
 400 100 l 1
 400 0 l 1
 350 0 l 1
 300 0 l 1
 300 100 l 1
 300 200 l 1
 250 200 l 1
 200 200 l 1
 200 300 l 1
 200 400 l 1
 150 400 l 1
 100 400 l 1
 100 550 l 1
EndSplineSet
EndChar

StartChar: w
Encoding: 119 119 87
Width: 600
Flags: HW
LayerCount: 2
Back
Fore
SplineSet
100 500 m 1
 100 700 l 1
 150 700 l 1
 200 700 l 1
 200 500 l 1
 200 300 l 1
 250 300 l 1
 300 300 l 1
 300 500 l 1
 300 700 l 1
 350 700 l 1
 400 700 l 1
 400 500 l 1
 400 300 l 1
 450 300 l 1
 500 300 l 1
 500 500 l 1
 500 700 l 1
 550 700 l 1
 600 700 l 1
 600 500 l 1
 600 300 l 1
 550 300 l 1
 500 300 l 1
 500 150 l 1
 500 0 l 1
 450 0 l 1
 400 0 l 1
 400 150 l 1
 400 300 l 1
 350 300 l 1
 300 300 l 1
 300 150 l 1
 300 0 l 1
 250 0 l 1
 200 0 l 1
 200 150 l 1
 200 300 l 1
 150 300 l 1
 100 300 l 1
 100 500 l 1
EndSplineSet
EndChar

StartChar: x
Encoding: 120 120 88
Width: 600
Flags: HW
LayerCount: 2
Back
Fore
SplineSet
100 600 m 1
 100 700 l 1
 150 700 l 1
 200 700 l 1
 200 600 l 1
 200 500 l 1
 250 500 l 1
 300 500 l 1
 300 450 l 1
 300 400 l 1
 350 400 l 1
 400 400 l 1
 400 450 l 1
 400 500 l 1
 450 500 l 1
 500 500 l 1
 500 600 l 1
 500 700 l 1
 550 700 l 1
 600 700 l 1
 600 600 l 1
 600 500 l 1
 550 500 l 1
 500 500 l 1
 500 450 l 1
 500 400 l 1
 450 400 l 1
 400 400 l 1
 400 350 l 1
 400 300 l 1
 450 300 l 1
 500 300 l 1
 500 250 l 1
 500 200 l 1
 550 200 l 1
 600 200 l 1
 600 100 l 1
 600 0 l 1
 550 0 l 1
 500 0 l 1
 500 100 l 1
 500 200 l 1
 450 200 l 1
 400 200 l 1
 400 250 l 1
 400 300 l 1
 350 300 l 1
 300 300 l 1
 300 250 l 1
 300 200 l 1
 250 200 l 1
 200 200 l 1
 200 100 l 1
 200 0 l 1
 150 0 l 1
 100 0 l 1
 100 100 l 1
 100 200 l 1
 150 200 l 1
 200 200 l 1
 200 250 l 1
 200 300 l 1
 250 300 l 1
 300 300 l 1
 300 350 l 1
 300 400 l 1
 250 400 l 1
 200 400 l 1
 200 450 l 1
 200 500 l 1
 150 500 l 1
 100 500 l 1
 100 600 l 1
EndSplineSet
EndChar

StartChar: y
Encoding: 121 121 89
Width: 600
Flags: HW
LayerCount: 2
Back
Fore
SplineSet
100 550 m 1
 100 700 l 1
 150 700 l 1
 200 700 l 1
 200 550 l 1
 200 400 l 1
 250 400 l 1
 300 400 l 1
 300 300 l 1
 300 200 l 1
 350 200 l 1
 400 200 l 1
 400 300 l 1
 400 400 l 1
 450 400 l 1
 500 400 l 1
 500 550 l 1
 500 700 l 1
 550 700 l 1
 600 700 l 1
 600 550 l 1
 600 400 l 1
 550 400 l 1
 500 400 l 1
 500 300 l 1
 500 200 l 1
 450 200 l 1
 400 200 l 1
 400 100 l 1
 400 0 l 1
 350 0 l 1
 300 0 l 1
 300 -50 l 1
 300 -100 l 1
 200 -100 l 1
 100 -100 l 1
 100 -50 l 1
 100 0 l 1
 200 0 l 1
 300 0 l 1
 300 100 l 1
 300 200 l 1
 250 200 l 1
 200 200 l 1
 200 300 l 1
 200 400 l 1
 150 400 l 1
 100 400 l 1
 100 550 l 1
EndSplineSet
EndChar

StartChar: z
Encoding: 122 122 90
Width: 600
Flags: HW
LayerCount: 2
Back
Fore
SplineSet
100 650 m 1
 100 700 l 1
 350 700 l 1
 600 700 l 1
 600 600 l 1
 600 500 l 1
 550 500 l 1
 500 500 l 1
 500 450 l 1
 500 400 l 1
 450 400 l 1
 400 400 l 1
 400 350 l 1
 400 300 l 1
 350 300 l 1
 300 300 l 1
 300 250 l 1
 300 200 l 1
 250 200 l 1
 200 200 l 1
 200 150 l 1
 200 100 l 1
 400 100 l 1
 600 100 l 1
 600 50 l 1
 600 0 l 1
 350 0 l 1
 100 0 l 1
 100 100 l 1
 100 200 l 1
 150 200 l 1
 200 200 l 1
 200 250 l 1
 200 300 l 1
 250 300 l 1
 300 300 l 1
 300 350 l 1
 300 400 l 1
 350 400 l 1
 400 400 l 1
 400 450 l 1
 400 500 l 1
 450 500 l 1
 500 500 l 1
 500 550 l 1
 500 600 l 1
 300 600 l 1
 100 600 l 1
 100 650 l 1
EndSplineSet
EndChar

StartChar: braceleft
Encoding: 123 123 91
Width: 600
Flags: HW
LayerCount: 2
Back
Fore
SplineSet
400 950 m 1
 400 1000 l 1
 500 1000 l 1
 600 1000 l 1
 600 950 l 1
 600 900 l 1
 500 900 l 1
 400 900 l 1
 400 700 l 1
 400 500 l 1
 350 500 l 1
 300 500 l 1
 300 450 l 1
 300 400 l 1
 350 400 l 1
 400 400 l 1
 400 200 l 1
 400 0 l 1
 500 0 l 1
 600 0 l 1
 600 -50 l 1
 600 -100 l 1
 500 -100 l 1
 400 -100 l 1
 400 -50 l 1
 400 0 l 1
 350 0 l 1
 300 0 l 1
 300 200 l 1
 300 400 l 1
 250 400 l 1
 200 400 l 1
 200 450 l 1
 200 500 l 1
 250 500 l 1
 300 500 l 1
 300 700 l 1
 300 900 l 1
 350 900 l 1
 400 900 l 1
 400 950 l 1
EndSplineSet
EndChar

StartChar: bar
Encoding: 124 124 92
Width: 600
Flags: HW
LayerCount: 2
Back
Fore
SplineSet
300 450 m 1
 300 1000 l 1
 350 1000 l 1
 400 1000 l 1
 400 450 l 1
 400 -100 l 1
 350 -100 l 1
 300 -100 l 1
 300 450 l 1
EndSplineSet
EndChar

StartChar: braceright
Encoding: 125 125 93
Width: 600
Flags: HW
LayerCount: 2
Back
Fore
SplineSet
100 950 m 1
 100 1000 l 1
 200 1000 l 1
 300 1000 l 1
 300 950 l 1
 300 900 l 1
 350 900 l 1
 400 900 l 1
 400 700 l 1
 400 500 l 1
 450 500 l 1
 500 500 l 1
 500 450 l 1
 500 400 l 1
 450 400 l 1
 400 400 l 1
 400 200 l 1
 400 0 l 1
 350 0 l 1
 300 0 l 1
 300 -50 l 1
 300 -100 l 1
 200 -100 l 1
 100 -100 l 1
 100 -50 l 1
 100 0 l 1
 200 0 l 1
 300 0 l 1
 300 200 l 1
 300 400 l 1
 350 400 l 1
 400 400 l 1
 400 450 l 1
 400 500 l 1
 350 500 l 1
 300 500 l 1
 300 700 l 1
 300 900 l 1
 200 900 l 1
 100 900 l 1
 100 950 l 1
EndSplineSet
EndChar

StartChar: asciitilde
Encoding: 126 126 94
Width: 600
Flags: HW
LayerCount: 2
Back
Fore
SplineSet
100 950 m 1
 100 1000 l 1
 350 1000 l 1
 600 1000 l 1
 600 950 l 1
 600 900 l 1
 350 900 l 1
 100 900 l 1
 100 950 l 1
EndSplineSet
EndChar

StartChar: cent
Encoding: 162 162 95
Width: 1200
Flags: HW
LayerCount: 2
Back
Fore
SplineSet
600 950 m 1
 600 1000 l 1
 650 1000 l 1
 700 1000 l 1
 700 950 l 1
 700 900 l 1
 800 900 l 1
 900 900 l 1
 900 850 l 1
 900 800 l 1
 950 800 l 1
 1000 800 l 1
 1000 750 l 1
 1000 700 l 1
 950 700 l 1
 900 700 l 1
 900 750 l 1
 900 800 l 1
 800 800 l 1
 700 800 l 1
 700 500 l 1
 700 200 l 1
 800 200 l 1
 900 200 l 1
 900 250 l 1
 900 300 l 1
 950 300 l 1
 1000 300 l 1
 1000 250 l 1
 1000 200 l 1
 950 200 l 1
 900 200 l 1
 900 150 l 1
 900 100 l 1
 800 100 l 1
 700 100 l 1
 700 50 l 1
 700 0 l 1
 650 0 l 1
 600 0 l 1
 600 50 l 1
 600 100 l 1
 550 100 l 1
 500 100 l 1
 500 150 l 1
 500 200 l 1
 450 200 l 1
 400 200 l 1
 400 250 l 1
 400 300 l 1
 350 300 l 1
 300 300 l 1
 300 500 l 1
 300 700 l 1
 350 700 l 1
 400 700 l 1
 400 750 l 1
 400 800 l 1
 450 800 l 1
 500 800 l 1
 500 850 l 1
 500 900 l 1
 550 900 l 1
 600 900 l 1
 600 950 l 1
600 500 m 1
 600 800 l 1
 550 800 l 1
 500 800 l 1
 500 750 l 1
 500 700 l 1
 450 700 l 1
 400 700 l 1
 400 500 l 1
 400 300 l 1
 450 300 l 1
 500 300 l 1
 500 250 l 1
 500 200 l 1
 550 200 l 1
 600 200 l 1
 600 500 l 1
EndSplineSet
EndChar

StartChar: sterling
Encoding: 163 163 96
Width: 1200
Flags: HW
LayerCount: 2
Back
Fore
SplineSet
500 850 m 1
 500 900 l 1
 650 900 l 1
 800 900 l 1
 800 850 l 1
 800 800 l 1
 850 800 l 1
 900 800 l 1
 900 700 l 1
 900 600 l 1
 850 600 l 1
 800 600 l 1
 800 700 l 1
 800 800 l 1
 650 800 l 1
 500 800 l 1
 500 650 l 1
 500 500 l 1
 650 500 l 1
 800 500 l 1
 800 450 l 1
 800 400 l 1
 700 400 l 1
 600 400 l 1
 600 250 l 1
 600 100 l 1
 750 100 l 1
 900 100 l 1
 900 200 l 1
 900 300 l 1
 950 300 l 1
 1000 300 l 1
 1000 200 l 1
 1000 100 l 1
 950 100 l 1
 900 100 l 1
 900 50 l 1
 900 0 l 1
 750 0 l 1
 600 0 l 1
 600 50 l 1
 600 100 l 1
 550 100 l 1
 500 100 l 1
 500 50 l 1
 500 0 l 1
 400 0 l 1
 300 0 l 1
 300 50 l 1
 300 100 l 1
 250 100 l 1
 200 100 l 1
 200 150 l 1
 200 200 l 1
 250 200 l 1
 300 200 l 1
 300 250 l 1
 300 300 l 1
 400 300 l 1
 500 300 l 1
 500 350 l 1
 500 400 l 1
 400 400 l 1
 300 400 l 1
 300 450 l 1
 300 500 l 1
 350 500 l 1
 400 500 l 1
 400 650 l 1
 400 800 l 1
 450 800 l 1
 500 800 l 1
 500 850 l 1
500 150 m 1
 500 200 l 1
 400 200 l 1
 300 200 l 1
 300 150 l 1
 300 100 l 1
 400 100 l 1
 500 100 l 1
 500 150 l 1
EndSplineSet
EndChar

StartChar: section
Encoding: 167 167 97
Width: 1200
Flags: HW
LayerCount: 2
Back
Fore
SplineSet
500 950 m 1
 500 1000 l 1
 600 1000 l 1
 700 1000 l 1
 700 950 l 1
 700 900 l 1
 750 900 l 1
 800 900 l 1
 800 850 l 1
 800 800 l 1
 750 800 l 1
 700 800 l 1
 700 850 l 1
 700 900 l 1
 600 900 l 1
 500 900 l 1
 500 800 l 1
 500 700 l 1
 550 700 l 1
 600 700 l 1
 600 650 l 1
 600 600 l 1
 650 600 l 1
 700 600 l 1
 700 550 l 1
 700 500 l 1
 750 500 l 1
 800 500 l 1
 800 400 l 1
 800 300 l 1
 750 300 l 1
 700 300 l 1
 700 250 l 1
 700 200 l 1
 750 200 l 1
 800 200 l 1
 800 100 l 1
 800 0 l 1
 750 0 l 1
 700 0 l 1
 700 -50 l 1
 700 -100 l 1
 600 -100 l 1
 500 -100 l 1
 500 -50 l 1
 500 0 l 1
 450 0 l 1
 400 0 l 1
 400 50 l 1
 400 100 l 1
 450 100 l 1
 500 100 l 1
 500 50 l 1
 500 0 l 1
 600 0 l 1
 700 0 l 1
 700 100 l 1
 700 200 l 1
 650 200 l 1
 600 200 l 1
 600 250 l 1
 600 300 l 1
 550 300 l 1
 500 300 l 1
 500 350 l 1
 500 400 l 1
 450 400 l 1
 400 400 l 1
 400 500 l 1
 400 600 l 1
 450 600 l 1
 500 600 l 1
 500 650 l 1
 500 700 l 1
 450 700 l 1
 400 700 l 1
 400 800 l 1
 400 900 l 1
 450 900 l 1
 500 900 l 1
 500 950 l 1
600 550 m 1
 600 600 l 1
 550 600 l 1
 500 600 l 1
 500 500 l 1
 500 400 l 1
 550 400 l 1
 600 400 l 1
 600 350 l 1
 600 300 l 1
 650 300 l 1
 700 300 l 1
 700 400 l 1
 700 500 l 1
 650 500 l 1
 600 500 l 1
 600 550 l 1
EndSplineSet
EndChar

StartChar: dieresis
Encoding: 168 168 98
Width: 1200
Flags: HW
LayerCount: 2
Back
Fore
SplineSet
700 900 m 1
 700 1000 l 1
 800 1000 l 1
 900 1000 l 1
 900 900 l 1
 900 800 l 1
 800 800 l 1
 700 800 l 1
 700 900 l 1
300 900 m 1
 300 1000 l 1
 400 1000 l 1
 500 1000 l 1
 500 900 l 1
 500 800 l 1
 400 800 l 1
 300 800 l 1
 300 900 l 1
EndSplineSet
EndChar

StartChar: logicalnot
Encoding: 172 172 99
Width: 1200
Flags: HW
LayerCount: 2
Back
Fore
SplineSet
200 650 m 1
 200 700 l 1
 650 700 l 1
 1100 700 l 1
 1100 500 l 1
 1100 300 l 1
 1050 300 l 1
 1000 300 l 1
 1000 450 l 1
 1000 600 l 1
 600 600 l 1
 200 600 l 1
 200 650 l 1
EndSplineSet
EndChar

StartChar: degree
Encoding: 176 176 100
Width: 1200
Flags: HW
LayerCount: 2
Back
Fore
SplineSet
200 950 m 1
 200 1000 l 1
 250 1000 l 1
 300 1000 l 1
 300 950 l 1
 300 900 l 1
 350 900 l 1
 400 900 l 1
 400 850 l 1
 400 800 l 1
 350 800 l 1
 300 800 l 1
 300 750 l 1
 300 700 l 1
 250 700 l 1
 200 700 l 1
 200 750 l 1
 200 800 l 1
 150 800 l 1
 100 800 l 1
 100 850 l 1
 100 900 l 1
 150 900 l 1
 200 900 l 1
 200 950 l 1
300 850 m 1
 300 900 l 1
 250 900 l 1
 200 900 l 1
 200 850 l 1
 200 800 l 1
 250 800 l 1
 300 800 l 1
 300 850 l 1
EndSplineSet
EndChar

StartChar: plusminus
Encoding: 177 177 101
Width: 1200
Flags: HW
LayerCount: 2
Back
Fore
SplineSet
200 50 m 1
 200 100 l 1
 650 100 l 1
 1100 100 l 1
 1100 50 l 1
 1100 0 l 1
 650 0 l 1
 200 0 l 1
 200 50 l 1
600 750 m 1
 600 900 l 1
 650 900 l 1
 700 900 l 1
 700 750 l 1
 700 600 l 1
 900 600 l 1
 1100 600 l 1
 1100 550 l 1
 1100 500 l 1
 900 500 l 1
 700 500 l 1
 700 350 l 1
 700 200 l 1
 650 200 l 1
 600 200 l 1
 600 350 l 1
 600 500 l 1
 400 500 l 1
 200 500 l 1
 200 550 l 1
 200 600 l 1
 400 600 l 1
 600 600 l 1
 600 750 l 1
EndSplineSet
EndChar

StartChar: acute
Encoding: 180 180 102
Width: 1200
Flags: HW
LayerCount: 2
Back
Fore
SplineSet
600 950 m 1
 600 1000 l 1
 650 1000 l 1
 700 1000 l 1
 700 950 l 1
 700 900 l 1
 650 900 l 1
 600 900 l 1
 600 850 l 1
 600 800 l 1
 550 800 l 1
 500 800 l 1
 500 850 l 1
 500 900 l 1
 550 900 l 1
 600 900 l 1
 600 950 l 1
EndSplineSet
EndChar

StartChar: paragraph
Encoding: 182 182 103
Width: 1200
Flags: HW
LayerCount: 2
Back
Fore
SplineSet
400 950 m 1
 400 1000 l 1
 650 1000 l 1
 900 1000 l 1
 900 950 l 1
 900 900 l 1
 850 900 l 1
 800 900 l 1
 800 400 l 1
 800 -100 l 1
 750 -100 l 1
 700 -100 l 1
 700 400 l 1
 700 900 l 1
 650 900 l 1
 600 900 l 1
 600 400 l 1
 600 -100 l 1
 550 -100 l 1
 500 -100 l 1
 500 150 l 1
 500 400 l 1
 450 400 l 1
 400 400 l 1
 400 450 l 1
 400 500 l 1
 350 500 l 1
 300 500 l 1
 300 550 l 1
 300 600 l 1
 250 600 l 1
 200 600 l 1
 200 700 l 1
 200 800 l 1
 250 800 l 1
 300 800 l 1
 300 850 l 1
 300 900 l 1
 350 900 l 1
 400 900 l 1
 400 950 l 1
EndSplineSet
EndChar

StartChar: multiply
Encoding: 215 215 104
Width: 1200
Flags: HW
LayerCount: 2
Back
Fore
SplineSet
200 850 m 1
 200 900 l 1
 250 900 l 1
 300 900 l 1
 300 850 l 1
 300 800 l 1
 350 800 l 1
 400 800 l 1
 400 750 l 1
 400 700 l 1
 450 700 l 1
 500 700 l 1
 500 650 l 1
 500 600 l 1
 550 600 l 1
 600 600 l 1
 600 550 l 1
 600 500 l 1
 650 500 l 1
 700 500 l 1
 700 550 l 1
 700 600 l 1
 750 600 l 1
 800 600 l 1
 800 650 l 1
 800 700 l 1
 850 700 l 1
 900 700 l 1
 900 750 l 1
 900 800 l 1
 950 800 l 1
 1000 800 l 1
 1000 850 l 1
 1000 900 l 1
 1050 900 l 1
 1100 900 l 1
 1100 850 l 1
 1100 800 l 1
 1050 800 l 1
 1000 800 l 1
 1000 750 l 1
 1000 700 l 1
 950 700 l 1
 900 700 l 1
 900 650 l 1
 900 600 l 1
 850 600 l 1
 800 600 l 1
 800 550 l 1
 800 500 l 1
 750 500 l 1
 700 500 l 1
 700 450 l 1
 700 400 l 1
 750 400 l 1
 800 400 l 1
 800 350 l 1
 800 300 l 1
 850 300 l 1
 900 300 l 1
 900 250 l 1
 900 200 l 1
 950 200 l 1
 1000 200 l 1
 1000 150 l 1
 1000 100 l 1
 1050 100 l 1
 1100 100 l 1
 1100 50 l 1
 1100 0 l 1
 1050 0 l 1
 1000 0 l 1
 1000 50 l 1
 1000 100 l 1
 950 100 l 1
 900 100 l 1
 900 150 l 1
 900 200 l 1
 850 200 l 1
 800 200 l 1
 800 250 l 1
 800 300 l 1
 750 300 l 1
 700 300 l 1
 700 350 l 1
 700 400 l 1
 650 400 l 1
 600 400 l 1
 600 350 l 1
 600 300 l 1
 550 300 l 1
 500 300 l 1
 500 250 l 1
 500 200 l 1
 450 200 l 1
 400 200 l 1
 400 150 l 1
 400 100 l 1
 350 100 l 1
 300 100 l 1
 300 50 l 1
 300 0 l 1
 250 0 l 1
 200 0 l 1
 200 50 l 1
 200 100 l 1
 250 100 l 1
 300 100 l 1
 300 150 l 1
 300 200 l 1
 350 200 l 1
 400 200 l 1
 400 250 l 1
 400 300 l 1
 450 300 l 1
 500 300 l 1
 500 350 l 1
 500 400 l 1
 550 400 l 1
 600 400 l 1
 600 450 l 1
 600 500 l 1
 550 500 l 1
 500 500 l 1
 500 550 l 1
 500 600 l 1
 450 600 l 1
 400 600 l 1
 400 650 l 1
 400 700 l 1
 350 700 l 1
 300 700 l 1
 300 750 l 1
 300 800 l 1
 250 800 l 1
 200 800 l 1
 200 850 l 1
EndSplineSet
EndChar

StartChar: divide
Encoding: 247 247 105
Width: 1200
Flags: HW
LayerCount: 2
Back
Fore
SplineSet
600 100 m 1
 600 200 l 1
 650 200 l 1
 700 200 l 1
 700 100 l 1
 700 0 l 1
 650 0 l 1
 600 0 l 1
 600 100 l 1
200 450 m 1
 200 500 l 1
 650 500 l 1
 1100 500 l 1
 1100 450 l 1
 1100 400 l 1
 650 400 l 1
 200 400 l 1
 200 450 l 1
600 800 m 1
 600 900 l 1
 650 900 l 1
 700 900 l 1
 700 800 l 1
 700 700 l 1
 650 700 l 1
 600 700 l 1
 600 800 l 1
EndSplineSet
EndChar

StartChar: Alpha
Encoding: 913 913 106
Width: 1200
Flags: HW
LayerCount: 2
Back
Fore
SplineSet
600 950 m 1
 600 1000 l 1
 650 1000 l 1
 700 1000 l 1
 700 950 l 1
 700 900 l 1
 750 900 l 1
 800 900 l 1
 800 800 l 1
 800 700 l 1
 850 700 l 1
 900 700 l 1
 900 600 l 1
 900 500 l 1
 950 500 l 1
 1000 500 l 1
 1000 350 l 1
 1000 200 l 1
 1050 200 l 1
 1100 200 l 1
 1100 100 l 1
 1100 0 l 1
 1050 0 l 1
 1000 0 l 1
 1000 100 l 1
 1000 200 l 1
 950 200 l 1
 900 200 l 1
 900 300 l 1
 900 400 l 1
 650 400 l 1
 400 400 l 1
 400 300 l 1
 400 200 l 1
 350 200 l 1
 300 200 l 1
 300 100 l 1
 300 0 l 1
 250 0 l 1
 200 0 l 1
 200 100 l 1
 200 200 l 1
 250 200 l 1
 300 200 l 1
 300 350 l 1
 300 500 l 1
 350 500 l 1
 400 500 l 1
 400 600 l 1
 400 700 l 1
 450 700 l 1
 500 700 l 1
 500 800 l 1
 500 900 l 1
 550 900 l 1
 600 900 l 1
 600 950 l 1
700 800 m 1
 700 900 l 1
 650 900 l 1
 600 900 l 1
 600 800 l 1
 600 700 l 1
 550 700 l 1
 500 700 l 1
 500 600 l 1
 500 500 l 1
 650 500 l 1
 800 500 l 1
 800 600 l 1
 800 700 l 1
 750 700 l 1
 700 700 l 1
 700 800 l 1
EndSplineSet
EndChar

StartChar: Beta
Encoding: 914 914 107
Width: 1200
Flags: HW
LayerCount: 2
Back
Fore
SplineSet
300 500 m 1
 300 1000 l 1
 600 1000 l 1
 900 1000 l 1
 900 950 l 1
 900 900 l 1
 950 900 l 1
 1000 900 l 1
 1000 750 l 1
 1000 600 l 1
 950 600 l 1
 900 600 l 1
 900 550 l 1
 900 500 l 1
 950 500 l 1
 1000 500 l 1
 1000 300 l 1
 1000 100 l 1
 950 100 l 1
 900 100 l 1
 900 50 l 1
 900 0 l 1
 600 0 l 1
 300 0 l 1
 300 500 l 1
900 750 m 1
 900 900 l 1
 650 900 l 1
 400 900 l 1
 400 750 l 1
 400 600 l 1
 650 600 l 1
 900 600 l 1
 900 750 l 1
900 300 m 1
 900 500 l 1
 650 500 l 1
 400 500 l 1
 400 300 l 1
 400 100 l 1
 650 100 l 1
 900 100 l 1
 900 300 l 1
EndSplineSet
EndChar

StartChar: Gamma
Encoding: 915 915 108
Width: 1200
Flags: HW
LayerCount: 2
Back
Fore
SplineSet
300 500 m 1
 300 1000 l 1
 600 1000 l 1
 900 1000 l 1
 900 950 l 1
 900 900 l 1
 650 900 l 1
 400 900 l 1
 400 450 l 1
 400 0 l 1
 350 0 l 1
 300 0 l 1
 300 500 l 1
EndSplineSet
EndChar

StartChar: uni0394
Encoding: 916 916 109
Width: 1200
Flags: HW
LayerCount: 2
Back
Fore
SplineSet
600 900 m 1
 600 1000 l 1
 650 1000 l 1
 700 1000 l 1
 700 900 l 1
 700 800 l 1
 750 800 l 1
 800 800 l 1
 800 700 l 1
 800 600 l 1
 850 600 l 1
 900 600 l 1
 900 500 l 1
 900 400 l 1
 950 400 l 1
 1000 400 l 1
 1000 300 l 1
 1000 200 l 1
 1050 200 l 1
 1100 200 l 1
 1100 100 l 1
 1100 0 l 1
 650 0 l 1
 200 0 l 1
 200 100 l 1
 200 200 l 1
 250 200 l 1
 300 200 l 1
 300 300 l 1
 300 400 l 1
 350 400 l 1
 400 400 l 1
 400 500 l 1
 400 600 l 1
 450 600 l 1
 500 600 l 1
 500 700 l 1
 500 800 l 1
 550 800 l 1
 600 800 l 1
 600 900 l 1
700 700 m 1
 700 800 l 1
 650 800 l 1
 600 800 l 1
 600 700 l 1
 600 600 l 1
 550 600 l 1
 500 600 l 1
 500 500 l 1
 500 400 l 1
 450 400 l 1
 400 400 l 1
 400 300 l 1
 400 200 l 1
 350 200 l 1
 300 200 l 1
 300 150 l 1
 300 100 l 1
 650 100 l 1
 1000 100 l 1
 1000 150 l 1
 1000 200 l 1
 950 200 l 1
 900 200 l 1
 900 300 l 1
 900 400 l 1
 850 400 l 1
 800 400 l 1
 800 500 l 1
 800 600 l 1
 750 600 l 1
 700 600 l 1
 700 700 l 1
EndSplineSet
EndChar

StartChar: Epsilon
Encoding: 917 917 110
Width: 1200
Flags: HW
LayerCount: 2
Back
Fore
SplineSet
300 500 m 1
 300 1000 l 1
 650 1000 l 1
 1000 1000 l 1
 1000 950 l 1
 1000 900 l 1
 700 900 l 1
 400 900 l 1
 400 750 l 1
 400 600 l 1
 650 600 l 1
 900 600 l 1
 900 550 l 1
 900 500 l 1
 650 500 l 1
 400 500 l 1
 400 300 l 1
 400 100 l 1
 700 100 l 1
 1000 100 l 1
 1000 50 l 1
 1000 0 l 1
 650 0 l 1
 300 0 l 1
 300 500 l 1
EndSplineSet
EndChar

StartChar: Zeta
Encoding: 918 918 111
Width: 1200
Flags: HW
LayerCount: 2
Back
Fore
SplineSet
300 950 m 1
 300 1000 l 1
 650 1000 l 1
 1000 1000 l 1
 1000 900 l 1
 1000 800 l 1
 950 800 l 1
 900 800 l 1
 900 750 l 1
 900 700 l 1
 850 700 l 1
 800 700 l 1
 800 650 l 1
 800 600 l 1
 750 600 l 1
 700 600 l 1
 700 500 l 1
 700 400 l 1
 650 400 l 1
 600 400 l 1
 600 350 l 1
 600 300 l 1
 550 300 l 1
 500 300 l 1
 500 250 l 1
 500 200 l 1
 450 200 l 1
 400 200 l 1
 400 150 l 1
 400 100 l 1
 700 100 l 1
 1000 100 l 1
 1000 50 l 1
 1000 0 l 1
 650 0 l 1
 300 0 l 1
 300 100 l 1
 300 200 l 1
 350 200 l 1
 400 200 l 1
 400 250 l 1
 400 300 l 1
 450 300 l 1
 500 300 l 1
 500 350 l 1
 500 400 l 1
 550 400 l 1
 600 400 l 1
 600 500 l 1
 600 600 l 1
 650 600 l 1
 700 600 l 1
 700 650 l 1
 700 700 l 1
 750 700 l 1
 800 700 l 1
 800 750 l 1
 800 800 l 1
 850 800 l 1
 900 800 l 1
 900 850 l 1
 900 900 l 1
 600 900 l 1
 300 900 l 1
 300 950 l 1
EndSplineSet
EndChar

StartChar: Eta
Encoding: 919 919 112
Width: 1200
Flags: HW
LayerCount: 2
Back
Fore
SplineSet
300 500 m 1
 300 1000 l 1
 350 1000 l 1
 400 1000 l 1
 400 800 l 1
 400 600 l 1
 650 600 l 1
 900 600 l 1
 900 800 l 1
 900 1000 l 1
 950 1000 l 1
 1000 1000 l 1
 1000 500 l 1
 1000 0 l 1
 950 0 l 1
 900 0 l 1
 900 250 l 1
 900 500 l 1
 650 500 l 1
 400 500 l 1
 400 250 l 1
 400 0 l 1
 350 0 l 1
 300 0 l 1
 300 500 l 1
EndSplineSet
EndChar

StartChar: Theta
Encoding: 920 920 113
Width: 1200
Flags: HW
LayerCount: 2
Back
Fore
SplineSet
400 550 m 1
 400 600 l 1
 600 600 l 1
 800 600 l 1
 800 550 l 1
 800 500 l 1
 600 500 l 1
 400 500 l 1
 400 550 l 1
400 950 m 1
 400 1000 l 1
 600 1000 l 1
 800 1000 l 1
 800 950 l 1
 800 900 l 1
 850 900 l 1
 900 900 l 1
 900 850 l 1
 900 800 l 1
 950 800 l 1
 1000 800 l 1
 1000 500 l 1
 1000 200 l 1
 950 200 l 1
 900 200 l 1
 900 150 l 1
 900 100 l 1
 850 100 l 1
 800 100 l 1
 800 50 l 1
 800 0 l 1
 600 0 l 1
 400 0 l 1
 400 50 l 1
 400 100 l 1
 350 100 l 1
 300 100 l 1
 300 150 l 1
 300 200 l 1
 250 200 l 1
 200 200 l 1
 200 500 l 1
 200 800 l 1
 250 800 l 1
 300 800 l 1
 300 850 l 1
 300 900 l 1
 350 900 l 1
 400 900 l 1
 400 950 l 1
800 850 m 1
 800 900 l 1
 600 900 l 1
 400 900 l 1
 400 850 l 1
 400 800 l 1
 350 800 l 1
 300 800 l 1
 300 500 l 1
 300 200 l 1
 350 200 l 1
 400 200 l 1
 400 150 l 1
 400 100 l 1
 600 100 l 1
 800 100 l 1
 800 150 l 1
 800 200 l 1
 850 200 l 1
 900 200 l 1
 900 500 l 1
 900 800 l 1
 850 800 l 1
 800 800 l 1
 800 850 l 1
EndSplineSet
EndChar

StartChar: Iota
Encoding: 921 921 114
Width: 1200
Flags: HW
LayerCount: 2
Back
Fore
SplineSet
600 500 m 1
 600 1000 l 1
 650 1000 l 1
 700 1000 l 1
 700 500 l 1
 700 0 l 1
 650 0 l 1
 600 0 l 1
 600 500 l 1
EndSplineSet
EndChar

StartChar: Kappa
Encoding: 922 922 115
Width: 1200
Flags: HW
LayerCount: 2
Back
Fore
SplineSet
300 500 m 1
 300 1000 l 1
 350 1000 l 1
 400 1000 l 1
 400 800 l 1
 400 600 l 1
 500 600 l 1
 600 600 l 1
 600 650 l 1
 600 700 l 1
 650 700 l 1
 700 700 l 1
 700 750 l 1
 700 800 l 1
 750 800 l 1
 800 800 l 1
 800 850 l 1
 800 900 l 1
 850 900 l 1
 900 900 l 1
 900 950 l 1
 900 1000 l 1
 950 1000 l 1
 1000 1000 l 1
 1000 950 l 1
 1000 900 l 1
 950 900 l 1
 900 900 l 1
 900 850 l 1
 900 800 l 1
 850 800 l 1
 800 800 l 1
 800 750 l 1
 800 700 l 1
 750 700 l 1
 700 700 l 1
 700 650 l 1
 700 600 l 1
 650 600 l 1
 600 600 l 1
 600 500 l 1
 600 400 l 1
 650 400 l 1
 700 400 l 1
 700 350 l 1
 700 300 l 1
 750 300 l 1
 800 300 l 1
 800 250 l 1
 800 200 l 1
 850 200 l 1
 900 200 l 1
 900 150 l 1
 900 100 l 1
 950 100 l 1
 1000 100 l 1
 1000 50 l 1
 1000 0 l 1
 950 0 l 1
 900 0 l 1
 900 50 l 1
 900 100 l 1
 850 100 l 1
 800 100 l 1
 800 150 l 1
 800 200 l 1
 750 200 l 1
 700 200 l 1
 700 250 l 1
 700 300 l 1
 650 300 l 1
 600 300 l 1
 600 350 l 1
 600 400 l 1
 550 400 l 1
 500 400 l 1
 500 450 l 1
 500 500 l 1
 450 500 l 1
 400 500 l 1
 400 250 l 1
 400 0 l 1
 350 0 l 1
 300 0 l 1
 300 500 l 1
EndSplineSet
EndChar

StartChar: Lambda
Encoding: 923 923 116
Width: 1200
Flags: HW
LayerCount: 2
Back
Fore
SplineSet
600 900 m 1
 600 1000 l 1
 650 1000 l 1
 700 1000 l 1
 700 900 l 1
 700 800 l 1
 750 800 l 1
 800 800 l 1
 800 700 l 1
 800 600 l 1
 850 600 l 1
 900 600 l 1
 900 500 l 1
 900 400 l 1
 950 400 l 1
 1000 400 l 1
 1000 300 l 1
 1000 200 l 1
 1050 200 l 1
 1100 200 l 1
 1100 100 l 1
 1100 0 l 1
 1050 0 l 1
 1000 0 l 1
 1000 100 l 1
 1000 200 l 1
 950 200 l 1
 900 200 l 1
 900 300 l 1
 900 400 l 1
 850 400 l 1
 800 400 l 1
 800 500 l 1
 800 600 l 1
 750 600 l 1
 700 600 l 1
 700 700 l 1
 700 800 l 1
 650 800 l 1
 600 800 l 1
 600 700 l 1
 600 600 l 1
 550 600 l 1
 500 600 l 1
 500 500 l 1
 500 400 l 1
 450 400 l 1
 400 400 l 1
 400 300 l 1
 400 200 l 1
 350 200 l 1
 300 200 l 1
 300 100 l 1
 300 0 l 1
 250 0 l 1
 200 0 l 1
 200 100 l 1
 200 200 l 1
 250 200 l 1
 300 200 l 1
 300 300 l 1
 300 400 l 1
 350 400 l 1
 400 400 l 1
 400 500 l 1
 400 600 l 1
 450 600 l 1
 500 600 l 1
 500 700 l 1
 500 800 l 1
 550 800 l 1
 600 800 l 1
 600 900 l 1
EndSplineSet
EndChar

StartChar: Mu
Encoding: 924 924 117
Width: 1200
Flags: HW
LayerCount: 2
Back
Fore
SplineSet
200 500 m 1
 200 1000 l 1
 250 1000 l 1
 300 1000 l 1
 300 950 l 1
 300 900 l 1
 350 900 l 1
 400 900 l 1
 400 800 l 1
 400 700 l 1
 450 700 l 1
 500 700 l 1
 500 550 l 1
 500 400 l 1
 550 400 l 1
 600 400 l 1
 600 300 l 1
 600 200 l 1
 650 200 l 1
 700 200 l 1
 700 300 l 1
 700 400 l 1
 750 400 l 1
 800 400 l 1
 800 550 l 1
 800 700 l 1
 850 700 l 1
 900 700 l 1
 900 800 l 1
 900 900 l 1
 950 900 l 1
 1000 900 l 1
 1000 950 l 1
 1000 1000 l 1
 1050 1000 l 1
 1100 1000 l 1
 1100 500 l 1
 1100 0 l 1
 1050 0 l 1
 1000 0 l 1
 1000 350 l 1
 1000 700 l 1
 950 700 l 1
 900 700 l 1
 900 550 l 1
 900 400 l 1
 850 400 l 1
 800 400 l 1
 800 300 l 1
 800 200 l 1
 750 200 l 1
 700 200 l 1
 700 100 l 1
 700 0 l 1
 650 0 l 1
 600 0 l 1
 600 100 l 1
 600 200 l 1
 550 200 l 1
 500 200 l 1
 500 300 l 1
 500 400 l 1
 450 400 l 1
 400 400 l 1
 400 550 l 1
 400 700 l 1
 350 700 l 1
 300 700 l 1
 300 350 l 1
 300 0 l 1
 250 0 l 1
 200 0 l 1
 200 500 l 1
EndSplineSet
EndChar

StartChar: Nu
Encoding: 925 925 118
Width: 1200
Flags: HW
LayerCount: 2
Back
Fore
SplineSet
200 500 m 1
 200 1000 l 1
 250 1000 l 1
 300 1000 l 1
 300 950 l 1
 300 900 l 1
 350 900 l 1
 400 900 l 1
 400 850 l 1
 400 800 l 1
 450 800 l 1
 500 800 l 1
 500 700 l 1
 500 600 l 1
 550 600 l 1
 600 600 l 1
 600 550 l 1
 600 500 l 1
 650 500 l 1
 700 500 l 1
 700 450 l 1
 700 400 l 1
 750 400 l 1
 800 400 l 1
 800 300 l 1
 800 200 l 1
 850 200 l 1
 900 200 l 1
 900 600 l 1
 900 1000 l 1
 950 1000 l 1
 1000 1000 l 1
 1000 500 l 1
 1000 0 l 1
 950 0 l 1
 900 0 l 1
 900 50 l 1
 900 100 l 1
 850 100 l 1
 800 100 l 1
 800 150 l 1
 800 200 l 1
 750 200 l 1
 700 200 l 1
 700 300 l 1
 700 400 l 1
 650 400 l 1
 600 400 l 1
 600 450 l 1
 600 500 l 1
 550 500 l 1
 500 500 l 1
 500 550 l 1
 500 600 l 1
 450 600 l 1
 400 600 l 1
 400 700 l 1
 400 800 l 1
 350 800 l 1
 300 800 l 1
 300 400 l 1
 300 0 l 1
 250 0 l 1
 200 0 l 1
 200 500 l 1
EndSplineSet
EndChar

StartChar: Xi
Encoding: 926 926 119
Width: 1200
Flags: HW
LayerCount: 2
Back
Fore
SplineSet
300 50 m 1
 300 100 l 1
 650 100 l 1
 1000 100 l 1
 1000 50 l 1
 1000 0 l 1
 650 0 l 1
 300 0 l 1
 300 50 l 1
400 550 m 1
 400 600 l 1
 650 600 l 1
 900 600 l 1
 900 550 l 1
 900 500 l 1
 650 500 l 1
 400 500 l 1
 400 550 l 1
300 950 m 1
 300 1000 l 1
 650 1000 l 1
 1000 1000 l 1
 1000 950 l 1
 1000 900 l 1
 650 900 l 1
 300 900 l 1
 300 950 l 1
EndSplineSet
EndChar

StartChar: Omicron
Encoding: 927 927 120
Width: 1200
Flags: HW
LayerCount: 2
Back
Fore
SplineSet
400 950 m 1
 400 1000 l 1
 600 1000 l 1
 800 1000 l 1
 800 950 l 1
 800 900 l 1
 850 900 l 1
 900 900 l 1
 900 850 l 1
 900 800 l 1
 950 800 l 1
 1000 800 l 1
 1000 500 l 1
 1000 200 l 1
 950 200 l 1
 900 200 l 1
 900 150 l 1
 900 100 l 1
 850 100 l 1
 800 100 l 1
 800 50 l 1
 800 0 l 1
 600 0 l 1
 400 0 l 1
 400 50 l 1
 400 100 l 1
 350 100 l 1
 300 100 l 1
 300 150 l 1
 300 200 l 1
 250 200 l 1
 200 200 l 1
 200 500 l 1
 200 800 l 1
 250 800 l 1
 300 800 l 1
 300 850 l 1
 300 900 l 1
 350 900 l 1
 400 900 l 1
 400 950 l 1
800 850 m 1
 800 900 l 1
 600 900 l 1
 400 900 l 1
 400 850 l 1
 400 800 l 1
 350 800 l 1
 300 800 l 1
 300 500 l 1
 300 200 l 1
 350 200 l 1
 400 200 l 1
 400 150 l 1
 400 100 l 1
 600 100 l 1
 800 100 l 1
 800 150 l 1
 800 200 l 1
 850 200 l 1
 900 200 l 1
 900 500 l 1
 900 800 l 1
 850 800 l 1
 800 800 l 1
 800 850 l 1
EndSplineSet
EndChar

StartChar: Pi
Encoding: 928 928 121
Width: 1200
Flags: HW
LayerCount: 2
Back
Fore
SplineSet
300 500 m 1
 300 1000 l 1
 650 1000 l 1
 1000 1000 l 1
 1000 500 l 1
 1000 0 l 1
 950 0 l 1
 900 0 l 1
 900 450 l 1
 900 900 l 1
 650 900 l 1
 400 900 l 1
 400 450 l 1
 400 0 l 1
 350 0 l 1
 300 0 l 1
 300 500 l 1
EndSplineSet
EndChar

StartChar: Rho
Encoding: 929 929 122
Width: 1200
Flags: HW
LayerCount: 2
Back
Fore
SplineSet
300 500 m 1
 300 1000 l 1
 600 1000 l 1
 900 1000 l 1
 900 950 l 1
 900 900 l 1
 950 900 l 1
 1000 900 l 1
 1000 700 l 1
 1000 500 l 1
 950 500 l 1
 900 500 l 1
 900 450 l 1
 900 400 l 1
 650 400 l 1
 400 400 l 1
 400 200 l 1
 400 0 l 1
 350 0 l 1
 300 0 l 1
 300 500 l 1
900 700 m 1
 900 900 l 1
 650 900 l 1
 400 900 l 1
 400 700 l 1
 400 500 l 1
 650 500 l 1
 900 500 l 1
 900 700 l 1
EndSplineSet
EndChar

StartChar: Sigma
Encoding: 931 931 123
Width: 1200
Flags: HW
LayerCount: 2
Back
Fore
SplineSet
300 900 m 1
 300 1000 l 1
 650 1000 l 1
 1000 1000 l 1
 1000 950 l 1
 1000 900 l 1
 700 900 l 1
 400 900 l 1
 400 850 l 1
 400 800 l 1
 450 800 l 1
 500 800 l 1
 500 750 l 1
 500 700 l 1
 550 700 l 1
 600 700 l 1
 600 650 l 1
 600 600 l 1
 650 600 l 1
 700 600 l 1
 700 500 l 1
 700 400 l 1
 650 400 l 1
 600 400 l 1
 600 350 l 1
 600 300 l 1
 550 300 l 1
 500 300 l 1
 500 250 l 1
 500 200 l 1
 450 200 l 1
 400 200 l 1
 400 150 l 1
 400 100 l 1
 700 100 l 1
 1000 100 l 1
 1000 50 l 1
 1000 0 l 1
 650 0 l 1
 300 0 l 1
 300 100 l 1
 300 200 l 1
 350 200 l 1
 400 200 l 1
 400 250 l 1
 400 300 l 1
 450 300 l 1
 500 300 l 1
 500 350 l 1
 500 400 l 1
 550 400 l 1
 600 400 l 1
 600 500 l 1
 600 600 l 1
 550 600 l 1
 500 600 l 1
 500 650 l 1
 500 700 l 1
 450 700 l 1
 400 700 l 1
 400 750 l 1
 400 800 l 1
 350 800 l 1
 300 800 l 1
 300 900 l 1
EndSplineSet
EndChar

StartChar: Tau
Encoding: 932 932 124
Width: 1200
Flags: HW
LayerCount: 2
Back
Fore
SplineSet
300 950 m 1
 300 1000 l 1
 650 1000 l 1
 1000 1000 l 1
 1000 950 l 1
 1000 900 l 1
 850 900 l 1
 700 900 l 1
 700 450 l 1
 700 0 l 1
 650 0 l 1
 600 0 l 1
 600 450 l 1
 600 900 l 1
 450 900 l 1
 300 900 l 1
 300 950 l 1
EndSplineSet
EndChar

StartChar: Upsilon
Encoding: 933 933 125
Width: 1200
Flags: HW
LayerCount: 2
Back
Fore
SplineSet
300 950 m 1
 300 1000 l 1
 400 1000 l 1
 500 1000 l 1
 500 950 l 1
 500 900 l 1
 550 900 l 1
 600 900 l 1
 600 800 l 1
 600 700 l 1
 650 700 l 1
 700 700 l 1
 700 800 l 1
 700 900 l 1
 750 900 l 1
 800 900 l 1
 800 950 l 1
 800 1000 l 1
 900 1000 l 1
 1000 1000 l 1
 1000 950 l 1
 1000 900 l 1
 1050 900 l 1
 1100 900 l 1
 1100 850 l 1
 1100 800 l 1
 1050 800 l 1
 1000 800 l 1
 1000 850 l 1
 1000 900 l 1
 900 900 l 1
 800 900 l 1
 800 800 l 1
 800 700 l 1
 750 700 l 1
 700 700 l 1
 700 350 l 1
 700 0 l 1
 650 0 l 1
 600 0 l 1
 600 350 l 1
 600 700 l 1
 550 700 l 1
 500 700 l 1
 500 800 l 1
 500 900 l 1
 400 900 l 1
 300 900 l 1
 300 850 l 1
 300 800 l 1
 250 800 l 1
 200 800 l 1
 200 850 l 1
 200 900 l 1
 250 900 l 1
 300 900 l 1
 300 950 l 1
EndSplineSet
EndChar

StartChar: Phi
Encoding: 934 934 126
Width: 1200
Flags: HW
LayerCount: 2
Back
Fore
SplineSet
600 950 m 1
 600 1000 l 1
 650 1000 l 1
 700 1000 l 1
 700 950 l 1
 700 900 l 1
 800 900 l 1
 900 900 l 1
 900 850 l 1
 900 800 l 1
 950 800 l 1
 1000 800 l 1
 1000 750 l 1
 1000 700 l 1
 1050 700 l 1
 1100 700 l 1
 1100 500 l 1
 1100 300 l 1
 1050 300 l 1
 1000 300 l 1
 1000 250 l 1
 1000 200 l 1
 950 200 l 1
 900 200 l 1
 900 150 l 1
 900 100 l 1
 800 100 l 1
 700 100 l 1
 700 50 l 1
 700 0 l 1
 650 0 l 1
 600 0 l 1
 600 50 l 1
 600 100 l 1
 500 100 l 1
 400 100 l 1
 400 150 l 1
 400 200 l 1
 350 200 l 1
 300 200 l 1
 300 250 l 1
 300 300 l 1
 250 300 l 1
 200 300 l 1
 200 500 l 1
 200 700 l 1
 250 700 l 1
 300 700 l 1
 300 750 l 1
 300 800 l 1
 350 800 l 1
 400 800 l 1
 400 850 l 1
 400 900 l 1
 500 900 l 1
 600 900 l 1
 600 950 l 1
600 500 m 1
 600 800 l 1
 500 800 l 1
 400 800 l 1
 400 750 l 1
 400 700 l 1
 350 700 l 1
 300 700 l 1
 300 500 l 1
 300 300 l 1
 350 300 l 1
 400 300 l 1
 400 250 l 1
 400 200 l 1
 500 200 l 1
 600 200 l 1
 600 500 l 1
900 750 m 1
 900 800 l 1
 800 800 l 1
 700 800 l 1
 700 500 l 1
 700 200 l 1
 800 200 l 1
 900 200 l 1
 900 250 l 1
 900 300 l 1
 950 300 l 1
 1000 300 l 1
 1000 500 l 1
 1000 700 l 1
 950 700 l 1
 900 700 l 1
 900 750 l 1
EndSplineSet
EndChar

StartChar: Chi
Encoding: 935 935 127
Width: 1200
Flags: HW
LayerCount: 2
Back
Fore
SplineSet
300 950 m 1
 300 1000 l 1
 350 1000 l 1
 400 1000 l 1
 400 950 l 1
 400 900 l 1
 450 900 l 1
 500 900 l 1
 500 800 l 1
 500 700 l 1
 550 700 l 1
 600 700 l 1
 600 650 l 1
 600 600 l 1
 650 600 l 1
 700 600 l 1
 700 650 l 1
 700 700 l 1
 750 700 l 1
 800 700 l 1
 800 800 l 1
 800 900 l 1
 850 900 l 1
 900 900 l 1
 900 950 l 1
 900 1000 l 1
 950 1000 l 1
 1000 1000 l 1
 1000 950 l 1
 1000 900 l 1
 950 900 l 1
 900 900 l 1
 900 800 l 1
 900 700 l 1
 850 700 l 1
 800 700 l 1
 800 650 l 1
 800 600 l 1
 750 600 l 1
 700 600 l 1
 700 550 l 1
 700 500 l 1
 750 500 l 1
 800 500 l 1
 800 400 l 1
 800 300 l 1
 850 300 l 1
 900 300 l 1
 900 200 l 1
 900 100 l 1
 950 100 l 1
 1000 100 l 1
 1000 50 l 1
 1000 0 l 1
 950 0 l 1
 900 0 l 1
 900 50 l 1
 900 100 l 1
 850 100 l 1
 800 100 l 1
 800 200 l 1
 800 300 l 1
 750 300 l 1
 700 300 l 1
 700 400 l 1
 700 500 l 1
 650 500 l 1
 600 500 l 1
 600 400 l 1
 600 300 l 1
 550 300 l 1
 500 300 l 1
 500 200 l 1
 500 100 l 1
 450 100 l 1
 400 100 l 1
 400 50 l 1
 400 0 l 1
 350 0 l 1
 300 0 l 1
 300 50 l 1
 300 100 l 1
 350 100 l 1
 400 100 l 1
 400 200 l 1
 400 300 l 1
 450 300 l 1
 500 300 l 1
 500 400 l 1
 500 500 l 1
 550 500 l 1
 600 500 l 1
 600 550 l 1
 600 600 l 1
 550 600 l 1
 500 600 l 1
 500 650 l 1
 500 700 l 1
 450 700 l 1
 400 700 l 1
 400 800 l 1
 400 900 l 1
 350 900 l 1
 300 900 l 1
 300 950 l 1
EndSplineSet
EndChar

StartChar: Psi
Encoding: 936 936 128
Width: 1200
Flags: HW
LayerCount: 2
Back
Fore
SplineSet
300 750 m 1
 300 1000 l 1
 350 1000 l 1
 400 1000 l 1
 400 750 l 1
 400 500 l 1
 450 500 l 1
 500 500 l 1
 500 450 l 1
 500 400 l 1
 550 400 l 1
 600 400 l 1
 600 700 l 1
 600 1000 l 1
 650 1000 l 1
 700 1000 l 1
 700 700 l 1
 700 400 l 1
 750 400 l 1
 800 400 l 1
 800 450 l 1
 800 500 l 1
 850 500 l 1
 900 500 l 1
 900 750 l 1
 900 1000 l 1
 950 1000 l 1
 1000 1000 l 1
 1000 750 l 1
 1000 500 l 1
 950 500 l 1
 900 500 l 1
 900 450 l 1
 900 400 l 1
 850 400 l 1
 800 400 l 1
 800 350 l 1
 800 300 l 1
 750 300 l 1
 700 300 l 1
 700 150 l 1
 700 0 l 1
 650 0 l 1
 600 0 l 1
 600 150 l 1
 600 300 l 1
 550 300 l 1
 500 300 l 1
 500 350 l 1
 500 400 l 1
 450 400 l 1
 400 400 l 1
 400 450 l 1
 400 500 l 1
 350 500 l 1
 300 500 l 1
 300 750 l 1
EndSplineSet
EndChar

StartChar: uni03A9
Encoding: 937 937 129
Width: 1200
Flags: HW
LayerCount: 2
Back
Fore
SplineSet
400 950 m 1
 400 1000 l 1
 600 1000 l 1
 800 1000 l 1
 800 950 l 1
 800 900 l 1
 850 900 l 1
 900 900 l 1
 900 850 l 1
 900 800 l 1
 950 800 l 1
 1000 800 l 1
 1000 600 l 1
 1000 400 l 1
 950 400 l 1
 900 400 l 1
 900 350 l 1
 900 300 l 1
 850 300 l 1
 800 300 l 1
 800 200 l 1
 800 100 l 1
 900 100 l 1
 1000 100 l 1
 1000 50 l 1
 1000 0 l 1
 850 0 l 1
 700 0 l 1
 700 150 l 1
 700 300 l 1
 750 300 l 1
 800 300 l 1
 800 350 l 1
 800 400 l 1
 850 400 l 1
 900 400 l 1
 900 600 l 1
 900 800 l 1
 850 800 l 1
 800 800 l 1
 800 850 l 1
 800 900 l 1
 600 900 l 1
 400 900 l 1
 400 850 l 1
 400 800 l 1
 350 800 l 1
 300 800 l 1
 300 600 l 1
 300 400 l 1
 350 400 l 1
 400 400 l 1
 400 350 l 1
 400 300 l 1
 450 300 l 1
 500 300 l 1
 500 150 l 1
 500 0 l 1
 350 0 l 1
 200 0 l 1
 200 50 l 1
 200 100 l 1
 300 100 l 1
 400 100 l 1
 400 200 l 1
 400 300 l 1
 350 300 l 1
 300 300 l 1
 300 350 l 1
 300 400 l 1
 250 400 l 1
 200 400 l 1
 200 600 l 1
 200 800 l 1
 250 800 l 1
 300 800 l 1
 300 850 l 1
 300 900 l 1
 350 900 l 1
 400 900 l 1
 400 950 l 1
EndSplineSet
EndChar

StartChar: alpha
Encoding: 945 945 130
Width: 1200
Flags: HW
LayerCount: 2
Back
Fore
SplineSet
400 750 m 1
 400 800 l 1
 550 800 l 1
 700 800 l 1
 700 750 l 1
 700 700 l 1
 750 700 l 1
 800 700 l 1
 800 650 l 1
 800 600 l 1
 850 600 l 1
 900 600 l 1
 900 700 l 1
 900 800 l 1
 950 800 l 1
 1000 800 l 1
 1000 700 l 1
 1000 600 l 1
 950 600 l 1
 900 600 l 1
 900 350 l 1
 900 100 l 1
 950 100 l 1
 1000 100 l 1
 1000 50 l 1
 1000 0 l 1
 950 0 l 1
 900 0 l 1
 900 50 l 1
 900 100 l 1
 800 100 l 1
 700 100 l 1
 700 50 l 1
 700 0 l 1
 550 0 l 1
 400 0 l 1
 400 50 l 1
 400 100 l 1
 350 100 l 1
 300 100 l 1
 300 150 l 1
 300 200 l 1
 250 200 l 1
 200 200 l 1
 200 400 l 1
 200 600 l 1
 250 600 l 1
 300 600 l 1
 300 650 l 1
 300 700 l 1
 350 700 l 1
 400 700 l 1
 400 750 l 1
700 650 m 1
 700 700 l 1
 550 700 l 1
 400 700 l 1
 400 650 l 1
 400 600 l 1
 350 600 l 1
 300 600 l 1
 300 400 l 1
 300 200 l 1
 350 200 l 1
 400 200 l 1
 400 150 l 1
 400 100 l 1
 550 100 l 1
 700 100 l 1
 700 150 l 1
 700 200 l 1
 750 200 l 1
 800 200 l 1
 800 400 l 1
 800 600 l 1
 750 600 l 1
 700 600 l 1
 700 650 l 1
EndSplineSet
EndChar

StartChar: beta
Encoding: 946 946 131
Width: 1200
Flags: HW
LayerCount: 2
Back
Fore
SplineSet
400 950 m 1
 400 1000 l 1
 600 1000 l 1
 800 1000 l 1
 800 950 l 1
 800 900 l 1
 850 900 l 1
 900 900 l 1
 900 750 l 1
 900 600 l 1
 850 600 l 1
 800 600 l 1
 800 550 l 1
 800 500 l 1
 850 500 l 1
 900 500 l 1
 900 300 l 1
 900 100 l 1
 850 100 l 1
 800 100 l 1
 800 50 l 1
 800 0 l 1
 700 0 l 1
 600 0 l 1
 600 50 l 1
 600 100 l 1
 550 100 l 1
 500 100 l 1
 500 150 l 1
 500 200 l 1
 550 200 l 1
 600 200 l 1
 600 150 l 1
 600 100 l 1
 700 100 l 1
 800 100 l 1
 800 300 l 1
 800 500 l 1
 700 500 l 1
 600 500 l 1
 600 550 l 1
 600 600 l 1
 700 600 l 1
 800 600 l 1
 800 750 l 1
 800 900 l 1
 600 900 l 1
 400 900 l 1
 400 400 l 1
 400 -100 l 1
 350 -100 l 1
 300 -100 l 1
 300 400 l 1
 300 900 l 1
 350 900 l 1
 400 900 l 1
 400 950 l 1
EndSplineSet
EndChar

StartChar: gamma
Encoding: 947 947 132
Width: 1200
Flags: HW
LayerCount: 2
Back
Fore
SplineSet
200 750 m 1
 200 800 l 1
 300 800 l 1
 400 800 l 1
 400 750 l 1
 400 700 l 1
 450 700 l 1
 500 700 l 1
 500 600 l 1
 500 500 l 1
 550 500 l 1
 600 500 l 1
 600 550 l 1
 600 600 l 1
 650 600 l 1
 700 600 l 1
 700 650 l 1
 700 700 l 1
 750 700 l 1
 800 700 l 1
 800 750 l 1
 800 800 l 1
 900 800 l 1
 1000 800 l 1
 1000 750 l 1
 1000 700 l 1
 900 700 l 1
 800 700 l 1
 800 650 l 1
 800 600 l 1
 750 600 l 1
 700 600 l 1
 700 550 l 1
 700 500 l 1
 650 500 l 1
 600 500 l 1
 600 200 l 1
 600 -100 l 1
 550 -100 l 1
 500 -100 l 1
 500 200 l 1
 500 500 l 1
 450 500 l 1
 400 500 l 1
 400 600 l 1
 400 700 l 1
 300 700 l 1
 200 700 l 1
 200 750 l 1
EndSplineSet
EndChar

StartChar: delta
Encoding: 948 948 133
Width: 1200
Flags: HW
LayerCount: 2
Back
Fore
SplineSet
500 950 m 1
 500 1000 l 1
 650 1000 l 1
 800 1000 l 1
 800 950 l 1
 800 900 l 1
 850 900 l 1
 900 900 l 1
 900 850 l 1
 900 800 l 1
 850 800 l 1
 800 800 l 1
 800 850 l 1
 800 900 l 1
 650 900 l 1
 500 900 l 1
 500 800 l 1
 500 700 l 1
 650 700 l 1
 800 700 l 1
 800 650 l 1
 800 600 l 1
 850 600 l 1
 900 600 l 1
 900 550 l 1
 900 500 l 1
 950 500 l 1
 1000 500 l 1
 1000 350 l 1
 1000 200 l 1
 950 200 l 1
 900 200 l 1
 900 150 l 1
 900 100 l 1
 850 100 l 1
 800 100 l 1
 800 50 l 1
 800 0 l 1
 650 0 l 1
 500 0 l 1
 500 50 l 1
 500 100 l 1
 450 100 l 1
 400 100 l 1
 400 150 l 1
 400 200 l 1
 350 200 l 1
 300 200 l 1
 300 350 l 1
 300 500 l 1
 350 500 l 1
 400 500 l 1
 400 550 l 1
 400 600 l 1
 450 600 l 1
 500 600 l 1
 500 650 l 1
 500 700 l 1
 450 700 l 1
 400 700 l 1
 400 800 l 1
 400 900 l 1
 450 900 l 1
 500 900 l 1
 500 950 l 1
800 550 m 1
 800 600 l 1
 650 600 l 1
 500 600 l 1
 500 550 l 1
 500 500 l 1
 450 500 l 1
 400 500 l 1
 400 350 l 1
 400 200 l 1
 450 200 l 1
 500 200 l 1
 500 150 l 1
 500 100 l 1
 650 100 l 1
 800 100 l 1
 800 150 l 1
 800 200 l 1
 850 200 l 1
 900 200 l 1
 900 350 l 1
 900 500 l 1
 850 500 l 1
 800 500 l 1
 800 550 l 1
EndSplineSet
EndChar

StartChar: epsilon
Encoding: 949 949 134
Width: 1200
Flags: HW
LayerCount: 2
Back
Fore
SplineSet
400 750 m 1
 400 800 l 1
 600 800 l 1
 800 800 l 1
 800 750 l 1
 800 700 l 1
 850 700 l 1
 900 700 l 1
 900 650 l 1
 900 600 l 1
 850 600 l 1
 800 600 l 1
 800 650 l 1
 800 700 l 1
 600 700 l 1
 400 700 l 1
 400 600 l 1
 400 500 l 1
 550 500 l 1
 700 500 l 1
 700 450 l 1
 700 400 l 1
 550 400 l 1
 400 400 l 1
 400 250 l 1
 400 100 l 1
 600 100 l 1
 800 100 l 1
 800 150 l 1
 800 200 l 1
 850 200 l 1
 900 200 l 1
 900 150 l 1
 900 100 l 1
 850 100 l 1
 800 100 l 1
 800 50 l 1
 800 0 l 1
 600 0 l 1
 400 0 l 1
 400 50 l 1
 400 100 l 1
 350 100 l 1
 300 100 l 1
 300 250 l 1
 300 400 l 1
 350 400 l 1
 400 400 l 1
 400 450 l 1
 400 500 l 1
 350 500 l 1
 300 500 l 1
 300 600 l 1
 300 700 l 1
 350 700 l 1
 400 700 l 1
 400 750 l 1
EndSplineSet
EndChar

StartChar: zeta
Encoding: 950 950 135
Width: 1200
Flags: HW
LayerCount: 2
Back
Fore
SplineSet
500 950 m 1
 500 1000 l 1
 550 1000 l 1
 600 1000 l 1
 600 950 l 1
 600 900 l 1
 550 900 l 1
 500 900 l 1
 500 800 l 1
 500 700 l 1
 600 700 l 1
 700 700 l 1
 700 750 l 1
 700 800 l 1
 750 800 l 1
 800 800 l 1
 800 750 l 1
 800 700 l 1
 750 700 l 1
 700 700 l 1
 700 650 l 1
 700 600 l 1
 600 600 l 1
 500 600 l 1
 500 550 l 1
 500 500 l 1
 450 500 l 1
 400 500 l 1
 400 300 l 1
 400 100 l 1
 500 100 l 1
 600 100 l 1
 600 150 l 1
 600 200 l 1
 750 200 l 1
 900 200 l 1
 900 150 l 1
 900 100 l 1
 950 100 l 1
 1000 100 l 1
 1000 50 l 1
 1000 0 l 1
 950 0 l 1
 900 0 l 1
 900 -50 l 1
 900 -100 l 1
 800 -100 l 1
 700 -100 l 1
 700 -50 l 1
 700 0 l 1
 800 0 l 1
 900 0 l 1
 900 50 l 1
 900 100 l 1
 750 100 l 1
 600 100 l 1
 600 50 l 1
 600 0 l 1
 500 0 l 1
 400 0 l 1
 400 50 l 1
 400 100 l 1
 350 100 l 1
 300 100 l 1
 300 300 l 1
 300 500 l 1
 350 500 l 1
 400 500 l 1
 400 550 l 1
 400 600 l 1
 450 600 l 1
 500 600 l 1
 500 650 l 1
 500 700 l 1
 450 700 l 1
 400 700 l 1
 400 800 l 1
 400 900 l 1
 450 900 l 1
 500 900 l 1
 500 950 l 1
EndSplineSet
EndChar

StartChar: eta
Encoding: 951 951 136
Width: 1200
Flags: HW
LayerCount: 2
Back
Fore
SplineSet
300 750 m 1
 300 800 l 1
 350 800 l 1
 400 800 l 1
 400 750 l 1
 400 700 l 1
 450 700 l 1
 500 700 l 1
 500 750 l 1
 500 800 l 1
 700 800 l 1
 900 800 l 1
 900 750 l 1
 900 700 l 1
 950 700 l 1
 1000 700 l 1
 1000 300 l 1
 1000 -100 l 1
 950 -100 l 1
 900 -100 l 1
 900 300 l 1
 900 700 l 1
 700 700 l 1
 500 700 l 1
 500 350 l 1
 500 0 l 1
 450 0 l 1
 400 0 l 1
 400 350 l 1
 400 700 l 1
 350 700 l 1
 300 700 l 1
 300 750 l 1
EndSplineSet
EndChar

StartChar: theta
Encoding: 952 952 137
Width: 1200
Flags: HW
LayerCount: 2
Back
Fore
SplineSet
500 950 m 1
 500 1000 l 1
 650 1000 l 1
 800 1000 l 1
 800 950 l 1
 800 900 l 1
 850 900 l 1
 900 900 l 1
 900 850 l 1
 900 800 l 1
 950 800 l 1
 1000 800 l 1
 1000 500 l 1
 1000 200 l 1
 950 200 l 1
 900 200 l 1
 900 150 l 1
 900 100 l 1
 850 100 l 1
 800 100 l 1
 800 50 l 1
 800 0 l 1
 650 0 l 1
 500 0 l 1
 500 50 l 1
 500 100 l 1
 450 100 l 1
 400 100 l 1
 400 150 l 1
 400 200 l 1
 350 200 l 1
 300 200 l 1
 300 500 l 1
 300 800 l 1
 350 800 l 1
 400 800 l 1
 400 850 l 1
 400 900 l 1
 450 900 l 1
 500 900 l 1
 500 950 l 1
800 850 m 1
 800 900 l 1
 650 900 l 1
 500 900 l 1
 500 850 l 1
 500 800 l 1
 450 800 l 1
 400 800 l 1
 400 700 l 1
 400 600 l 1
 650 600 l 1
 900 600 l 1
 900 700 l 1
 900 800 l 1
 850 800 l 1
 800 800 l 1
 800 850 l 1
900 350 m 1
 900 500 l 1
 650 500 l 1
 400 500 l 1
 400 350 l 1
 400 200 l 1
 450 200 l 1
 500 200 l 1
 500 150 l 1
 500 100 l 1
 650 100 l 1
 800 100 l 1
 800 150 l 1
 800 200 l 1
 850 200 l 1
 900 200 l 1
 900 350 l 1
EndSplineSet
EndChar

StartChar: iota
Encoding: 953 953 138
Width: 1200
Flags: HW
LayerCount: 2
Back
Fore
SplineSet
500 450 m 1
 500 800 l 1
 550 800 l 1
 600 800 l 1
 600 450 l 1
 600 100 l 1
 700 100 l 1
 800 100 l 1
 800 50 l 1
 800 0 l 1
 700 0 l 1
 600 0 l 1
 600 50 l 1
 600 100 l 1
 550 100 l 1
 500 100 l 1
 500 450 l 1
EndSplineSet
EndChar

StartChar: kappa
Encoding: 954 954 139
Width: 1200
Flags: HW
LayerCount: 2
Back
Fore
SplineSet
300 400 m 1
 300 800 l 1
 350 800 l 1
 400 800 l 1
 400 650 l 1
 400 500 l 1
 500 500 l 1
 600 500 l 1
 600 550 l 1
 600 600 l 1
 650 600 l 1
 700 600 l 1
 700 650 l 1
 700 700 l 1
 750 700 l 1
 800 700 l 1
 800 750 l 1
 800 800 l 1
 850 800 l 1
 900 800 l 1
 900 750 l 1
 900 700 l 1
 850 700 l 1
 800 700 l 1
 800 650 l 1
 800 600 l 1
 750 600 l 1
 700 600 l 1
 700 550 l 1
 700 500 l 1
 650 500 l 1
 600 500 l 1
 600 400 l 1
 600 300 l 1
 650 300 l 1
 700 300 l 1
 700 250 l 1
 700 200 l 1
 750 200 l 1
 800 200 l 1
 800 150 l 1
 800 100 l 1
 850 100 l 1
 900 100 l 1
 900 50 l 1
 900 0 l 1
 850 0 l 1
 800 0 l 1
 800 50 l 1
 800 100 l 1
 750 100 l 1
 700 100 l 1
 700 150 l 1
 700 200 l 1
 650 200 l 1
 600 200 l 1
 600 250 l 1
 600 300 l 1
 550 300 l 1
 500 300 l 1
 500 350 l 1
 500 400 l 1
 450 400 l 1
 400 400 l 1
 400 200 l 1
 400 0 l 1
 350 0 l 1
 300 0 l 1
 300 400 l 1
EndSplineSet
EndChar

StartChar: lambda
Encoding: 955 955 140
Width: 1200
Flags: HW
LayerCount: 2
Back
Fore
SplineSet
400 950 m 1
 400 1000 l 1
 500 1000 l 1
 600 1000 l 1
 600 950 l 1
 600 900 l 1
 650 900 l 1
 700 900 l 1
 700 750 l 1
 700 600 l 1
 750 600 l 1
 800 600 l 1
 800 450 l 1
 800 300 l 1
 850 300 l 1
 900 300 l 1
 900 200 l 1
 900 100 l 1
 950 100 l 1
 1000 100 l 1
 1000 50 l 1
 1000 0 l 1
 900 0 l 1
 800 0 l 1
 800 150 l 1
 800 300 l 1
 750 300 l 1
 700 300 l 1
 700 450 l 1
 700 600 l 1
 650 600 l 1
 600 600 l 1
 600 450 l 1
 600 300 l 1
 550 300 l 1
 500 300 l 1
 500 200 l 1
 500 100 l 1
 450 100 l 1
 400 100 l 1
 400 50 l 1
 400 0 l 1
 350 0 l 1
 300 0 l 1
 300 50 l 1
 300 100 l 1
 350 100 l 1
 400 100 l 1
 400 200 l 1
 400 300 l 1
 450 300 l 1
 500 300 l 1
 500 450 l 1
 500 600 l 1
 550 600 l 1
 600 600 l 1
 600 750 l 1
 600 900 l 1
 500 900 l 1
 400 900 l 1
 400 950 l 1
EndSplineSet
EndChar

StartChar: uni03BC
Encoding: 956 956 141
Width: 1200
Flags: HW
LayerCount: 2
Back
Fore
SplineSet
300 350 m 1
 300 800 l 1
 350 800 l 1
 400 800 l 1
 400 500 l 1
 400 200 l 1
 450 200 l 1
 500 200 l 1
 500 150 l 1
 500 100 l 1
 650 100 l 1
 800 100 l 1
 800 450 l 1
 800 800 l 1
 850 800 l 1
 900 800 l 1
 900 450 l 1
 900 100 l 1
 950 100 l 1
 1000 100 l 1
 1000 50 l 1
 1000 0 l 1
 950 0 l 1
 900 0 l 1
 900 50 l 1
 900 100 l 1
 850 100 l 1
 800 100 l 1
 800 50 l 1
 800 0 l 1
 650 0 l 1
 500 0 l 1
 500 50 l 1
 500 100 l 1
 450 100 l 1
 400 100 l 1
 400 0 l 1
 400 -100 l 1
 350 -100 l 1
 300 -100 l 1
 300 350 l 1
EndSplineSet
EndChar

StartChar: nu
Encoding: 957 957 142
Width: 1200
Flags: HW
LayerCount: 2
Back
Fore
SplineSet
200 750 m 1
 200 800 l 1
 300 800 l 1
 400 800 l 1
 400 750 l 1
 400 700 l 1
 450 700 l 1
 500 700 l 1
 500 550 l 1
 500 400 l 1
 550 400 l 1
 600 400 l 1
 600 250 l 1
 600 100 l 1
 650 100 l 1
 700 100 l 1
 700 150 l 1
 700 200 l 1
 750 200 l 1
 800 200 l 1
 800 300 l 1
 800 400 l 1
 850 400 l 1
 900 400 l 1
 900 600 l 1
 900 800 l 1
 950 800 l 1
 1000 800 l 1
 1000 600 l 1
 1000 400 l 1
 950 400 l 1
 900 400 l 1
 900 300 l 1
 900 200 l 1
 850 200 l 1
 800 200 l 1
 800 150 l 1
 800 100 l 1
 750 100 l 1
 700 100 l 1
 700 50 l 1
 700 0 l 1
 650 0 l 1
 600 0 l 1
 600 50 l 1
 600 100 l 1
 550 100 l 1
 500 100 l 1
 500 250 l 1
 500 400 l 1
 450 400 l 1
 400 400 l 1
 400 550 l 1
 400 700 l 1
 300 700 l 1
 200 700 l 1
 200 750 l 1
EndSplineSet
EndChar

StartChar: xi
Encoding: 958 958 143
Width: 1200
Flags: HW
LayerCount: 2
Back
Fore
SplineSet
400 950 m 1
 400 1000 l 1
 450 1000 l 1
 500 1000 l 1
 500 950 l 1
 500 900 l 1
 450 900 l 1
 400 900 l 1
 400 850 l 1
 400 800 l 1
 500 800 l 1
 600 800 l 1
 600 850 l 1
 600 900 l 1
 650 900 l 1
 700 900 l 1
 700 850 l 1
 700 800 l 1
 650 800 l 1
 600 800 l 1
 600 750 l 1
 600 700 l 1
 500 700 l 1
 400 700 l 1
 400 600 l 1
 400 500 l 1
 450 500 l 1
 500 500 l 1
 500 550 l 1
 500 600 l 1
 600 600 l 1
 700 600 l 1
 700 650 l 1
 700 700 l 1
 750 700 l 1
 800 700 l 1
 800 650 l 1
 800 600 l 1
 750 600 l 1
 700 600 l 1
 700 550 l 1
 700 500 l 1
 600 500 l 1
 500 500 l 1
 500 450 l 1
 500 400 l 1
 450 400 l 1
 400 400 l 1
 400 250 l 1
 400 100 l 1
 500 100 l 1
 600 100 l 1
 600 150 l 1
 600 200 l 1
 750 200 l 1
 900 200 l 1
 900 150 l 1
 900 100 l 1
 950 100 l 1
 1000 100 l 1
 1000 50 l 1
 1000 0 l 1
 950 0 l 1
 900 0 l 1
 900 -50 l 1
 900 -100 l 1
 750 -100 l 1
 600 -100 l 1
 600 -50 l 1
 600 0 l 1
 500 0 l 1
 400 0 l 1
 400 50 l 1
 400 100 l 1
 350 100 l 1
 300 100 l 1
 300 250 l 1
 300 400 l 1
 350 400 l 1
 400 400 l 1
 400 450 l 1
 400 500 l 1
 350 500 l 1
 300 500 l 1
 300 600 l 1
 300 700 l 1
 350 700 l 1
 400 700 l 1
 400 750 l 1
 400 800 l 1
 350 800 l 1
 300 800 l 1
 300 850 l 1
 300 900 l 1
 350 900 l 1
 400 900 l 1
 400 950 l 1
900 50 m 1
 900 100 l 1
 750 100 l 1
 600 100 l 1
 600 50 l 1
 600 0 l 1
 750 0 l 1
 900 0 l 1
 900 50 l 1
EndSplineSet
EndChar

StartChar: omicron
Encoding: 959 959 144
Width: 1200
Flags: HW
LayerCount: 2
Back
Fore
SplineSet
500 750 m 1
 500 800 l 1
 650 800 l 1
 800 800 l 1
 800 750 l 1
 800 700 l 1
 850 700 l 1
 900 700 l 1
 900 650 l 1
 900 600 l 1
 950 600 l 1
 1000 600 l 1
 1000 400 l 1
 1000 200 l 1
 950 200 l 1
 900 200 l 1
 900 150 l 1
 900 100 l 1
 850 100 l 1
 800 100 l 1
 800 50 l 1
 800 0 l 1
 650 0 l 1
 500 0 l 1
 500 50 l 1
 500 100 l 1
 450 100 l 1
 400 100 l 1
 400 150 l 1
 400 200 l 1
 350 200 l 1
 300 200 l 1
 300 400 l 1
 300 600 l 1
 350 600 l 1
 400 600 l 1
 400 650 l 1
 400 700 l 1
 450 700 l 1
 500 700 l 1
 500 750 l 1
800 650 m 1
 800 700 l 1
 650 700 l 1
 500 700 l 1
 500 650 l 1
 500 600 l 1
 450 600 l 1
 400 600 l 1
 400 400 l 1
 400 200 l 1
 450 200 l 1
 500 200 l 1
 500 150 l 1
 500 100 l 1
 650 100 l 1
 800 100 l 1
 800 150 l 1
 800 200 l 1
 850 200 l 1
 900 200 l 1
 900 400 l 1
 900 600 l 1
 850 600 l 1
 800 600 l 1
 800 650 l 1
EndSplineSet
EndChar

StartChar: pi
Encoding: 960 960 145
Width: 1200
Flags: HW
LayerCount: 2
Back
Fore
SplineSet
300 650 m 1
 300 700 l 1
 650 700 l 1
 1000 700 l 1
 1000 650 l 1
 1000 600 l 1
 900 600 l 1
 800 600 l 1
 800 350 l 1
 800 100 l 1
 850 100 l 1
 900 100 l 1
 900 50 l 1
 900 0 l 1
 850 0 l 1
 800 0 l 1
 800 50 l 1
 800 100 l 1
 750 100 l 1
 700 100 l 1
 700 350 l 1
 700 600 l 1
 600 600 l 1
 500 600 l 1
 500 300 l 1
 500 0 l 1
 450 0 l 1
 400 0 l 1
 400 300 l 1
 400 600 l 1
 350 600 l 1
 300 600 l 1
 300 550 l 1
 300 500 l 1
 250 500 l 1
 200 500 l 1
 200 550 l 1
 200 600 l 1
 250 600 l 1
 300 600 l 1
 300 650 l 1
EndSplineSet
EndChar

StartChar: rho
Encoding: 961 961 146
Width: 1200
Flags: HW
LayerCount: 2
Back
Fore
SplineSet
500 750 m 1
 500 800 l 1
 650 800 l 1
 800 800 l 1
 800 750 l 1
 800 700 l 1
 850 700 l 1
 900 700 l 1
 900 650 l 1
 900 600 l 1
 950 600 l 1
 1000 600 l 1
 1000 400 l 1
 1000 200 l 1
 950 200 l 1
 900 200 l 1
 900 150 l 1
 900 100 l 1
 850 100 l 1
 800 100 l 1
 800 50 l 1
 800 0 l 1
 650 0 l 1
 500 0 l 1
 500 50 l 1
 500 100 l 1
 450 100 l 1
 400 100 l 1
 400 0 l 1
 400 -100 l 1
 350 -100 l 1
 300 -100 l 1
 300 250 l 1
 300 600 l 1
 350 600 l 1
 400 600 l 1
 400 650 l 1
 400 700 l 1
 450 700 l 1
 500 700 l 1
 500 750 l 1
800 650 m 1
 800 700 l 1
 650 700 l 1
 500 700 l 1
 500 650 l 1
 500 600 l 1
 450 600 l 1
 400 600 l 1
 400 400 l 1
 400 200 l 1
 450 200 l 1
 500 200 l 1
 500 150 l 1
 500 100 l 1
 650 100 l 1
 800 100 l 1
 800 150 l 1
 800 200 l 1
 850 200 l 1
 900 200 l 1
 900 400 l 1
 900 600 l 1
 850 600 l 1
 800 600 l 1
 800 650 l 1
EndSplineSet
EndChar

StartChar: sigma
Encoding: 963 963 147
Width: 1200
Flags: HW
LayerCount: 2
Back
Fore
SplineSet
400 750 m 1
 400 800 l 1
 700 800 l 1
 1000 800 l 1
 1000 750 l 1
 1000 700 l 1
 900 700 l 1
 800 700 l 1
 800 650 l 1
 800 600 l 1
 850 600 l 1
 900 600 l 1
 900 400 l 1
 900 200 l 1
 850 200 l 1
 800 200 l 1
 800 150 l 1
 800 100 l 1
 750 100 l 1
 700 100 l 1
 700 50 l 1
 700 0 l 1
 550 0 l 1
 400 0 l 1
 400 50 l 1
 400 100 l 1
 350 100 l 1
 300 100 l 1
 300 150 l 1
 300 200 l 1
 250 200 l 1
 200 200 l 1
 200 400 l 1
 200 600 l 1
 250 600 l 1
 300 600 l 1
 300 650 l 1
 300 700 l 1
 350 700 l 1
 400 700 l 1
 400 750 l 1
700 650 m 1
 700 700 l 1
 550 700 l 1
 400 700 l 1
 400 650 l 1
 400 600 l 1
 350 600 l 1
 300 600 l 1
 300 400 l 1
 300 200 l 1
 350 200 l 1
 400 200 l 1
 400 150 l 1
 400 100 l 1
 550 100 l 1
 700 100 l 1
 700 150 l 1
 700 200 l 1
 750 200 l 1
 800 200 l 1
 800 400 l 1
 800 600 l 1
 750 600 l 1
 700 600 l 1
 700 650 l 1
EndSplineSet
EndChar

StartChar: tau
Encoding: 964 964 148
Width: 1200
Flags: HW
LayerCount: 2
Back
Fore
SplineSet
400 750 m 1
 400 800 l 1
 700 800 l 1
 1000 800 l 1
 1000 750 l 1
 1000 700 l 1
 850 700 l 1
 700 700 l 1
 700 400 l 1
 700 100 l 1
 800 100 l 1
 900 100 l 1
 900 50 l 1
 900 0 l 1
 800 0 l 1
 700 0 l 1
 700 50 l 1
 700 100 l 1
 650 100 l 1
 600 100 l 1
 600 400 l 1
 600 700 l 1
 500 700 l 1
 400 700 l 1
 400 650 l 1
 400 600 l 1
 350 600 l 1
 300 600 l 1
 300 650 l 1
 300 700 l 1
 350 700 l 1
 400 700 l 1
 400 750 l 1
EndSplineSet
EndChar

StartChar: upsilon
Encoding: 965 965 149
Width: 1200
Flags: HW
LayerCount: 2
Back
Fore
SplineSet
300 750 m 1
 300 800 l 1
 350 800 l 1
 400 800 l 1
 400 750 l 1
 400 700 l 1
 450 700 l 1
 500 700 l 1
 500 400 l 1
 500 100 l 1
 700 100 l 1
 900 100 l 1
 900 450 l 1
 900 800 l 1
 950 800 l 1
 1000 800 l 1
 1000 450 l 1
 1000 100 l 1
 950 100 l 1
 900 100 l 1
 900 50 l 1
 900 0 l 1
 700 0 l 1
 500 0 l 1
 500 50 l 1
 500 100 l 1
 450 100 l 1
 400 100 l 1
 400 400 l 1
 400 700 l 1
 350 700 l 1
 300 700 l 1
 300 750 l 1
EndSplineSet
EndChar

StartChar: phi
Encoding: 966 966 150
Width: 1200
Flags: HW
LayerCount: 2
Back
Fore
SplineSet
400 750 m 1
 400 800 l 1
 450 800 l 1
 500 800 l 1
 500 750 l 1
 500 700 l 1
 450 700 l 1
 400 700 l 1
 400 650 l 1
 400 600 l 1
 350 600 l 1
 300 600 l 1
 300 400 l 1
 300 200 l 1
 350 200 l 1
 400 200 l 1
 400 150 l 1
 400 100 l 1
 500 100 l 1
 600 100 l 1
 600 400 l 1
 600 700 l 1
 650 700 l 1
 700 700 l 1
 700 750 l 1
 700 800 l 1
 800 800 l 1
 900 800 l 1
 900 750 l 1
 900 700 l 1
 950 700 l 1
 1000 700 l 1
 1000 650 l 1
 1000 600 l 1
 1050 600 l 1
 1100 600 l 1
 1100 400 l 1
 1100 200 l 1
 1050 200 l 1
 1000 200 l 1
 1000 150 l 1
 1000 100 l 1
 950 100 l 1
 900 100 l 1
 900 50 l 1
 900 0 l 1
 800 0 l 1
 700 0 l 1
 700 -50 l 1
 700 -100 l 1
 650 -100 l 1
 600 -100 l 1
 600 -50 l 1
 600 0 l 1
 500 0 l 1
 400 0 l 1
 400 50 l 1
 400 100 l 1
 350 100 l 1
 300 100 l 1
 300 150 l 1
 300 200 l 1
 250 200 l 1
 200 200 l 1
 200 400 l 1
 200 600 l 1
 250 600 l 1
 300 600 l 1
 300 650 l 1
 300 700 l 1
 350 700 l 1
 400 700 l 1
 400 750 l 1
900 650 m 1
 900 700 l 1
 800 700 l 1
 700 700 l 1
 700 400 l 1
 700 100 l 1
 800 100 l 1
 900 100 l 1
 900 150 l 1
 900 200 l 1
 950 200 l 1
 1000 200 l 1
 1000 400 l 1
 1000 600 l 1
 950 600 l 1
 900 600 l 1
 900 650 l 1
EndSplineSet
EndChar

StartChar: chi
Encoding: 967 967 151
Width: 1200
Flags: HW
LayerCount: 2
Back
Fore
SplineSet
300 750 m 1
 300 800 l 1
 400 800 l 1
 500 800 l 1
 500 750 l 1
 500 700 l 1
 550 700 l 1
 600 700 l 1
 600 550 l 1
 600 400 l 1
 650 400 l 1
 700 400 l 1
 700 500 l 1
 700 600 l 1
 750 600 l 1
 800 600 l 1
 800 650 l 1
 800 700 l 1
 850 700 l 1
 900 700 l 1
 900 750 l 1
 900 800 l 1
 950 800 l 1
 1000 800 l 1
 1000 750 l 1
 1000 700 l 1
 950 700 l 1
 900 700 l 1
 900 650 l 1
 900 600 l 1
 850 600 l 1
 800 600 l 1
 800 500 l 1
 800 400 l 1
 750 400 l 1
 700 400 l 1
 700 300 l 1
 700 200 l 1
 750 200 l 1
 800 200 l 1
 800 100 l 1
 800 0 l 1
 900 0 l 1
 1000 0 l 1
 1000 -50 l 1
 1000 -100 l 1
 900 -100 l 1
 800 -100 l 1
 800 -50 l 1
 800 0 l 1
 750 0 l 1
 700 0 l 1
 700 100 l 1
 700 200 l 1
 650 200 l 1
 600 200 l 1
 600 150 l 1
 600 100 l 1
 550 100 l 1
 500 100 l 1
 500 50 l 1
 500 0 l 1
 450 0 l 1
 400 0 l 1
 400 -50 l 1
 400 -100 l 1
 350 -100 l 1
 300 -100 l 1
 300 -50 l 1
 300 0 l 1
 350 0 l 1
 400 0 l 1
 400 50 l 1
 400 100 l 1
 450 100 l 1
 500 100 l 1
 500 150 l 1
 500 200 l 1
 550 200 l 1
 600 200 l 1
 600 300 l 1
 600 400 l 1
 550 400 l 1
 500 400 l 1
 500 550 l 1
 500 700 l 1
 400 700 l 1
 300 700 l 1
 300 750 l 1
EndSplineSet
EndChar

StartChar: psi
Encoding: 968 968 152
Width: 1200
Flags: HW
LayerCount: 2
Back
Fore
SplineSet
600 600 m 1
 600 1000 l 1
 650 1000 l 1
 700 1000 l 1
 700 600 l 1
 700 200 l 1
 750 200 l 1
 800 200 l 1
 800 250 l 1
 800 300 l 1
 850 300 l 1
 900 300 l 1
 900 550 l 1
 900 800 l 1
 950 800 l 1
 1000 800 l 1
 1000 550 l 1
 1000 300 l 1
 950 300 l 1
 900 300 l 1
 900 250 l 1
 900 200 l 1
 850 200 l 1
 800 200 l 1
 800 150 l 1
 800 100 l 1
 750 100 l 1
 700 100 l 1
 700 0 l 1
 700 -100 l 1
 650 -100 l 1
 600 -100 l 1
 600 0 l 1
 600 100 l 1
 550 100 l 1
 500 100 l 1
 500 150 l 1
 500 200 l 1
 450 200 l 1
 400 200 l 1
 400 250 l 1
 400 300 l 1
 350 300 l 1
 300 300 l 1
 300 500 l 1
 300 700 l 1
 250 700 l 1
 200 700 l 1
 200 750 l 1
 200 800 l 1
 250 800 l 1
 300 800 l 1
 300 750 l 1
 300 700 l 1
 350 700 l 1
 400 700 l 1
 400 500 l 1
 400 300 l 1
 450 300 l 1
 500 300 l 1
 500 250 l 1
 500 200 l 1
 550 200 l 1
 600 200 l 1
 600 600 l 1
EndSplineSet
EndChar

StartChar: omega
Encoding: 969 969 153
Width: 1200
Flags: HW
LayerCount: 2
Back
Fore
SplineSet
400 750 m 1
 400 800 l 1
 450 800 l 1
 500 800 l 1
 500 750 l 1
 500 700 l 1
 450 700 l 1
 400 700 l 1
 400 650 l 1
 400 600 l 1
 350 600 l 1
 300 600 l 1
 300 400 l 1
 300 200 l 1
 350 200 l 1
 400 200 l 1
 400 150 l 1
 400 100 l 1
 500 100 l 1
 600 100 l 1
 600 250 l 1
 600 400 l 1
 650 400 l 1
 700 400 l 1
 700 250 l 1
 700 100 l 1
 800 100 l 1
 900 100 l 1
 900 150 l 1
 900 200 l 1
 950 200 l 1
 1000 200 l 1
 1000 400 l 1
 1000 600 l 1
 950 600 l 1
 900 600 l 1
 900 650 l 1
 900 700 l 1
 850 700 l 1
 800 700 l 1
 800 750 l 1
 800 800 l 1
 850 800 l 1
 900 800 l 1
 900 750 l 1
 900 700 l 1
 950 700 l 1
 1000 700 l 1
 1000 650 l 1
 1000 600 l 1
 1050 600 l 1
 1100 600 l 1
 1100 400 l 1
 1100 200 l 1
 1050 200 l 1
 1000 200 l 1
 1000 150 l 1
 1000 100 l 1
 950 100 l 1
 900 100 l 1
 900 50 l 1
 900 0 l 1
 800 0 l 1
 700 0 l 1
 700 50 l 1
 700 100 l 1
 650 100 l 1
 600 100 l 1
 600 50 l 1
 600 0 l 1
 500 0 l 1
 400 0 l 1
 400 50 l 1
 400 100 l 1
 350 100 l 1
 300 100 l 1
 300 150 l 1
 300 200 l 1
 250 200 l 1
 200 200 l 1
 200 400 l 1
 200 600 l 1
 250 600 l 1
 300 600 l 1
 300 650 l 1
 300 700 l 1
 350 700 l 1
 400 700 l 1
 400 750 l 1
EndSplineSet
EndChar

StartChar: uni0401
Encoding: 1025 1025 154
Width: 1200
Flags: HW
LayerCount: 2
Back
Fore
SplineSet
500 950 m 1
 500 1000 l 1
 550 1000 l 1
 600 1000 l 1
 600 950 l 1
 600 900 l 1
 650 900 l 1
 700 900 l 1
 700 950 l 1
 700 1000 l 1
 750 1000 l 1
 800 1000 l 1
 800 950 l 1
 800 900 l 1
 900 900 l 1
 1000 900 l 1
 1000 850 l 1
 1000 800 l 1
 700 800 l 1
 400 800 l 1
 400 650 l 1
 400 500 l 1
 650 500 l 1
 900 500 l 1
 900 450 l 1
 900 400 l 1
 650 400 l 1
 400 400 l 1
 400 250 l 1
 400 100 l 1
 700 100 l 1
 1000 100 l 1
 1000 50 l 1
 1000 0 l 1
 650 0 l 1
 300 0 l 1
 300 450 l 1
 300 900 l 1
 400 900 l 1
 500 900 l 1
 500 950 l 1
EndSplineSet
EndChar

StartChar: uni0410
Encoding: 1040 1040 155
Width: 1200
Flags: HW
LayerCount: 2
Back
Fore
SplineSet
600 950 m 1
 600 1000 l 1
 650 1000 l 1
 700 1000 l 1
 700 950 l 1
 700 900 l 1
 750 900 l 1
 800 900 l 1
 800 800 l 1
 800 700 l 1
 850 700 l 1
 900 700 l 1
 900 600 l 1
 900 500 l 1
 950 500 l 1
 1000 500 l 1
 1000 350 l 1
 1000 200 l 1
 1050 200 l 1
 1100 200 l 1
 1100 100 l 1
 1100 0 l 1
 1050 0 l 1
 1000 0 l 1
 1000 100 l 1
 1000 200 l 1
 950 200 l 1
 900 200 l 1
 900 250 l 1
 900 300 l 1
 650 300 l 1
 400 300 l 1
 400 250 l 1
 400 200 l 1
 350 200 l 1
 300 200 l 1
 300 100 l 1
 300 0 l 1
 250 0 l 1
 200 0 l 1
 200 100 l 1
 200 200 l 1
 250 200 l 1
 300 200 l 1
 300 350 l 1
 300 500 l 1
 350 500 l 1
 400 500 l 1
 400 600 l 1
 400 700 l 1
 450 700 l 1
 500 700 l 1
 500 800 l 1
 500 900 l 1
 550 900 l 1
 600 900 l 1
 600 950 l 1
700 800 m 1
 700 900 l 1
 650 900 l 1
 600 900 l 1
 600 800 l 1
 600 700 l 1
 550 700 l 1
 500 700 l 1
 500 600 l 1
 500 500 l 1
 450 500 l 1
 400 500 l 1
 400 450 l 1
 400 400 l 1
 650 400 l 1
 900 400 l 1
 900 450 l 1
 900 500 l 1
 850 500 l 1
 800 500 l 1
 800 600 l 1
 800 700 l 1
 750 700 l 1
 700 700 l 1
 700 800 l 1
EndSplineSet
EndChar

StartChar: uni0411
Encoding: 1041 1041 156
Width: 1200
Flags: HW
LayerCount: 2
Back
Fore
SplineSet
300 500 m 1
 300 1000 l 1
 600 1000 l 1
 900 1000 l 1
 900 950 l 1
 900 900 l 1
 650 900 l 1
 400 900 l 1
 400 750 l 1
 400 600 l 1
 650 600 l 1
 900 600 l 1
 900 550 l 1
 900 500 l 1
 950 500 l 1
 1000 500 l 1
 1000 300 l 1
 1000 100 l 1
 950 100 l 1
 900 100 l 1
 900 50 l 1
 900 0 l 1
 600 0 l 1
 300 0 l 1
 300 500 l 1
900 300 m 1
 900 500 l 1
 650 500 l 1
 400 500 l 1
 400 300 l 1
 400 100 l 1
 650 100 l 1
 900 100 l 1
 900 300 l 1
EndSplineSet
EndChar

StartChar: uni0412
Encoding: 1042 1042 157
Width: 1200
Flags: HW
LayerCount: 2
Back
Fore
SplineSet
300 500 m 1
 300 1000 l 1
 600 1000 l 1
 900 1000 l 1
 900 950 l 1
 900 900 l 1
 950 900 l 1
 1000 900 l 1
 1000 750 l 1
 1000 600 l 1
 950 600 l 1
 900 600 l 1
 900 550 l 1
 900 500 l 1
 950 500 l 1
 1000 500 l 1
 1000 300 l 1
 1000 100 l 1
 950 100 l 1
 900 100 l 1
 900 50 l 1
 900 0 l 1
 600 0 l 1
 300 0 l 1
 300 500 l 1
900 750 m 1
 900 900 l 1
 650 900 l 1
 400 900 l 1
 400 750 l 1
 400 600 l 1
 650 600 l 1
 900 600 l 1
 900 750 l 1
900 300 m 1
 900 500 l 1
 650 500 l 1
 400 500 l 1
 400 300 l 1
 400 100 l 1
 650 100 l 1
 900 100 l 1
 900 300 l 1
EndSplineSet
EndChar

StartChar: uni0413
Encoding: 1043 1043 158
Width: 1200
Flags: HW
LayerCount: 2
Back
Fore
SplineSet
300 500 m 1
 300 1000 l 1
 600 1000 l 1
 900 1000 l 1
 900 950 l 1
 900 900 l 1
 650 900 l 1
 400 900 l 1
 400 450 l 1
 400 0 l 1
 350 0 l 1
 300 0 l 1
 300 500 l 1
EndSplineSet
EndChar

StartChar: uni0414
Encoding: 1044 1044 159
Width: 1200
Flags: HW
LayerCount: 2
Back
Fore
SplineSet
500 750 m 1
 500 1000 l 1
 700 1000 l 1
 900 1000 l 1
 900 550 l 1
 900 100 l 1
 950 100 l 1
 1000 100 l 1
 1000 0 l 1
 1000 -100 l 1
 950 -100 l 1
 900 -100 l 1
 900 -50 l 1
 900 0 l 1
 600 0 l 1
 300 0 l 1
 300 -50 l 1
 300 -100 l 1
 250 -100 l 1
 200 -100 l 1
 200 0 l 1
 200 100 l 1
 250 100 l 1
 300 100 l 1
 300 150 l 1
 300 200 l 1
 350 200 l 1
 400 200 l 1
 400 350 l 1
 400 500 l 1
 450 500 l 1
 500 500 l 1
 500 750 l 1
800 500 m 1
 800 900 l 1
 700 900 l 1
 600 900 l 1
 600 700 l 1
 600 500 l 1
 550 500 l 1
 500 500 l 1
 500 350 l 1
 500 200 l 1
 450 200 l 1
 400 200 l 1
 400 150 l 1
 400 100 l 1
 600 100 l 1
 800 100 l 1
 800 500 l 1
EndSplineSet
EndChar

StartChar: uni0415
Encoding: 1045 1045 160
Width: 1200
Flags: HW
LayerCount: 2
Back
Fore
SplineSet
300 500 m 1
 300 1000 l 1
 650 1000 l 1
 1000 1000 l 1
 1000 950 l 1
 1000 900 l 1
 700 900 l 1
 400 900 l 1
 400 750 l 1
 400 600 l 1
 650 600 l 1
 900 600 l 1
 900 550 l 1
 900 500 l 1
 650 500 l 1
 400 500 l 1
 400 300 l 1
 400 100 l 1
 700 100 l 1
 1000 100 l 1
 1000 50 l 1
 1000 0 l 1
 650 0 l 1
 300 0 l 1
 300 500 l 1
EndSplineSet
EndChar

StartChar: uni0416
Encoding: 1046 1046 161
Width: 1200
Flags: HW
LayerCount: 2
Back
Fore
SplineSet
100 950 m 1
 100 1000 l 1
 150 1000 l 1
 200 1000 l 1
 200 950 l 1
 200 900 l 1
 250 900 l 1
 300 900 l 1
 300 800 l 1
 300 700 l 1
 350 700 l 1
 400 700 l 1
 400 650 l 1
 400 600 l 1
 450 600 l 1
 500 600 l 1
 500 500 l 1
 500 400 l 1
 550 400 l 1
 600 400 l 1
 600 700 l 1
 600 1000 l 1
 650 1000 l 1
 700 1000 l 1
 700 700 l 1
 700 400 l 1
 750 400 l 1
 800 400 l 1
 800 500 l 1
 800 600 l 1
 850 600 l 1
 900 600 l 1
 900 650 l 1
 900 700 l 1
 950 700 l 1
 1000 700 l 1
 1000 800 l 1
 1000 900 l 1
 1050 900 l 1
 1100 900 l 1
 1100 950 l 1
 1100 1000 l 1
 1150 1000 l 1
 1200 1000 l 1
 1200 950 l 1
 1200 900 l 1
 1150 900 l 1
 1100 900 l 1
 1100 800 l 1
 1100 700 l 1
 1050 700 l 1
 1000 700 l 1
 1000 650 l 1
 1000 600 l 1
 950 600 l 1
 900 600 l 1
 900 500 l 1
 900 400 l 1
 950 400 l 1
 1000 400 l 1
 1000 350 l 1
 1000 300 l 1
 1050 300 l 1
 1100 300 l 1
 1100 200 l 1
 1100 100 l 1
 1150 100 l 1
 1200 100 l 1
 1200 50 l 1
 1200 0 l 1
 1150 0 l 1
 1100 0 l 1
 1100 50 l 1
 1100 100 l 1
 1050 100 l 1
 1000 100 l 1
 1000 200 l 1
 1000 300 l 1
 950 300 l 1
 900 300 l 1
 900 350 l 1
 900 400 l 1
 850 400 l 1
 800 400 l 1
 800 350 l 1
 800 300 l 1
 750 300 l 1
 700 300 l 1
 700 150 l 1
 700 0 l 1
 650 0 l 1
 600 0 l 1
 600 150 l 1
 600 300 l 1
 550 300 l 1
 500 300 l 1
 500 350 l 1
 500 400 l 1
 450 400 l 1
 400 400 l 1
 400 350 l 1
 400 300 l 1
 350 300 l 1
 300 300 l 1
 300 200 l 1
 300 100 l 1
 250 100 l 1
 200 100 l 1
 200 50 l 1
 200 0 l 1
 150 0 l 1
 100 0 l 1
 100 50 l 1
 100 100 l 1
 150 100 l 1
 200 100 l 1
 200 200 l 1
 200 300 l 1
 250 300 l 1
 300 300 l 1
 300 350 l 1
 300 400 l 1
 350 400 l 1
 400 400 l 1
 400 500 l 1
 400 600 l 1
 350 600 l 1
 300 600 l 1
 300 650 l 1
 300 700 l 1
 250 700 l 1
 200 700 l 1
 200 800 l 1
 200 900 l 1
 150 900 l 1
 100 900 l 1
 100 950 l 1
EndSplineSet
EndChar

StartChar: uni0417
Encoding: 1047 1047 162
Width: 1200
Flags: HW
LayerCount: 2
Back
Fore
SplineSet
400 950 m 1
 400 1000 l 1
 650 1000 l 1
 900 1000 l 1
 900 950 l 1
 900 900 l 1
 950 900 l 1
 1000 900 l 1
 1000 750 l 1
 1000 600 l 1
 950 600 l 1
 900 600 l 1
 900 550 l 1
 900 500 l 1
 950 500 l 1
 1000 500 l 1
 1000 300 l 1
 1000 100 l 1
 950 100 l 1
 900 100 l 1
 900 50 l 1
 900 0 l 1
 650 0 l 1
 400 0 l 1
 400 50 l 1
 400 100 l 1
 350 100 l 1
 300 100 l 1
 300 150 l 1
 300 200 l 1
 350 200 l 1
 400 200 l 1
 400 150 l 1
 400 100 l 1
 650 100 l 1
 900 100 l 1
 900 300 l 1
 900 500 l 1
 750 500 l 1
 600 500 l 1
 600 550 l 1
 600 600 l 1
 750 600 l 1
 900 600 l 1
 900 750 l 1
 900 900 l 1
 650 900 l 1
 400 900 l 1
 400 850 l 1
 400 800 l 1
 350 800 l 1
 300 800 l 1
 300 850 l 1
 300 900 l 1
 350 900 l 1
 400 900 l 1
 400 950 l 1
EndSplineSet
EndChar

StartChar: uni0418
Encoding: 1048 1048 163
Width: 1200
Flags: HW
LayerCount: 2
Back
Fore
SplineSet
200 500 m 1
 200 1000 l 1
 250 1000 l 1
 300 1000 l 1
 300 600 l 1
 300 200 l 1
 350 200 l 1
 400 200 l 1
 400 300 l 1
 400 400 l 1
 450 400 l 1
 500 400 l 1
 500 450 l 1
 500 500 l 1
 550 500 l 1
 600 500 l 1
 600 550 l 1
 600 600 l 1
 650 600 l 1
 700 600 l 1
 700 700 l 1
 700 800 l 1
 750 800 l 1
 800 800 l 1
 800 850 l 1
 800 900 l 1
 850 900 l 1
 900 900 l 1
 900 950 l 1
 900 1000 l 1
 950 1000 l 1
 1000 1000 l 1
 1000 500 l 1
 1000 0 l 1
 950 0 l 1
 900 0 l 1
 900 400 l 1
 900 800 l 1
 850 800 l 1
 800 800 l 1
 800 700 l 1
 800 600 l 1
 750 600 l 1
 700 600 l 1
 700 550 l 1
 700 500 l 1
 650 500 l 1
 600 500 l 1
 600 450 l 1
 600 400 l 1
 550 400 l 1
 500 400 l 1
 500 300 l 1
 500 200 l 1
 450 200 l 1
 400 200 l 1
 400 150 l 1
 400 100 l 1
 350 100 l 1
 300 100 l 1
 300 50 l 1
 300 0 l 1
 250 0 l 1
 200 0 l 1
 200 500 l 1
EndSplineSet
EndChar

StartChar: uni0419
Encoding: 1049 1049 164
Width: 1200
Flags: HW
LayerCount: 2
Back
Fore
SplineSet
200 450 m 1
 200 900 l 1
 250 900 l 1
 300 900 l 1
 300 550 l 1
 300 200 l 1
 350 200 l 1
 400 200 l 1
 400 250 l 1
 400 300 l 1
 450 300 l 1
 500 300 l 1
 500 350 l 1
 500 400 l 1
 550 400 l 1
 600 400 l 1
 600 500 l 1
 600 600 l 1
 650 600 l 1
 700 600 l 1
 700 650 l 1
 700 700 l 1
 750 700 l 1
 800 700 l 1
 800 750 l 1
 800 800 l 1
 850 800 l 1
 900 800 l 1
 900 850 l 1
 900 900 l 1
 950 900 l 1
 1000 900 l 1
 1000 450 l 1
 1000 0 l 1
 950 0 l 1
 900 0 l 1
 900 350 l 1
 900 700 l 1
 850 700 l 1
 800 700 l 1
 800 650 l 1
 800 600 l 1
 750 600 l 1
 700 600 l 1
 700 500 l 1
 700 400 l 1
 650 400 l 1
 600 400 l 1
 600 350 l 1
 600 300 l 1
 550 300 l 1
 500 300 l 1
 500 250 l 1
 500 200 l 1
 450 200 l 1
 400 200 l 1
 400 150 l 1
 400 100 l 1
 350 100 l 1
 300 100 l 1
 300 50 l 1
 300 0 l 1
 250 0 l 1
 200 0 l 1
 200 450 l 1
400 950 m 1
 400 1000 l 1
 600 1000 l 1
 800 1000 l 1
 800 950 l 1
 800 900 l 1
 600 900 l 1
 400 900 l 1
 400 950 l 1
EndSplineSet
EndChar

StartChar: uni041A
Encoding: 1050 1050 165
Width: 1200
Flags: HW
LayerCount: 2
Back
Fore
SplineSet
300 500 m 1
 300 1000 l 1
 350 1000 l 1
 400 1000 l 1
 400 800 l 1
 400 600 l 1
 500 600 l 1
 600 600 l 1
 600 650 l 1
 600 700 l 1
 650 700 l 1
 700 700 l 1
 700 750 l 1
 700 800 l 1
 750 800 l 1
 800 800 l 1
 800 850 l 1
 800 900 l 1
 850 900 l 1
 900 900 l 1
 900 950 l 1
 900 1000 l 1
 950 1000 l 1
 1000 1000 l 1
 1000 950 l 1
 1000 900 l 1
 950 900 l 1
 900 900 l 1
 900 850 l 1
 900 800 l 1
 850 800 l 1
 800 800 l 1
 800 750 l 1
 800 700 l 1
 750 700 l 1
 700 700 l 1
 700 650 l 1
 700 600 l 1
 650 600 l 1
 600 600 l 1
 600 500 l 1
 600 400 l 1
 650 400 l 1
 700 400 l 1
 700 350 l 1
 700 300 l 1
 750 300 l 1
 800 300 l 1
 800 250 l 1
 800 200 l 1
 850 200 l 1
 900 200 l 1
 900 150 l 1
 900 100 l 1
 950 100 l 1
 1000 100 l 1
 1000 50 l 1
 1000 0 l 1
 950 0 l 1
 900 0 l 1
 900 50 l 1
 900 100 l 1
 850 100 l 1
 800 100 l 1
 800 150 l 1
 800 200 l 1
 750 200 l 1
 700 200 l 1
 700 250 l 1
 700 300 l 1
 650 300 l 1
 600 300 l 1
 600 350 l 1
 600 400 l 1
 550 400 l 1
 500 400 l 1
 500 450 l 1
 500 500 l 1
 450 500 l 1
 400 500 l 1
 400 250 l 1
 400 0 l 1
 350 0 l 1
 300 0 l 1
 300 500 l 1
EndSplineSet
EndChar

StartChar: uni041B
Encoding: 1051 1051 166
Width: 1200
Flags: HW
LayerCount: 2
Back
Fore
SplineSet
400 550 m 1
 400 1000 l 1
 700 1000 l 1
 1000 1000 l 1
 1000 500 l 1
 1000 0 l 1
 950 0 l 1
 900 0 l 1
 900 450 l 1
 900 900 l 1
 700 900 l 1
 500 900 l 1
 500 500 l 1
 500 100 l 1
 450 100 l 1
 400 100 l 1
 400 50 l 1
 400 0 l 1
 350 0 l 1
 300 0 l 1
 300 50 l 1
 300 100 l 1
 350 100 l 1
 400 100 l 1
 400 550 l 1
EndSplineSet
EndChar

StartChar: uni041C
Encoding: 1052 1052 167
Width: 1200
Flags: HW
LayerCount: 2
Back
Fore
SplineSet
200 500 m 1
 200 1000 l 1
 250 1000 l 1
 300 1000 l 1
 300 950 l 1
 300 900 l 1
 350 900 l 1
 400 900 l 1
 400 800 l 1
 400 700 l 1
 450 700 l 1
 500 700 l 1
 500 550 l 1
 500 400 l 1
 550 400 l 1
 600 400 l 1
 600 300 l 1
 600 200 l 1
 650 200 l 1
 700 200 l 1
 700 300 l 1
 700 400 l 1
 750 400 l 1
 800 400 l 1
 800 550 l 1
 800 700 l 1
 850 700 l 1
 900 700 l 1
 900 800 l 1
 900 900 l 1
 950 900 l 1
 1000 900 l 1
 1000 950 l 1
 1000 1000 l 1
 1050 1000 l 1
 1100 1000 l 1
 1100 500 l 1
 1100 0 l 1
 1050 0 l 1
 1000 0 l 1
 1000 350 l 1
 1000 700 l 1
 950 700 l 1
 900 700 l 1
 900 550 l 1
 900 400 l 1
 850 400 l 1
 800 400 l 1
 800 300 l 1
 800 200 l 1
 750 200 l 1
 700 200 l 1
 700 100 l 1
 700 0 l 1
 650 0 l 1
 600 0 l 1
 600 100 l 1
 600 200 l 1
 550 200 l 1
 500 200 l 1
 500 300 l 1
 500 400 l 1
 450 400 l 1
 400 400 l 1
 400 550 l 1
 400 700 l 1
 350 700 l 1
 300 700 l 1
 300 350 l 1
 300 0 l 1
 250 0 l 1
 200 0 l 1
 200 500 l 1
EndSplineSet
EndChar

StartChar: uni041D
Encoding: 1053 1053 168
Width: 1200
Flags: HW
LayerCount: 2
Back
Fore
SplineSet
300 500 m 1
 300 1000 l 1
 350 1000 l 1
 400 1000 l 1
 400 800 l 1
 400 600 l 1
 650 600 l 1
 900 600 l 1
 900 800 l 1
 900 1000 l 1
 950 1000 l 1
 1000 1000 l 1
 1000 500 l 1
 1000 0 l 1
 950 0 l 1
 900 0 l 1
 900 250 l 1
 900 500 l 1
 650 500 l 1
 400 500 l 1
 400 250 l 1
 400 0 l 1
 350 0 l 1
 300 0 l 1
 300 500 l 1
EndSplineSet
EndChar

StartChar: uni041E
Encoding: 1054 1054 169
Width: 1200
Flags: HW
LayerCount: 2
Back
Fore
SplineSet
400 950 m 1
 400 1000 l 1
 600 1000 l 1
 800 1000 l 1
 800 950 l 1
 800 900 l 1
 850 900 l 1
 900 900 l 1
 900 850 l 1
 900 800 l 1
 950 800 l 1
 1000 800 l 1
 1000 500 l 1
 1000 200 l 1
 950 200 l 1
 900 200 l 1
 900 150 l 1
 900 100 l 1
 850 100 l 1
 800 100 l 1
 800 50 l 1
 800 0 l 1
 600 0 l 1
 400 0 l 1
 400 50 l 1
 400 100 l 1
 350 100 l 1
 300 100 l 1
 300 150 l 1
 300 200 l 1
 250 200 l 1
 200 200 l 1
 200 500 l 1
 200 800 l 1
 250 800 l 1
 300 800 l 1
 300 850 l 1
 300 900 l 1
 350 900 l 1
 400 900 l 1
 400 950 l 1
800 850 m 1
 800 900 l 1
 600 900 l 1
 400 900 l 1
 400 850 l 1
 400 800 l 1
 350 800 l 1
 300 800 l 1
 300 500 l 1
 300 200 l 1
 350 200 l 1
 400 200 l 1
 400 150 l 1
 400 100 l 1
 600 100 l 1
 800 100 l 1
 800 150 l 1
 800 200 l 1
 850 200 l 1
 900 200 l 1
 900 500 l 1
 900 800 l 1
 850 800 l 1
 800 800 l 1
 800 850 l 1
EndSplineSet
EndChar

StartChar: uni041F
Encoding: 1055 1055 170
Width: 1200
Flags: HW
LayerCount: 2
Back
Fore
SplineSet
300 500 m 1
 300 1000 l 1
 650 1000 l 1
 1000 1000 l 1
 1000 500 l 1
 1000 0 l 1
 950 0 l 1
 900 0 l 1
 900 450 l 1
 900 900 l 1
 650 900 l 1
 400 900 l 1
 400 450 l 1
 400 0 l 1
 350 0 l 1
 300 0 l 1
 300 500 l 1
EndSplineSet
EndChar

StartChar: uni0420
Encoding: 1056 1056 171
Width: 1200
Flags: HW
LayerCount: 2
Back
Fore
SplineSet
300 500 m 1
 300 1000 l 1
 600 1000 l 1
 900 1000 l 1
 900 950 l 1
 900 900 l 1
 950 900 l 1
 1000 900 l 1
 1000 700 l 1
 1000 500 l 1
 950 500 l 1
 900 500 l 1
 900 450 l 1
 900 400 l 1
 650 400 l 1
 400 400 l 1
 400 200 l 1
 400 0 l 1
 350 0 l 1
 300 0 l 1
 300 500 l 1
900 700 m 1
 900 900 l 1
 650 900 l 1
 400 900 l 1
 400 700 l 1
 400 500 l 1
 650 500 l 1
 900 500 l 1
 900 700 l 1
EndSplineSet
EndChar

StartChar: uni0421
Encoding: 1057 1057 172
Width: 1200
Flags: HW
LayerCount: 2
Back
Fore
SplineSet
400 950 m 1
 400 1000 l 1
 600 1000 l 1
 800 1000 l 1
 800 950 l 1
 800 900 l 1
 850 900 l 1
 900 900 l 1
 900 850 l 1
 900 800 l 1
 950 800 l 1
 1000 800 l 1
 1000 750 l 1
 1000 700 l 1
 950 700 l 1
 900 700 l 1
 900 750 l 1
 900 800 l 1
 850 800 l 1
 800 800 l 1
 800 850 l 1
 800 900 l 1
 600 900 l 1
 400 900 l 1
 400 850 l 1
 400 800 l 1
 350 800 l 1
 300 800 l 1
 300 500 l 1
 300 200 l 1
 350 200 l 1
 400 200 l 1
 400 150 l 1
 400 100 l 1
 600 100 l 1
 800 100 l 1
 800 150 l 1
 800 200 l 1
 850 200 l 1
 900 200 l 1
 900 250 l 1
 900 300 l 1
 950 300 l 1
 1000 300 l 1
 1000 250 l 1
 1000 200 l 1
 950 200 l 1
 900 200 l 1
 900 150 l 1
 900 100 l 1
 850 100 l 1
 800 100 l 1
 800 50 l 1
 800 0 l 1
 600 0 l 1
 400 0 l 1
 400 50 l 1
 400 100 l 1
 350 100 l 1
 300 100 l 1
 300 150 l 1
 300 200 l 1
 250 200 l 1
 200 200 l 1
 200 500 l 1
 200 800 l 1
 250 800 l 1
 300 800 l 1
 300 850 l 1
 300 900 l 1
 350 900 l 1
 400 900 l 1
 400 950 l 1
EndSplineSet
EndChar

StartChar: uni0422
Encoding: 1058 1058 173
Width: 1200
Flags: HW
LayerCount: 2
Back
Fore
SplineSet
300 950 m 1
 300 1000 l 1
 650 1000 l 1
 1000 1000 l 1
 1000 950 l 1
 1000 900 l 1
 850 900 l 1
 700 900 l 1
 700 450 l 1
 700 0 l 1
 650 0 l 1
 600 0 l 1
 600 450 l 1
 600 900 l 1
 450 900 l 1
 300 900 l 1
 300 950 l 1
EndSplineSet
EndChar

StartChar: uni0423
Encoding: 1059 1059 174
Width: 1200
Flags: HW
LayerCount: 2
Back
Fore
SplineSet
300 900 m 1
 300 1000 l 1
 350 1000 l 1
 400 1000 l 1
 400 900 l 1
 400 800 l 1
 450 800 l 1
 500 800 l 1
 500 700 l 1
 500 600 l 1
 550 600 l 1
 600 600 l 1
 600 500 l 1
 600 400 l 1
 650 400 l 1
 700 400 l 1
 700 500 l 1
 700 600 l 1
 750 600 l 1
 800 600 l 1
 800 700 l 1
 800 800 l 1
 850 800 l 1
 900 800 l 1
 900 900 l 1
 900 1000 l 1
 950 1000 l 1
 1000 1000 l 1
 1000 900 l 1
 1000 800 l 1
 950 800 l 1
 900 800 l 1
 900 700 l 1
 900 600 l 1
 850 600 l 1
 800 600 l 1
 800 500 l 1
 800 400 l 1
 750 400 l 1
 700 400 l 1
 700 300 l 1
 700 200 l 1
 650 200 l 1
 600 200 l 1
 600 150 l 1
 600 100 l 1
 550 100 l 1
 500 100 l 1
 500 50 l 1
 500 0 l 1
 400 0 l 1
 300 0 l 1
 300 50 l 1
 300 100 l 1
 400 100 l 1
 500 100 l 1
 500 150 l 1
 500 200 l 1
 550 200 l 1
 600 200 l 1
 600 300 l 1
 600 400 l 1
 550 400 l 1
 500 400 l 1
 500 500 l 1
 500 600 l 1
 450 600 l 1
 400 600 l 1
 400 700 l 1
 400 800 l 1
 350 800 l 1
 300 800 l 1
 300 900 l 1
EndSplineSet
EndChar

StartChar: uni0424
Encoding: 1060 1060 175
Width: 1200
Flags: HW
LayerCount: 2
Back
Fore
SplineSet
600 950 m 1
 600 1000 l 1
 650 1000 l 1
 700 1000 l 1
 700 950 l 1
 700 900 l 1
 800 900 l 1
 900 900 l 1
 900 850 l 1
 900 800 l 1
 950 800 l 1
 1000 800 l 1
 1000 750 l 1
 1000 700 l 1
 1050 700 l 1
 1100 700 l 1
 1100 500 l 1
 1100 300 l 1
 1050 300 l 1
 1000 300 l 1
 1000 250 l 1
 1000 200 l 1
 950 200 l 1
 900 200 l 1
 900 150 l 1
 900 100 l 1
 800 100 l 1
 700 100 l 1
 700 50 l 1
 700 0 l 1
 650 0 l 1
 600 0 l 1
 600 50 l 1
 600 100 l 1
 500 100 l 1
 400 100 l 1
 400 150 l 1
 400 200 l 1
 350 200 l 1
 300 200 l 1
 300 250 l 1
 300 300 l 1
 250 300 l 1
 200 300 l 1
 200 500 l 1
 200 700 l 1
 250 700 l 1
 300 700 l 1
 300 750 l 1
 300 800 l 1
 350 800 l 1
 400 800 l 1
 400 850 l 1
 400 900 l 1
 500 900 l 1
 600 900 l 1
 600 950 l 1
600 500 m 1
 600 800 l 1
 500 800 l 1
 400 800 l 1
 400 750 l 1
 400 700 l 1
 350 700 l 1
 300 700 l 1
 300 500 l 1
 300 300 l 1
 350 300 l 1
 400 300 l 1
 400 250 l 1
 400 200 l 1
 500 200 l 1
 600 200 l 1
 600 500 l 1
900 750 m 1
 900 800 l 1
 800 800 l 1
 700 800 l 1
 700 500 l 1
 700 200 l 1
 800 200 l 1
 900 200 l 1
 900 250 l 1
 900 300 l 1
 950 300 l 1
 1000 300 l 1
 1000 500 l 1
 1000 700 l 1
 950 700 l 1
 900 700 l 1
 900 750 l 1
EndSplineSet
EndChar

StartChar: uni0425
Encoding: 1061 1061 176
Width: 1200
Flags: HW
LayerCount: 2
Back
Fore
SplineSet
300 950 m 1
 300 1000 l 1
 350 1000 l 1
 400 1000 l 1
 400 950 l 1
 400 900 l 1
 450 900 l 1
 500 900 l 1
 500 800 l 1
 500 700 l 1
 550 700 l 1
 600 700 l 1
 600 650 l 1
 600 600 l 1
 650 600 l 1
 700 600 l 1
 700 650 l 1
 700 700 l 1
 750 700 l 1
 800 700 l 1
 800 800 l 1
 800 900 l 1
 850 900 l 1
 900 900 l 1
 900 950 l 1
 900 1000 l 1
 950 1000 l 1
 1000 1000 l 1
 1000 950 l 1
 1000 900 l 1
 950 900 l 1
 900 900 l 1
 900 800 l 1
 900 700 l 1
 850 700 l 1
 800 700 l 1
 800 650 l 1
 800 600 l 1
 750 600 l 1
 700 600 l 1
 700 550 l 1
 700 500 l 1
 750 500 l 1
 800 500 l 1
 800 400 l 1
 800 300 l 1
 850 300 l 1
 900 300 l 1
 900 200 l 1
 900 100 l 1
 950 100 l 1
 1000 100 l 1
 1000 50 l 1
 1000 0 l 1
 950 0 l 1
 900 0 l 1
 900 50 l 1
 900 100 l 1
 850 100 l 1
 800 100 l 1
 800 200 l 1
 800 300 l 1
 750 300 l 1
 700 300 l 1
 700 400 l 1
 700 500 l 1
 650 500 l 1
 600 500 l 1
 600 400 l 1
 600 300 l 1
 550 300 l 1
 500 300 l 1
 500 200 l 1
 500 100 l 1
 450 100 l 1
 400 100 l 1
 400 50 l 1
 400 0 l 1
 350 0 l 1
 300 0 l 1
 300 50 l 1
 300 100 l 1
 350 100 l 1
 400 100 l 1
 400 200 l 1
 400 300 l 1
 450 300 l 1
 500 300 l 1
 500 400 l 1
 500 500 l 1
 550 500 l 1
 600 500 l 1
 600 550 l 1
 600 600 l 1
 550 600 l 1
 500 600 l 1
 500 650 l 1
 500 700 l 1
 450 700 l 1
 400 700 l 1
 400 800 l 1
 400 900 l 1
 350 900 l 1
 300 900 l 1
 300 950 l 1
EndSplineSet
EndChar

StartChar: uni0426
Encoding: 1062 1062 177
Width: 1200
Flags: HW
LayerCount: 2
Back
Fore
SplineSet
200 500 m 1
 200 1000 l 1
 250 1000 l 1
 300 1000 l 1
 300 550 l 1
 300 100 l 1
 550 100 l 1
 800 100 l 1
 800 550 l 1
 800 1000 l 1
 850 1000 l 1
 900 1000 l 1
 900 550 l 1
 900 100 l 1
 950 100 l 1
 1000 100 l 1
 1000 0 l 1
 1000 -100 l 1
 950 -100 l 1
 900 -100 l 1
 900 -50 l 1
 900 0 l 1
 550 0 l 1
 200 0 l 1
 200 500 l 1
EndSplineSet
EndChar

StartChar: uni0427
Encoding: 1063 1063 178
Width: 1200
Flags: HW
LayerCount: 2
Back
Fore
SplineSet
300 650 m 1
 300 1000 l 1
 350 1000 l 1
 400 1000 l 1
 400 650 l 1
 400 300 l 1
 600 300 l 1
 800 300 l 1
 800 350 l 1
 800 400 l 1
 850 400 l 1
 900 400 l 1
 900 700 l 1
 900 1000 l 1
 950 1000 l 1
 1000 1000 l 1
 1000 500 l 1
 1000 0 l 1
 950 0 l 1
 900 0 l 1
 900 150 l 1
 900 300 l 1
 850 300 l 1
 800 300 l 1
 800 250 l 1
 800 200 l 1
 600 200 l 1
 400 200 l 1
 400 250 l 1
 400 300 l 1
 350 300 l 1
 300 300 l 1
 300 650 l 1
EndSplineSet
EndChar

StartChar: uni0428
Encoding: 1064 1064 179
Width: 1200
Flags: HW
LayerCount: 2
Back
Fore
SplineSet
200 500 m 1
 200 1000 l 1
 250 1000 l 1
 300 1000 l 1
 300 550 l 1
 300 100 l 1
 450 100 l 1
 600 100 l 1
 600 550 l 1
 600 1000 l 1
 650 1000 l 1
 700 1000 l 1
 700 550 l 1
 700 100 l 1
 850 100 l 1
 1000 100 l 1
 1000 550 l 1
 1000 1000 l 1
 1050 1000 l 1
 1100 1000 l 1
 1100 500 l 1
 1100 0 l 1
 650 0 l 1
 200 0 l 1
 200 500 l 1
EndSplineSet
EndChar

StartChar: uni0429
Encoding: 1065 1065 180
Width: 1200
Flags: HW
LayerCount: 2
Back
Fore
SplineSet
100 500 m 1
 100 1000 l 1
 150 1000 l 1
 200 1000 l 1
 200 550 l 1
 200 100 l 1
 350 100 l 1
 500 100 l 1
 500 550 l 1
 500 1000 l 1
 550 1000 l 1
 600 1000 l 1
 600 550 l 1
 600 100 l 1
 750 100 l 1
 900 100 l 1
 900 550 l 1
 900 1000 l 1
 950 1000 l 1
 1000 1000 l 1
 1000 550 l 1
 1000 100 l 1
 1050 100 l 1
 1100 100 l 1
 1100 0 l 1
 1100 -100 l 1
 1050 -100 l 1
 1000 -100 l 1
 1000 -50 l 1
 1000 0 l 1
 550 0 l 1
 100 0 l 1
 100 500 l 1
EndSplineSet
EndChar

StartChar: uni042A
Encoding: 1066 1066 181
Width: 1200
Flags: HW
LayerCount: 2
Back
Fore
SplineSet
200 950 m 1
 200 1000 l 1
 350 1000 l 1
 500 1000 l 1
 500 800 l 1
 500 600 l 1
 750 600 l 1
 1000 600 l 1
 1000 550 l 1
 1000 500 l 1
 1050 500 l 1
 1100 500 l 1
 1100 300 l 1
 1100 100 l 1
 1050 100 l 1
 1000 100 l 1
 1000 50 l 1
 1000 0 l 1
 700 0 l 1
 400 0 l 1
 400 450 l 1
 400 900 l 1
 300 900 l 1
 200 900 l 1
 200 950 l 1
1000 300 m 1
 1000 500 l 1
 750 500 l 1
 500 500 l 1
 500 300 l 1
 500 100 l 1
 750 100 l 1
 1000 100 l 1
 1000 300 l 1
EndSplineSet
EndChar

StartChar: uni042B
Encoding: 1067 1067 182
Width: 1200
Flags: HW
LayerCount: 2
Back
Fore
SplineSet
1000 500 m 1
 1000 1000 l 1
 1050 1000 l 1
 1100 1000 l 1
 1100 500 l 1
 1100 0 l 1
 1050 0 l 1
 1000 0 l 1
 1000 500 l 1
200 500 m 1
 200 1000 l 1
 250 1000 l 1
 300 1000 l 1
 300 800 l 1
 300 600 l 1
 550 600 l 1
 800 600 l 1
 800 550 l 1
 800 500 l 1
 850 500 l 1
 900 500 l 1
 900 300 l 1
 900 100 l 1
 850 100 l 1
 800 100 l 1
 800 50 l 1
 800 0 l 1
 500 0 l 1
 200 0 l 1
 200 500 l 1
800 300 m 1
 800 500 l 1
 550 500 l 1
 300 500 l 1
 300 300 l 1
 300 100 l 1
 550 100 l 1
 800 100 l 1
 800 300 l 1
EndSplineSet
EndChar

StartChar: uni042C
Encoding: 1068 1068 183
Width: 1200
Flags: HW
LayerCount: 2
Back
Fore
SplineSet
300 500 m 1
 300 1000 l 1
 350 1000 l 1
 400 1000 l 1
 400 800 l 1
 400 600 l 1
 650 600 l 1
 900 600 l 1
 900 550 l 1
 900 500 l 1
 950 500 l 1
 1000 500 l 1
 1000 300 l 1
 1000 100 l 1
 950 100 l 1
 900 100 l 1
 900 50 l 1
 900 0 l 1
 600 0 l 1
 300 0 l 1
 300 500 l 1
900 300 m 1
 900 500 l 1
 650 500 l 1
 400 500 l 1
 400 300 l 1
 400 100 l 1
 650 100 l 1
 900 100 l 1
 900 300 l 1
EndSplineSet
EndChar

StartChar: uni042D
Encoding: 1069 1069 184
Width: 1200
Flags: HW
LayerCount: 2
Back
Fore
SplineSet
400 950 m 1
 400 1000 l 1
 600 1000 l 1
 800 1000 l 1
 800 950 l 1
 800 900 l 1
 850 900 l 1
 900 900 l 1
 900 850 l 1
 900 800 l 1
 950 800 l 1
 1000 800 l 1
 1000 500 l 1
 1000 200 l 1
 950 200 l 1
 900 200 l 1
 900 150 l 1
 900 100 l 1
 850 100 l 1
 800 100 l 1
 800 50 l 1
 800 0 l 1
 600 0 l 1
 400 0 l 1
 400 50 l 1
 400 100 l 1
 350 100 l 1
 300 100 l 1
 300 150 l 1
 300 200 l 1
 250 200 l 1
 200 200 l 1
 200 250 l 1
 200 300 l 1
 250 300 l 1
 300 300 l 1
 300 250 l 1
 300 200 l 1
 350 200 l 1
 400 200 l 1
 400 150 l 1
 400 100 l 1
 600 100 l 1
 800 100 l 1
 800 150 l 1
 800 200 l 1
 850 200 l 1
 900 200 l 1
 900 350 l 1
 900 500 l 1
 700 500 l 1
 500 500 l 1
 500 550 l 1
 500 600 l 1
 700 600 l 1
 900 600 l 1
 900 700 l 1
 900 800 l 1
 850 800 l 1
 800 800 l 1
 800 850 l 1
 800 900 l 1
 600 900 l 1
 400 900 l 1
 400 850 l 1
 400 800 l 1
 350 800 l 1
 300 800 l 1
 300 750 l 1
 300 700 l 1
 250 700 l 1
 200 700 l 1
 200 750 l 1
 200 800 l 1
 250 800 l 1
 300 800 l 1
 300 850 l 1
 300 900 l 1
 350 900 l 1
 400 900 l 1
 400 950 l 1
EndSplineSet
EndChar

StartChar: uni042E
Encoding: 1070 1070 185
Width: 1200
Flags: HW
LayerCount: 2
Back
Fore
SplineSet
100 500 m 1
 100 1000 l 1
 150 1000 l 1
 200 1000 l 1
 200 800 l 1
 200 600 l 1
 300 600 l 1
 400 600 l 1
 400 700 l 1
 400 800 l 1
 450 800 l 1
 500 800 l 1
 500 850 l 1
 500 900 l 1
 550 900 l 1
 600 900 l 1
 600 950 l 1
 600 1000 l 1
 750 1000 l 1
 900 1000 l 1
 900 950 l 1
 900 900 l 1
 950 900 l 1
 1000 900 l 1
 1000 850 l 1
 1000 800 l 1
 1050 800 l 1
 1100 800 l 1
 1100 500 l 1
 1100 200 l 1
 1050 200 l 1
 1000 200 l 1
 1000 150 l 1
 1000 100 l 1
 950 100 l 1
 900 100 l 1
 900 50 l 1
 900 0 l 1
 750 0 l 1
 600 0 l 1
 600 50 l 1
 600 100 l 1
 550 100 l 1
 500 100 l 1
 500 150 l 1
 500 200 l 1
 450 200 l 1
 400 200 l 1
 400 350 l 1
 400 500 l 1
 300 500 l 1
 200 500 l 1
 200 250 l 1
 200 0 l 1
 150 0 l 1
 100 0 l 1
 100 500 l 1
900 850 m 1
 900 900 l 1
 750 900 l 1
 600 900 l 1
 600 850 l 1
 600 800 l 1
 550 800 l 1
 500 800 l 1
 500 500 l 1
 500 200 l 1
 550 200 l 1
 600 200 l 1
 600 150 l 1
 600 100 l 1
 750 100 l 1
 900 100 l 1
 900 150 l 1
 900 200 l 1
 950 200 l 1
 1000 200 l 1
 1000 500 l 1
 1000 800 l 1
 950 800 l 1
 900 800 l 1
 900 850 l 1
EndSplineSet
EndChar

StartChar: uni042F
Encoding: 1071 1071 186
Width: 1200
Flags: HW
LayerCount: 2
Back
Fore
SplineSet
400 950 m 1
 400 1000 l 1
 700 1000 l 1
 1000 1000 l 1
 1000 500 l 1
 1000 0 l 1
 950 0 l 1
 900 0 l 1
 900 250 l 1
 900 500 l 1
 750 500 l 1
 600 500 l 1
 600 450 l 1
 600 400 l 1
 550 400 l 1
 500 400 l 1
 500 300 l 1
 500 200 l 1
 450 200 l 1
 400 200 l 1
 400 100 l 1
 400 0 l 1
 350 0 l 1
 300 0 l 1
 300 100 l 1
 300 200 l 1
 350 200 l 1
 400 200 l 1
 400 300 l 1
 400 400 l 1
 450 400 l 1
 500 400 l 1
 500 450 l 1
 500 500 l 1
 450 500 l 1
 400 500 l 1
 400 550 l 1
 400 600 l 1
 350 600 l 1
 300 600 l 1
 300 750 l 1
 300 900 l 1
 350 900 l 1
 400 900 l 1
 400 950 l 1
900 750 m 1
 900 900 l 1
 650 900 l 1
 400 900 l 1
 400 750 l 1
 400 600 l 1
 650 600 l 1
 900 600 l 1
 900 750 l 1
EndSplineSet
EndChar

StartChar: uni0430
Encoding: 1072 1072 187
Width: 1200
Flags: HW
LayerCount: 2
Back
Fore
SplineSet
400 750 m 1
 400 800 l 1
 600 800 l 1
 800 800 l 1
 800 750 l 1
 800 700 l 1
 850 700 l 1
 900 700 l 1
 900 400 l 1
 900 100 l 1
 950 100 l 1
 1000 100 l 1
 1000 50 l 1
 1000 0 l 1
 950 0 l 1
 900 0 l 1
 900 50 l 1
 900 100 l 1
 800 100 l 1
 700 100 l 1
 700 50 l 1
 700 0 l 1
 550 0 l 1
 400 0 l 1
 400 50 l 1
 400 100 l 1
 350 100 l 1
 300 100 l 1
 300 250 l 1
 300 400 l 1
 350 400 l 1
 400 400 l 1
 400 450 l 1
 400 500 l 1
 550 500 l 1
 700 500 l 1
 700 550 l 1
 700 600 l 1
 750 600 l 1
 800 600 l 1
 800 650 l 1
 800 700 l 1
 600 700 l 1
 400 700 l 1
 400 650 l 1
 400 600 l 1
 350 600 l 1
 300 600 l 1
 300 650 l 1
 300 700 l 1
 350 700 l 1
 400 700 l 1
 400 750 l 1
800 350 m 1
 800 500 l 1
 750 500 l 1
 700 500 l 1
 700 450 l 1
 700 400 l 1
 550 400 l 1
 400 400 l 1
 400 250 l 1
 400 100 l 1
 550 100 l 1
 700 100 l 1
 700 150 l 1
 700 200 l 1
 750 200 l 1
 800 200 l 1
 800 350 l 1
EndSplineSet
EndChar

StartChar: uni0431
Encoding: 1073 1073 188
Width: 1200
Flags: HW
LayerCount: 2
Back
Fore
SplineSet
800 950 m 1
 800 1000 l 1
 850 1000 l 1
 900 1000 l 1
 900 950 l 1
 900 900 l 1
 850 900 l 1
 800 900 l 1
 800 850 l 1
 800 800 l 1
 650 800 l 1
 500 800 l 1
 500 750 l 1
 500 700 l 1
 650 700 l 1
 800 700 l 1
 800 650 l 1
 800 600 l 1
 850 600 l 1
 900 600 l 1
 900 550 l 1
 900 500 l 1
 950 500 l 1
 1000 500 l 1
 1000 350 l 1
 1000 200 l 1
 950 200 l 1
 900 200 l 1
 900 150 l 1
 900 100 l 1
 850 100 l 1
 800 100 l 1
 800 50 l 1
 800 0 l 1
 650 0 l 1
 500 0 l 1
 500 50 l 1
 500 100 l 1
 450 100 l 1
 400 100 l 1
 400 150 l 1
 400 200 l 1
 350 200 l 1
 300 200 l 1
 300 450 l 1
 300 700 l 1
 350 700 l 1
 400 700 l 1
 400 750 l 1
 400 800 l 1
 450 800 l 1
 500 800 l 1
 500 850 l 1
 500 900 l 1
 650 900 l 1
 800 900 l 1
 800 950 l 1
500 650 m 1
 500 700 l 1
 450 700 l 1
 400 700 l 1
 400 650 l 1
 400 600 l 1
 450 600 l 1
 500 600 l 1
 500 550 l 1
 500 500 l 1
 450 500 l 1
 400 500 l 1
 400 350 l 1
 400 200 l 1
 450 200 l 1
 500 200 l 1
 500 150 l 1
 500 100 l 1
 650 100 l 1
 800 100 l 1
 800 150 l 1
 800 200 l 1
 850 200 l 1
 900 200 l 1
 900 350 l 1
 900 500 l 1
 850 500 l 1
 800 500 l 1
 800 550 l 1
 800 600 l 1
 650 600 l 1
 500 600 l 1
 500 650 l 1
EndSplineSet
EndChar

StartChar: uni0432
Encoding: 1074 1074 189
Width: 1200
Flags: HW
LayerCount: 2
Back
Fore
SplineSet
300 400 m 1
 300 800 l 1
 600 800 l 1
 900 800 l 1
 900 750 l 1
 900 700 l 1
 950 700 l 1
 1000 700 l 1
 1000 600 l 1
 1000 500 l 1
 950 500 l 1
 900 500 l 1
 900 450 l 1
 900 400 l 1
 950 400 l 1
 1000 400 l 1
 1000 250 l 1
 1000 100 l 1
 950 100 l 1
 900 100 l 1
 900 50 l 1
 900 0 l 1
 600 0 l 1
 300 0 l 1
 300 400 l 1
900 600 m 1
 900 700 l 1
 650 700 l 1
 400 700 l 1
 400 600 l 1
 400 500 l 1
 650 500 l 1
 900 500 l 1
 900 600 l 1
900 250 m 1
 900 400 l 1
 650 400 l 1
 400 400 l 1
 400 250 l 1
 400 100 l 1
 650 100 l 1
 900 100 l 1
 900 250 l 1
EndSplineSet
EndChar

StartChar: uni0433
Encoding: 1075 1075 190
Width: 1200
Flags: HW
LayerCount: 2
Back
Fore
SplineSet
300 400 m 1
 300 800 l 1
 600 800 l 1
 900 800 l 1
 900 750 l 1
 900 700 l 1
 650 700 l 1
 400 700 l 1
 400 350 l 1
 400 0 l 1
 350 0 l 1
 300 0 l 1
 300 400 l 1
EndSplineSet
EndChar

StartChar: uni0434
Encoding: 1076 1076 191
Width: 1200
Flags: HW
LayerCount: 2
Back
Fore
SplineSet
500 600 m 1
 500 800 l 1
 700 800 l 1
 900 800 l 1
 900 450 l 1
 900 100 l 1
 950 100 l 1
 1000 100 l 1
 1000 0 l 1
 1000 -100 l 1
 950 -100 l 1
 900 -100 l 1
 900 -50 l 1
 900 0 l 1
 600 0 l 1
 300 0 l 1
 300 -50 l 1
 300 -100 l 1
 250 -100 l 1
 200 -100 l 1
 200 0 l 1
 200 100 l 1
 250 100 l 1
 300 100 l 1
 300 150 l 1
 300 200 l 1
 350 200 l 1
 400 200 l 1
 400 300 l 1
 400 400 l 1
 450 400 l 1
 500 400 l 1
 500 600 l 1
800 400 m 1
 800 700 l 1
 700 700 l 1
 600 700 l 1
 600 550 l 1
 600 400 l 1
 550 400 l 1
 500 400 l 1
 500 300 l 1
 500 200 l 1
 450 200 l 1
 400 200 l 1
 400 150 l 1
 400 100 l 1
 600 100 l 1
 800 100 l 1
 800 400 l 1
EndSplineSet
EndChar

StartChar: uni0435
Encoding: 1077 1077 192
Width: 1200
Flags: HW
LayerCount: 2
Back
Fore
SplineSet
400 750 m 1
 400 800 l 1
 650 800 l 1
 900 800 l 1
 900 750 l 1
 900 700 l 1
 950 700 l 1
 1000 700 l 1
 1000 550 l 1
 1000 400 l 1
 700 400 l 1
 400 400 l 1
 400 250 l 1
 400 100 l 1
 650 100 l 1
 900 100 l 1
 900 150 l 1
 900 200 l 1
 950 200 l 1
 1000 200 l 1
 1000 150 l 1
 1000 100 l 1
 950 100 l 1
 900 100 l 1
 900 50 l 1
 900 0 l 1
 650 0 l 1
 400 0 l 1
 400 50 l 1
 400 100 l 1
 350 100 l 1
 300 100 l 1
 300 400 l 1
 300 700 l 1
 350 700 l 1
 400 700 l 1
 400 750 l 1
900 600 m 1
 900 700 l 1
 650 700 l 1
 400 700 l 1
 400 600 l 1
 400 500 l 1
 650 500 l 1
 900 500 l 1
 900 600 l 1
EndSplineSet
EndChar

StartChar: uni0436
Encoding: 1078 1078 193
Width: 1200
Flags: HW
LayerCount: 2
Back
Fore
SplineSet
200 750 m 1
 200 800 l 1
 250 800 l 1
 300 800 l 1
 300 750 l 1
 300 700 l 1
 350 700 l 1
 400 700 l 1
 400 600 l 1
 400 500 l 1
 450 500 l 1
 500 500 l 1
 500 450 l 1
 500 400 l 1
 550 400 l 1
 600 400 l 1
 600 600 l 1
 600 800 l 1
 650 800 l 1
 700 800 l 1
 700 600 l 1
 700 400 l 1
 750 400 l 1
 800 400 l 1
 800 450 l 1
 800 500 l 1
 850 500 l 1
 900 500 l 1
 900 600 l 1
 900 700 l 1
 950 700 l 1
 1000 700 l 1
 1000 750 l 1
 1000 800 l 1
 1050 800 l 1
 1100 800 l 1
 1100 750 l 1
 1100 700 l 1
 1050 700 l 1
 1000 700 l 1
 1000 600 l 1
 1000 500 l 1
 950 500 l 1
 900 500 l 1
 900 450 l 1
 900 400 l 1
 850 400 l 1
 800 400 l 1
 800 350 l 1
 800 300 l 1
 850 300 l 1
 900 300 l 1
 900 250 l 1
 900 200 l 1
 950 200 l 1
 1000 200 l 1
 1000 150 l 1
 1000 100 l 1
 1050 100 l 1
 1100 100 l 1
 1100 50 l 1
 1100 0 l 1
 1050 0 l 1
 1000 0 l 1
 1000 50 l 1
 1000 100 l 1
 950 100 l 1
 900 100 l 1
 900 150 l 1
 900 200 l 1
 850 200 l 1
 800 200 l 1
 800 250 l 1
 800 300 l 1
 750 300 l 1
 700 300 l 1
 700 150 l 1
 700 0 l 1
 650 0 l 1
 600 0 l 1
 600 150 l 1
 600 300 l 1
 550 300 l 1
 500 300 l 1
 500 250 l 1
 500 200 l 1
 450 200 l 1
 400 200 l 1
 400 150 l 1
 400 100 l 1
 350 100 l 1
 300 100 l 1
 300 50 l 1
 300 0 l 1
 250 0 l 1
 200 0 l 1
 200 50 l 1
 200 100 l 1
 250 100 l 1
 300 100 l 1
 300 150 l 1
 300 200 l 1
 350 200 l 1
 400 200 l 1
 400 250 l 1
 400 300 l 1
 450 300 l 1
 500 300 l 1
 500 350 l 1
 500 400 l 1
 450 400 l 1
 400 400 l 1
 400 450 l 1
 400 500 l 1
 350 500 l 1
 300 500 l 1
 300 600 l 1
 300 700 l 1
 250 700 l 1
 200 700 l 1
 200 750 l 1
EndSplineSet
EndChar

StartChar: uni0437
Encoding: 1079 1079 194
Width: 1200
Flags: HW
LayerCount: 2
Back
Fore
SplineSet
400 750 m 1
 400 800 l 1
 650 800 l 1
 900 800 l 1
 900 750 l 1
 900 700 l 1
 950 700 l 1
 1000 700 l 1
 1000 600 l 1
 1000 500 l 1
 950 500 l 1
 900 500 l 1
 900 450 l 1
 900 400 l 1
 950 400 l 1
 1000 400 l 1
 1000 250 l 1
 1000 100 l 1
 950 100 l 1
 900 100 l 1
 900 50 l 1
 900 0 l 1
 650 0 l 1
 400 0 l 1
 400 50 l 1
 400 100 l 1
 350 100 l 1
 300 100 l 1
 300 150 l 1
 300 200 l 1
 350 200 l 1
 400 200 l 1
 400 150 l 1
 400 100 l 1
 650 100 l 1
 900 100 l 1
 900 250 l 1
 900 400 l 1
 750 400 l 1
 600 400 l 1
 600 450 l 1
 600 500 l 1
 750 500 l 1
 900 500 l 1
 900 600 l 1
 900 700 l 1
 650 700 l 1
 400 700 l 1
 400 650 l 1
 400 600 l 1
 350 600 l 1
 300 600 l 1
 300 650 l 1
 300 700 l 1
 350 700 l 1
 400 700 l 1
 400 750 l 1
EndSplineSet
EndChar

StartChar: uni0438
Encoding: 1080 1080 195
Width: 1200
Flags: HW
LayerCount: 2
Back
Fore
SplineSet
300 400 m 1
 300 800 l 1
 350 800 l 1
 400 800 l 1
 400 500 l 1
 400 200 l 1
 450 200 l 1
 500 200 l 1
 500 250 l 1
 500 300 l 1
 550 300 l 1
 600 300 l 1
 600 400 l 1
 600 500 l 1
 650 500 l 1
 700 500 l 1
 700 550 l 1
 700 600 l 1
 750 600 l 1
 800 600 l 1
 800 650 l 1
 800 700 l 1
 850 700 l 1
 900 700 l 1
 900 750 l 1
 900 800 l 1
 950 800 l 1
 1000 800 l 1
 1000 400 l 1
 1000 0 l 1
 950 0 l 1
 900 0 l 1
 900 300 l 1
 900 600 l 1
 850 600 l 1
 800 600 l 1
 800 550 l 1
 800 500 l 1
 750 500 l 1
 700 500 l 1
 700 400 l 1
 700 300 l 1
 650 300 l 1
 600 300 l 1
 600 250 l 1
 600 200 l 1
 550 200 l 1
 500 200 l 1
 500 150 l 1
 500 100 l 1
 450 100 l 1
 400 100 l 1
 400 50 l 1
 400 0 l 1
 350 0 l 1
 300 0 l 1
 300 400 l 1
EndSplineSet
EndChar

StartChar: uni0439
Encoding: 1081 1081 196
Width: 1200
Flags: HW
LayerCount: 2
Back
Fore
SplineSet
300 400 m 1
 300 800 l 1
 350 800 l 1
 400 800 l 1
 400 500 l 1
 400 200 l 1
 450 200 l 1
 500 200 l 1
 500 250 l 1
 500 300 l 1
 550 300 l 1
 600 300 l 1
 600 400 l 1
 600 500 l 1
 650 500 l 1
 700 500 l 1
 700 550 l 1
 700 600 l 1
 750 600 l 1
 800 600 l 1
 800 650 l 1
 800 700 l 1
 850 700 l 1
 900 700 l 1
 900 750 l 1
 900 800 l 1
 950 800 l 1
 1000 800 l 1
 1000 400 l 1
 1000 0 l 1
 950 0 l 1
 900 0 l 1
 900 300 l 1
 900 600 l 1
 850 600 l 1
 800 600 l 1
 800 550 l 1
 800 500 l 1
 750 500 l 1
 700 500 l 1
 700 400 l 1
 700 300 l 1
 650 300 l 1
 600 300 l 1
 600 250 l 1
 600 200 l 1
 550 200 l 1
 500 200 l 1
 500 150 l 1
 500 100 l 1
 450 100 l 1
 400 100 l 1
 400 50 l 1
 400 0 l 1
 350 0 l 1
 300 0 l 1
 300 400 l 1
500 850 m 1
 500 900 l 1
 550 900 l 1
 600 900 l 1
 600 850 l 1
 600 800 l 1
 650 800 l 1
 700 800 l 1
 700 850 l 1
 700 900 l 1
 750 900 l 1
 800 900 l 1
 800 850 l 1
 800 800 l 1
 750 800 l 1
 700 800 l 1
 700 750 l 1
 700 700 l 1
 650 700 l 1
 600 700 l 1
 600 750 l 1
 600 800 l 1
 550 800 l 1
 500 800 l 1
 500 850 l 1
EndSplineSet
EndChar

StartChar: uni043A
Encoding: 1082 1082 197
Width: 1200
Flags: HW
LayerCount: 2
Back
Fore
SplineSet
300 400 m 1
 300 800 l 1
 350 800 l 1
 400 800 l 1
 400 650 l 1
 400 500 l 1
 500 500 l 1
 600 500 l 1
 600 550 l 1
 600 600 l 1
 650 600 l 1
 700 600 l 1
 700 650 l 1
 700 700 l 1
 750 700 l 1
 800 700 l 1
 800 750 l 1
 800 800 l 1
 850 800 l 1
 900 800 l 1
 900 750 l 1
 900 700 l 1
 850 700 l 1
 800 700 l 1
 800 650 l 1
 800 600 l 1
 750 600 l 1
 700 600 l 1
 700 550 l 1
 700 500 l 1
 650 500 l 1
 600 500 l 1
 600 400 l 1
 600 300 l 1
 650 300 l 1
 700 300 l 1
 700 250 l 1
 700 200 l 1
 750 200 l 1
 800 200 l 1
 800 150 l 1
 800 100 l 1
 850 100 l 1
 900 100 l 1
 900 50 l 1
 900 0 l 1
 850 0 l 1
 800 0 l 1
 800 50 l 1
 800 100 l 1
 750 100 l 1
 700 100 l 1
 700 150 l 1
 700 200 l 1
 650 200 l 1
 600 200 l 1
 600 250 l 1
 600 300 l 1
 550 300 l 1
 500 300 l 1
 500 350 l 1
 500 400 l 1
 450 400 l 1
 400 400 l 1
 400 200 l 1
 400 0 l 1
 350 0 l 1
 300 0 l 1
 300 400 l 1
EndSplineSet
EndChar

StartChar: uni043B
Encoding: 1083 1083 198
Width: 1200
Flags: HW
LayerCount: 2
Back
Fore
SplineSet
400 450 m 1
 400 800 l 1
 700 800 l 1
 1000 800 l 1
 1000 400 l 1
 1000 0 l 1
 950 0 l 1
 900 0 l 1
 900 350 l 1
 900 700 l 1
 700 700 l 1
 500 700 l 1
 500 400 l 1
 500 100 l 1
 450 100 l 1
 400 100 l 1
 400 50 l 1
 400 0 l 1
 350 0 l 1
 300 0 l 1
 300 50 l 1
 300 100 l 1
 350 100 l 1
 400 100 l 1
 400 450 l 1
EndSplineSet
EndChar

StartChar: uni043C
Encoding: 1084 1084 199
Width: 1200
Flags: HW
LayerCount: 2
Back
Fore
SplineSet
200 400 m 1
 200 800 l 1
 250 800 l 1
 300 800 l 1
 300 750 l 1
 300 700 l 1
 350 700 l 1
 400 700 l 1
 400 650 l 1
 400 600 l 1
 450 600 l 1
 500 600 l 1
 500 500 l 1
 500 400 l 1
 550 400 l 1
 600 400 l 1
 600 300 l 1
 600 200 l 1
 650 200 l 1
 700 200 l 1
 700 300 l 1
 700 400 l 1
 750 400 l 1
 800 400 l 1
 800 500 l 1
 800 600 l 1
 850 600 l 1
 900 600 l 1
 900 650 l 1
 900 700 l 1
 950 700 l 1
 1000 700 l 1
 1000 750 l 1
 1000 800 l 1
 1050 800 l 1
 1100 800 l 1
 1100 400 l 1
 1100 0 l 1
 1050 0 l 1
 1000 0 l 1
 1000 300 l 1
 1000 600 l 1
 950 600 l 1
 900 600 l 1
 900 500 l 1
 900 400 l 1
 850 400 l 1
 800 400 l 1
 800 300 l 1
 800 200 l 1
 750 200 l 1
 700 200 l 1
 700 100 l 1
 700 0 l 1
 650 0 l 1
 600 0 l 1
 600 100 l 1
 600 200 l 1
 550 200 l 1
 500 200 l 1
 500 300 l 1
 500 400 l 1
 450 400 l 1
 400 400 l 1
 400 500 l 1
 400 600 l 1
 350 600 l 1
 300 600 l 1
 300 300 l 1
 300 0 l 1
 250 0 l 1
 200 0 l 1
 200 400 l 1
EndSplineSet
EndChar

StartChar: uni043D
Encoding: 1085 1085 200
Width: 1200
Flags: HW
LayerCount: 2
Back
Fore
SplineSet
300 400 m 1
 300 800 l 1
 350 800 l 1
 400 800 l 1
 400 650 l 1
 400 500 l 1
 650 500 l 1
 900 500 l 1
 900 650 l 1
 900 800 l 1
 950 800 l 1
 1000 800 l 1
 1000 400 l 1
 1000 0 l 1
 950 0 l 1
 900 0 l 1
 900 200 l 1
 900 400 l 1
 650 400 l 1
 400 400 l 1
 400 200 l 1
 400 0 l 1
 350 0 l 1
 300 0 l 1
 300 400 l 1
EndSplineSet
EndChar

StartChar: uni043E
Encoding: 1086 1086 201
Width: 1200
Flags: HW
LayerCount: 2
Back
Fore
SplineSet
500 750 m 1
 500 800 l 1
 650 800 l 1
 800 800 l 1
 800 750 l 1
 800 700 l 1
 850 700 l 1
 900 700 l 1
 900 650 l 1
 900 600 l 1
 950 600 l 1
 1000 600 l 1
 1000 400 l 1
 1000 200 l 1
 950 200 l 1
 900 200 l 1
 900 150 l 1
 900 100 l 1
 850 100 l 1
 800 100 l 1
 800 50 l 1
 800 0 l 1
 650 0 l 1
 500 0 l 1
 500 50 l 1
 500 100 l 1
 450 100 l 1
 400 100 l 1
 400 150 l 1
 400 200 l 1
 350 200 l 1
 300 200 l 1
 300 400 l 1
 300 600 l 1
 350 600 l 1
 400 600 l 1
 400 650 l 1
 400 700 l 1
 450 700 l 1
 500 700 l 1
 500 750 l 1
800 650 m 1
 800 700 l 1
 650 700 l 1
 500 700 l 1
 500 650 l 1
 500 600 l 1
 450 600 l 1
 400 600 l 1
 400 400 l 1
 400 200 l 1
 450 200 l 1
 500 200 l 1
 500 150 l 1
 500 100 l 1
 650 100 l 1
 800 100 l 1
 800 150 l 1
 800 200 l 1
 850 200 l 1
 900 200 l 1
 900 400 l 1
 900 600 l 1
 850 600 l 1
 800 600 l 1
 800 650 l 1
EndSplineSet
EndChar

StartChar: uni043F
Encoding: 1087 1087 202
Width: 1200
Flags: HW
LayerCount: 2
Back
Fore
SplineSet
300 400 m 1
 300 800 l 1
 650 800 l 1
 1000 800 l 1
 1000 400 l 1
 1000 0 l 1
 950 0 l 1
 900 0 l 1
 900 350 l 1
 900 700 l 1
 650 700 l 1
 400 700 l 1
 400 350 l 1
 400 0 l 1
 350 0 l 1
 300 0 l 1
 300 400 l 1
EndSplineSet
EndChar

StartChar: uni0440
Encoding: 1088 1088 203
Width: 1200
Flags: HW
LayerCount: 2
Back
Fore
SplineSet
300 350 m 1
 300 800 l 1
 350 800 l 1
 400 800 l 1
 400 750 l 1
 400 700 l 1
 450 700 l 1
 500 700 l 1
 500 750 l 1
 500 800 l 1
 650 800 l 1
 800 800 l 1
 800 750 l 1
 800 700 l 1
 850 700 l 1
 900 700 l 1
 900 650 l 1
 900 600 l 1
 950 600 l 1
 1000 600 l 1
 1000 400 l 1
 1000 200 l 1
 950 200 l 1
 900 200 l 1
 900 150 l 1
 900 100 l 1
 850 100 l 1
 800 100 l 1
 800 50 l 1
 800 0 l 1
 650 0 l 1
 500 0 l 1
 500 50 l 1
 500 100 l 1
 450 100 l 1
 400 100 l 1
 400 0 l 1
 400 -100 l 1
 350 -100 l 1
 300 -100 l 1
 300 350 l 1
800 650 m 1
 800 700 l 1
 650 700 l 1
 500 700 l 1
 500 650 l 1
 500 600 l 1
 450 600 l 1
 400 600 l 1
 400 400 l 1
 400 200 l 1
 450 200 l 1
 500 200 l 1
 500 150 l 1
 500 100 l 1
 650 100 l 1
 800 100 l 1
 800 150 l 1
 800 200 l 1
 850 200 l 1
 900 200 l 1
 900 400 l 1
 900 600 l 1
 850 600 l 1
 800 600 l 1
 800 650 l 1
EndSplineSet
EndChar

StartChar: uni0441
Encoding: 1089 1089 204
Width: 1200
Flags: HW
LayerCount: 2
Back
Fore
SplineSet
500 750 m 1
 500 800 l 1
 700 800 l 1
 900 800 l 1
 900 750 l 1
 900 700 l 1
 950 700 l 1
 1000 700 l 1
 1000 650 l 1
 1000 600 l 1
 950 600 l 1
 900 600 l 1
 900 650 l 1
 900 700 l 1
 700 700 l 1
 500 700 l 1
 500 650 l 1
 500 600 l 1
 450 600 l 1
 400 600 l 1
 400 400 l 1
 400 200 l 1
 450 200 l 1
 500 200 l 1
 500 150 l 1
 500 100 l 1
 700 100 l 1
 900 100 l 1
 900 150 l 1
 900 200 l 1
 950 200 l 1
 1000 200 l 1
 1000 150 l 1
 1000 100 l 1
 950 100 l 1
 900 100 l 1
 900 50 l 1
 900 0 l 1
 700 0 l 1
 500 0 l 1
 500 50 l 1
 500 100 l 1
 450 100 l 1
 400 100 l 1
 400 150 l 1
 400 200 l 1
 350 200 l 1
 300 200 l 1
 300 400 l 1
 300 600 l 1
 350 600 l 1
 400 600 l 1
 400 650 l 1
 400 700 l 1
 450 700 l 1
 500 700 l 1
 500 750 l 1
EndSplineSet
EndChar

StartChar: uni0442
Encoding: 1090 1090 205
Width: 1200
Flags: HW
LayerCount: 2
Back
Fore
SplineSet
300 750 m 1
 300 800 l 1
 650 800 l 1
 1000 800 l 1
 1000 750 l 1
 1000 700 l 1
 850 700 l 1
 700 700 l 1
 700 350 l 1
 700 0 l 1
 650 0 l 1
 600 0 l 1
 600 350 l 1
 600 700 l 1
 450 700 l 1
 300 700 l 1
 300 750 l 1
EndSplineSet
EndChar

StartChar: uni0443
Encoding: 1091 1091 206
Width: 1200
Flags: HW
LayerCount: 2
Back
Fore
SplineSet
300 700 m 1
 300 800 l 1
 350 800 l 1
 400 800 l 1
 400 700 l 1
 400 600 l 1
 450 600 l 1
 500 600 l 1
 500 500 l 1
 500 400 l 1
 550 400 l 1
 600 400 l 1
 600 300 l 1
 600 200 l 1
 650 200 l 1
 700 200 l 1
 700 300 l 1
 700 400 l 1
 750 400 l 1
 800 400 l 1
 800 500 l 1
 800 600 l 1
 850 600 l 1
 900 600 l 1
 900 700 l 1
 900 800 l 1
 950 800 l 1
 1000 800 l 1
 1000 700 l 1
 1000 600 l 1
 950 600 l 1
 900 600 l 1
 900 500 l 1
 900 400 l 1
 850 400 l 1
 800 400 l 1
 800 300 l 1
 800 200 l 1
 750 200 l 1
 700 200 l 1
 700 100 l 1
 700 0 l 1
 650 0 l 1
 600 0 l 1
 600 -50 l 1
 600 -100 l 1
 500 -100 l 1
 400 -100 l 1
 400 -50 l 1
 400 0 l 1
 500 0 l 1
 600 0 l 1
 600 100 l 1
 600 200 l 1
 550 200 l 1
 500 200 l 1
 500 300 l 1
 500 400 l 1
 450 400 l 1
 400 400 l 1
 400 500 l 1
 400 600 l 1
 350 600 l 1
 300 600 l 1
 300 700 l 1
EndSplineSet
EndChar

StartChar: uni0444
Encoding: 1092 1092 207
Width: 1200
Flags: HW
LayerCount: 2
Back
Fore
SplineSet
600 850 m 1
 600 1000 l 1
 650 1000 l 1
 700 1000 l 1
 700 850 l 1
 700 700 l 1
 750 700 l 1
 800 700 l 1
 800 750 l 1
 800 800 l 1
 900 800 l 1
 1000 800 l 1
 1000 750 l 1
 1000 700 l 1
 1050 700 l 1
 1100 700 l 1
 1100 650 l 1
 1100 600 l 1
 1150 600 l 1
 1200 600 l 1
 1200 400 l 1
 1200 200 l 1
 1150 200 l 1
 1100 200 l 1
 1100 150 l 1
 1100 100 l 1
 1050 100 l 1
 1000 100 l 1
 1000 50 l 1
 1000 0 l 1
 900 0 l 1
 800 0 l 1
 800 50 l 1
 800 100 l 1
 750 100 l 1
 700 100 l 1
 700 0 l 1
 700 -100 l 1
 650 -100 l 1
 600 -100 l 1
 600 0 l 1
 600 100 l 1
 550 100 l 1
 500 100 l 1
 500 50 l 1
 500 0 l 1
 400 0 l 1
 300 0 l 1
 300 50 l 1
 300 100 l 1
 250 100 l 1
 200 100 l 1
 200 150 l 1
 200 200 l 1
 150 200 l 1
 100 200 l 1
 100 400 l 1
 100 600 l 1
 150 600 l 1
 200 600 l 1
 200 650 l 1
 200 700 l 1
 250 700 l 1
 300 700 l 1
 300 750 l 1
 300 800 l 1
 400 800 l 1
 500 800 l 1
 500 750 l 1
 500 700 l 1
 550 700 l 1
 600 700 l 1
 600 850 l 1
500 650 m 1
 500 700 l 1
 400 700 l 1
 300 700 l 1
 300 650 l 1
 300 600 l 1
 250 600 l 1
 200 600 l 1
 200 400 l 1
 200 200 l 1
 250 200 l 1
 300 200 l 1
 300 150 l 1
 300 100 l 1
 400 100 l 1
 500 100 l 1
 500 150 l 1
 500 200 l 1
 550 200 l 1
 600 200 l 1
 600 400 l 1
 600 600 l 1
 550 600 l 1
 500 600 l 1
 500 650 l 1
1000 650 m 1
 1000 700 l 1
 900 700 l 1
 800 700 l 1
 800 650 l 1
 800 600 l 1
 750 600 l 1
 700 600 l 1
 700 400 l 1
 700 200 l 1
 750 200 l 1
 800 200 l 1
 800 150 l 1
 800 100 l 1
 900 100 l 1
 1000 100 l 1
 1000 150 l 1
 1000 200 l 1
 1050 200 l 1
 1100 200 l 1
 1100 400 l 1
 1100 600 l 1
 1050 600 l 1
 1000 600 l 1
 1000 650 l 1
EndSplineSet
EndChar

StartChar: uni0445
Encoding: 1093 1093 208
Width: 1200
Flags: HW
LayerCount: 2
Back
Fore
SplineSet
300 750 m 1
 300 800 l 1
 350 800 l 1
 400 800 l 1
 400 750 l 1
 400 700 l 1
 450 700 l 1
 500 700 l 1
 500 650 l 1
 500 600 l 1
 550 600 l 1
 600 600 l 1
 600 550 l 1
 600 500 l 1
 650 500 l 1
 700 500 l 1
 700 550 l 1
 700 600 l 1
 750 600 l 1
 800 600 l 1
 800 650 l 1
 800 700 l 1
 850 700 l 1
 900 700 l 1
 900 750 l 1
 900 800 l 1
 950 800 l 1
 1000 800 l 1
 1000 750 l 1
 1000 700 l 1
 950 700 l 1
 900 700 l 1
 900 650 l 1
 900 600 l 1
 850 600 l 1
 800 600 l 1
 800 550 l 1
 800 500 l 1
 750 500 l 1
 700 500 l 1
 700 450 l 1
 700 400 l 1
 750 400 l 1
 800 400 l 1
 800 350 l 1
 800 300 l 1
 850 300 l 1
 900 300 l 1
 900 200 l 1
 900 100 l 1
 950 100 l 1
 1000 100 l 1
 1000 50 l 1
 1000 0 l 1
 950 0 l 1
 900 0 l 1
 900 50 l 1
 900 100 l 1
 850 100 l 1
 800 100 l 1
 800 200 l 1
 800 300 l 1
 750 300 l 1
 700 300 l 1
 700 350 l 1
 700 400 l 1
 650 400 l 1
 600 400 l 1
 600 350 l 1
 600 300 l 1
 550 300 l 1
 500 300 l 1
 500 200 l 1
 500 100 l 1
 450 100 l 1
 400 100 l 1
 400 50 l 1
 400 0 l 1
 350 0 l 1
 300 0 l 1
 300 50 l 1
 300 100 l 1
 350 100 l 1
 400 100 l 1
 400 200 l 1
 400 300 l 1
 450 300 l 1
 500 300 l 1
 500 350 l 1
 500 400 l 1
 550 400 l 1
 600 400 l 1
 600 450 l 1
 600 500 l 1
 550 500 l 1
 500 500 l 1
 500 550 l 1
 500 600 l 1
 450 600 l 1
 400 600 l 1
 400 650 l 1
 400 700 l 1
 350 700 l 1
 300 700 l 1
 300 750 l 1
EndSplineSet
EndChar

StartChar: uni0446
Encoding: 1094 1094 209
Width: 1200
Flags: HW
LayerCount: 2
Back
Fore
SplineSet
200 400 m 1
 200 800 l 1
 250 800 l 1
 300 800 l 1
 300 450 l 1
 300 100 l 1
 550 100 l 1
 800 100 l 1
 800 450 l 1
 800 800 l 1
 850 800 l 1
 900 800 l 1
 900 450 l 1
 900 100 l 1
 950 100 l 1
 1000 100 l 1
 1000 0 l 1
 1000 -100 l 1
 950 -100 l 1
 900 -100 l 1
 900 -50 l 1
 900 0 l 1
 550 0 l 1
 200 0 l 1
 200 400 l 1
EndSplineSet
EndChar

StartChar: uni0447
Encoding: 1095 1095 210
Width: 1200
Flags: HW
LayerCount: 2
Back
Fore
SplineSet
300 550 m 1
 300 800 l 1
 350 800 l 1
 400 800 l 1
 400 550 l 1
 400 300 l 1
 600 300 l 1
 800 300 l 1
 800 350 l 1
 800 400 l 1
 850 400 l 1
 900 400 l 1
 900 600 l 1
 900 800 l 1
 950 800 l 1
 1000 800 l 1
 1000 400 l 1
 1000 0 l 1
 950 0 l 1
 900 0 l 1
 900 150 l 1
 900 300 l 1
 850 300 l 1
 800 300 l 1
 800 250 l 1
 800 200 l 1
 600 200 l 1
 400 200 l 1
 400 250 l 1
 400 300 l 1
 350 300 l 1
 300 300 l 1
 300 550 l 1
EndSplineSet
EndChar

StartChar: uni0448
Encoding: 1096 1096 211
Width: 1200
Flags: HW
LayerCount: 2
Back
Fore
SplineSet
200 400 m 1
 200 800 l 1
 250 800 l 1
 300 800 l 1
 300 450 l 1
 300 100 l 1
 450 100 l 1
 600 100 l 1
 600 450 l 1
 600 800 l 1
 650 800 l 1
 700 800 l 1
 700 450 l 1
 700 100 l 1
 850 100 l 1
 1000 100 l 1
 1000 450 l 1
 1000 800 l 1
 1050 800 l 1
 1100 800 l 1
 1100 400 l 1
 1100 0 l 1
 650 0 l 1
 200 0 l 1
 200 400 l 1
EndSplineSet
EndChar

StartChar: uni0449
Encoding: 1097 1097 212
Width: 1200
Flags: HW
LayerCount: 2
Back
Fore
SplineSet
100 400 m 1
 100 800 l 1
 150 800 l 1
 200 800 l 1
 200 450 l 1
 200 100 l 1
 350 100 l 1
 500 100 l 1
 500 450 l 1
 500 800 l 1
 550 800 l 1
 600 800 l 1
 600 450 l 1
 600 100 l 1
 750 100 l 1
 900 100 l 1
 900 450 l 1
 900 800 l 1
 950 800 l 1
 1000 800 l 1
 1000 450 l 1
 1000 100 l 1
 1050 100 l 1
 1100 100 l 1
 1100 0 l 1
 1100 -100 l 1
 1050 -100 l 1
 1000 -100 l 1
 1000 -50 l 1
 1000 0 l 1
 550 0 l 1
 100 0 l 1
 100 400 l 1
EndSplineSet
EndChar

StartChar: uni044A
Encoding: 1098 1098 213
Width: 1200
Flags: HW
LayerCount: 2
Back
Fore
SplineSet
200 750 m 1
 200 800 l 1
 400 800 l 1
 600 800 l 1
 600 650 l 1
 600 500 l 1
 800 500 l 1
 1000 500 l 1
 1000 450 l 1
 1000 400 l 1
 1050 400 l 1
 1100 400 l 1
 1100 250 l 1
 1100 100 l 1
 1050 100 l 1
 1000 100 l 1
 1000 50 l 1
 1000 0 l 1
 750 0 l 1
 500 0 l 1
 500 350 l 1
 500 700 l 1
 350 700 l 1
 200 700 l 1
 200 750 l 1
1000 250 m 1
 1000 400 l 1
 800 400 l 1
 600 400 l 1
 600 250 l 1
 600 100 l 1
 800 100 l 1
 1000 100 l 1
 1000 250 l 1
EndSplineSet
EndChar

StartChar: uni044B
Encoding: 1099 1099 214
Width: 1200
Flags: HW
LayerCount: 2
Back
Fore
SplineSet
900 400 m 1
 900 800 l 1
 950 800 l 1
 1000 800 l 1
 1000 400 l 1
 1000 0 l 1
 950 0 l 1
 900 0 l 1
 900 400 l 1
200 400 m 1
 200 800 l 1
 250 800 l 1
 300 800 l 1
 300 650 l 1
 300 500 l 1
 500 500 l 1
 700 500 l 1
 700 450 l 1
 700 400 l 1
 750 400 l 1
 800 400 l 1
 800 250 l 1
 800 100 l 1
 750 100 l 1
 700 100 l 1
 700 50 l 1
 700 0 l 1
 450 0 l 1
 200 0 l 1
 200 400 l 1
700 250 m 1
 700 400 l 1
 500 400 l 1
 300 400 l 1
 300 250 l 1
 300 100 l 1
 500 100 l 1
 700 100 l 1
 700 250 l 1
EndSplineSet
EndChar

StartChar: uni044C
Encoding: 1100 1100 215
Width: 1200
Flags: HW
LayerCount: 2
Back
Fore
SplineSet
300 400 m 1
 300 800 l 1
 350 800 l 1
 400 800 l 1
 400 650 l 1
 400 500 l 1
 650 500 l 1
 900 500 l 1
 900 450 l 1
 900 400 l 1
 950 400 l 1
 1000 400 l 1
 1000 250 l 1
 1000 100 l 1
 950 100 l 1
 900 100 l 1
 900 50 l 1
 900 0 l 1
 600 0 l 1
 300 0 l 1
 300 400 l 1
900 250 m 1
 900 400 l 1
 650 400 l 1
 400 400 l 1
 400 250 l 1
 400 100 l 1
 650 100 l 1
 900 100 l 1
 900 250 l 1
EndSplineSet
EndChar

StartChar: uni044D
Encoding: 1101 1101 216
Width: 1200
Flags: HW
LayerCount: 2
Back
Fore
SplineSet
400 750 m 1
 400 800 l 1
 600 800 l 1
 800 800 l 1
 800 750 l 1
 800 700 l 1
 850 700 l 1
 900 700 l 1
 900 650 l 1
 900 600 l 1
 950 600 l 1
 1000 600 l 1
 1000 400 l 1
 1000 200 l 1
 950 200 l 1
 900 200 l 1
 900 150 l 1
 900 100 l 1
 850 100 l 1
 800 100 l 1
 800 50 l 1
 800 0 l 1
 600 0 l 1
 400 0 l 1
 400 50 l 1
 400 100 l 1
 350 100 l 1
 300 100 l 1
 300 150 l 1
 300 200 l 1
 350 200 l 1
 400 200 l 1
 400 150 l 1
 400 100 l 1
 600 100 l 1
 800 100 l 1
 800 150 l 1
 800 200 l 1
 850 200 l 1
 900 200 l 1
 900 300 l 1
 900 400 l 1
 700 400 l 1
 500 400 l 1
 500 450 l 1
 500 500 l 1
 700 500 l 1
 900 500 l 1
 900 550 l 1
 900 600 l 1
 850 600 l 1
 800 600 l 1
 800 650 l 1
 800 700 l 1
 600 700 l 1
 400 700 l 1
 400 650 l 1
 400 600 l 1
 350 600 l 1
 300 600 l 1
 300 650 l 1
 300 700 l 1
 350 700 l 1
 400 700 l 1
 400 750 l 1
EndSplineSet
EndChar

StartChar: uni044E
Encoding: 1102 1102 217
Width: 1200
Flags: HW
LayerCount: 2
Back
Fore
SplineSet
200 400 m 1
 200 800 l 1
 250 800 l 1
 300 800 l 1
 300 600 l 1
 300 400 l 1
 350 400 l 1
 400 400 l 1
 400 500 l 1
 400 600 l 1
 450 600 l 1
 500 600 l 1
 500 650 l 1
 500 700 l 1
 550 700 l 1
 600 700 l 1
 600 750 l 1
 600 800 l 1
 750 800 l 1
 900 800 l 1
 900 750 l 1
 900 700 l 1
 950 700 l 1
 1000 700 l 1
 1000 650 l 1
 1000 600 l 1
 1050 600 l 1
 1100 600 l 1
 1100 400 l 1
 1100 200 l 1
 1050 200 l 1
 1000 200 l 1
 1000 150 l 1
 1000 100 l 1
 950 100 l 1
 900 100 l 1
 900 50 l 1
 900 0 l 1
 750 0 l 1
 600 0 l 1
 600 50 l 1
 600 100 l 1
 550 100 l 1
 500 100 l 1
 500 150 l 1
 500 200 l 1
 450 200 l 1
 400 200 l 1
 400 250 l 1
 400 300 l 1
 350 300 l 1
 300 300 l 1
 300 150 l 1
 300 0 l 1
 250 0 l 1
 200 0 l 1
 200 400 l 1
900 650 m 1
 900 700 l 1
 750 700 l 1
 600 700 l 1
 600 650 l 1
 600 600 l 1
 550 600 l 1
 500 600 l 1
 500 400 l 1
 500 200 l 1
 550 200 l 1
 600 200 l 1
 600 150 l 1
 600 100 l 1
 750 100 l 1
 900 100 l 1
 900 150 l 1
 900 200 l 1
 950 200 l 1
 1000 200 l 1
 1000 400 l 1
 1000 600 l 1
 950 600 l 1
 900 600 l 1
 900 650 l 1
EndSplineSet
EndChar

StartChar: uni044F
Encoding: 1103 1103 218
Width: 1200
Flags: HW
LayerCount: 2
Back
Fore
SplineSet
400 750 m 1
 400 800 l 1
 700 800 l 1
 1000 800 l 1
 1000 400 l 1
 1000 0 l 1
 950 0 l 1
 900 0 l 1
 900 150 l 1
 900 300 l 1
 700 300 l 1
 500 300 l 1
 500 250 l 1
 500 200 l 1
 450 200 l 1
 400 200 l 1
 400 100 l 1
 400 0 l 1
 350 0 l 1
 300 0 l 1
 300 100 l 1
 300 200 l 1
 350 200 l 1
 400 200 l 1
 400 300 l 1
 400 400 l 1
 350 400 l 1
 300 400 l 1
 300 550 l 1
 300 700 l 1
 350 700 l 1
 400 700 l 1
 400 750 l 1
900 550 m 1
 900 700 l 1
 650 700 l 1
 400 700 l 1
 400 550 l 1
 400 400 l 1
 650 400 l 1
 900 400 l 1
 900 550 l 1
EndSplineSet
EndChar

StartChar: uni0451
Encoding: 1105 1105 219
Width: 1200
Flags: HW
LayerCount: 2
Back
Fore
SplineSet
400 750 m 1
 400 800 l 1
 650 800 l 1
 900 800 l 1
 900 750 l 1
 900 700 l 1
 950 700 l 1
 1000 700 l 1
 1000 550 l 1
 1000 400 l 1
 700 400 l 1
 400 400 l 1
 400 250 l 1
 400 100 l 1
 650 100 l 1
 900 100 l 1
 900 150 l 1
 900 200 l 1
 950 200 l 1
 1000 200 l 1
 1000 150 l 1
 1000 100 l 1
 950 100 l 1
 900 100 l 1
 900 50 l 1
 900 0 l 1
 650 0 l 1
 400 0 l 1
 400 50 l 1
 400 100 l 1
 350 100 l 1
 300 100 l 1
 300 400 l 1
 300 700 l 1
 350 700 l 1
 400 700 l 1
 400 750 l 1
900 600 m 1
 900 700 l 1
 650 700 l 1
 400 700 l 1
 400 600 l 1
 400 500 l 1
 650 500 l 1
 900 500 l 1
 900 600 l 1
700 950 m 1
 700 1000 l 1
 750 1000 l 1
 800 1000 l 1
 800 950 l 1
 800 900 l 1
 750 900 l 1
 700 900 l 1
 700 950 l 1
500 950 m 1
 500 1000 l 1
 550 1000 l 1
 600 1000 l 1
 600 950 l 1
 600 900 l 1
 550 900 l 1
 500 900 l 1
 500 950 l 1
EndSplineSet
EndChar

StartChar: uni2010
Encoding: 8208 8208 220
Width: 1200
Flags: HW
LayerCount: 2
Back
Fore
SplineSet
400 450 m 1
 400 500 l 1
 650 500 l 1
 900 500 l 1
 900 450 l 1
 900 400 l 1
 650 400 l 1
 400 400 l 1
 400 450 l 1
EndSplineSet
EndChar

StartChar: uni2016
Encoding: 8214 8214 221
Width: 1200
Flags: HW
LayerCount: 2
Back
Fore
SplineSet
700 450 m 1
 700 1000 l 1
 750 1000 l 1
 800 1000 l 1
 800 450 l 1
 800 -100 l 1
 750 -100 l 1
 700 -100 l 1
 700 450 l 1
400 450 m 1
 400 1000 l 1
 450 1000 l 1
 500 1000 l 1
 500 450 l 1
 500 -100 l 1
 450 -100 l 1
 400 -100 l 1
 400 450 l 1
EndSplineSet
EndChar

StartChar: quoteleft
Encoding: 8216 8216 222
Width: 1200
Flags: HW
LayerCount: 2
Back
Fore
SplineSet
1100 950 m 1
 1100 1000 l 1
 1150 1000 l 1
 1200 1000 l 1
 1200 950 l 1
 1200 900 l 1
 1150 900 l 1
 1100 900 l 1
 1100 850 l 1
 1100 800 l 1
 1150 800 l 1
 1200 800 l 1
 1200 700 l 1
 1200 600 l 1
 1100 600 l 1
 1000 600 l 1
 1000 750 l 1
 1000 900 l 1
 1050 900 l 1
 1100 900 l 1
 1100 950 l 1
EndSplineSet
EndChar

StartChar: quoteright
Encoding: 8217 8217 223
Width: 1200
Flags: HW
LayerCount: 2
Back
Fore
SplineSet
100 900 m 1
 100 1000 l 1
 200 1000 l 1
 300 1000 l 1
 300 850 l 1
 300 700 l 1
 250 700 l 1
 200 700 l 1
 200 650 l 1
 200 600 l 1
 150 600 l 1
 100 600 l 1
 100 650 l 1
 100 700 l 1
 150 700 l 1
 200 700 l 1
 200 750 l 1
 200 800 l 1
 150 800 l 1
 100 800 l 1
 100 900 l 1
EndSplineSet
EndChar

StartChar: quotedblleft
Encoding: 8220 8220 224
Width: 1200
Flags: HW
LayerCount: 2
Back
Fore
SplineSet
1100 950 m 1
 1100 1000 l 1
 1150 1000 l 1
 1200 1000 l 1
 1200 950 l 1
 1200 900 l 1
 1150 900 l 1
 1100 900 l 1
 1100 850 l 1
 1100 800 l 1
 1150 800 l 1
 1200 800 l 1
 1200 700 l 1
 1200 600 l 1
 1100 600 l 1
 1000 600 l 1
 1000 750 l 1
 1000 900 l 1
 1050 900 l 1
 1100 900 l 1
 1100 950 l 1
800 950 m 1
 800 1000 l 1
 850 1000 l 1
 900 1000 l 1
 900 950 l 1
 900 900 l 1
 850 900 l 1
 800 900 l 1
 800 850 l 1
 800 800 l 1
 850 800 l 1
 900 800 l 1
 900 700 l 1
 900 600 l 1
 800 600 l 1
 700 600 l 1
 700 750 l 1
 700 900 l 1
 750 900 l 1
 800 900 l 1
 800 950 l 1
EndSplineSet
EndChar

StartChar: quotedblright
Encoding: 8221 8221 225
Width: 1200
Flags: HW
LayerCount: 2
Back
Fore
SplineSet
400 900 m 1
 400 1000 l 1
 500 1000 l 1
 600 1000 l 1
 600 850 l 1
 600 700 l 1
 550 700 l 1
 500 700 l 1
 500 650 l 1
 500 600 l 1
 450 600 l 1
 400 600 l 1
 400 650 l 1
 400 700 l 1
 450 700 l 1
 500 700 l 1
 500 750 l 1
 500 800 l 1
 450 800 l 1
 400 800 l 1
 400 900 l 1
100 900 m 1
 100 1000 l 1
 200 1000 l 1
 300 1000 l 1
 300 850 l 1
 300 700 l 1
 250 700 l 1
 200 700 l 1
 200 650 l 1
 200 600 l 1
 150 600 l 1
 100 600 l 1
 100 650 l 1
 100 700 l 1
 150 700 l 1
 200 700 l 1
 200 750 l 1
 200 800 l 1
 150 800 l 1
 100 800 l 1
 100 900 l 1
EndSplineSet
EndChar

StartChar: dagger
Encoding: 8224 8224 226
Width: 1200
Flags: HW
LayerCount: 2
Back
Fore
SplineSet
600 900 m 1
 600 1000 l 1
 650 1000 l 1
 700 1000 l 1
 700 900 l 1
 700 800 l 1
 750 800 l 1
 800 800 l 1
 800 850 l 1
 800 900 l 1
 850 900 l 1
 900 900 l 1
 900 850 l 1
 900 800 l 1
 950 800 l 1
 1000 800 l 1
 1000 750 l 1
 1000 700 l 1
 950 700 l 1
 900 700 l 1
 900 650 l 1
 900 600 l 1
 850 600 l 1
 800 600 l 1
 800 650 l 1
 800 700 l 1
 750 700 l 1
 700 700 l 1
 700 600 l 1
 700 500 l 1
 750 500 l 1
 800 500 l 1
 800 450 l 1
 800 400 l 1
 750 400 l 1
 700 400 l 1
 700 150 l 1
 700 -100 l 1
 650 -100 l 1
 600 -100 l 1
 600 150 l 1
 600 400 l 1
 550 400 l 1
 500 400 l 1
 500 450 l 1
 500 500 l 1
 550 500 l 1
 600 500 l 1
 600 600 l 1
 600 700 l 1
 550 700 l 1
 500 700 l 1
 500 650 l 1
 500 600 l 1
 450 600 l 1
 400 600 l 1
 400 650 l 1
 400 700 l 1
 350 700 l 1
 300 700 l 1
 300 750 l 1
 300 800 l 1
 350 800 l 1
 400 800 l 1
 400 850 l 1
 400 900 l 1
 450 900 l 1
 500 900 l 1
 500 850 l 1
 500 800 l 1
 550 800 l 1
 600 800 l 1
 600 900 l 1
EndSplineSet
EndChar

StartChar: daggerdbl
Encoding: 8225 8225 227
Width: 1200
Flags: HW
LayerCount: 2
Back
Fore
SplineSet
600 900 m 1
 600 1000 l 1
 650 1000 l 1
 700 1000 l 1
 700 900 l 1
 700 800 l 1
 750 800 l 1
 800 800 l 1
 800 850 l 1
 800 900 l 1
 850 900 l 1
 900 900 l 1
 900 850 l 1
 900 800 l 1
 950 800 l 1
 1000 800 l 1
 1000 750 l 1
 1000 700 l 1
 950 700 l 1
 900 700 l 1
 900 650 l 1
 900 600 l 1
 850 600 l 1
 800 600 l 1
 800 550 l 1
 800 500 l 1
 750 500 l 1
 700 500 l 1
 700 450 l 1
 700 400 l 1
 750 400 l 1
 800 400 l 1
 800 350 l 1
 800 300 l 1
 850 300 l 1
 900 300 l 1
 900 250 l 1
 900 200 l 1
 950 200 l 1
 1000 200 l 1
 1000 150 l 1
 1000 100 l 1
 950 100 l 1
 900 100 l 1
 900 50 l 1
 900 0 l 1
 850 0 l 1
 800 0 l 1
 800 50 l 1
 800 100 l 1
 750 100 l 1
 700 100 l 1
 700 0 l 1
 700 -100 l 1
 650 -100 l 1
 600 -100 l 1
 600 0 l 1
 600 100 l 1
 550 100 l 1
 500 100 l 1
 500 50 l 1
 500 0 l 1
 450 0 l 1
 400 0 l 1
 400 50 l 1
 400 100 l 1
 350 100 l 1
 300 100 l 1
 300 150 l 1
 300 200 l 1
 350 200 l 1
 400 200 l 1
 400 250 l 1
 400 300 l 1
 450 300 l 1
 500 300 l 1
 500 350 l 1
 500 400 l 1
 550 400 l 1
 600 400 l 1
 600 450 l 1
 600 500 l 1
 550 500 l 1
 500 500 l 1
 500 550 l 1
 500 600 l 1
 450 600 l 1
 400 600 l 1
 400 650 l 1
 400 700 l 1
 350 700 l 1
 300 700 l 1
 300 750 l 1
 300 800 l 1
 350 800 l 1
 400 800 l 1
 400 850 l 1
 400 900 l 1
 450 900 l 1
 500 900 l 1
 500 850 l 1
 500 800 l 1
 550 800 l 1
 600 800 l 1
 600 900 l 1
600 650 m 1
 600 700 l 1
 550 700 l 1
 500 700 l 1
 500 650 l 1
 500 600 l 1
 550 600 l 1
 600 600 l 1
 600 650 l 1
800 650 m 1
 800 700 l 1
 750 700 l 1
 700 700 l 1
 700 650 l 1
 700 600 l 1
 750 600 l 1
 800 600 l 1
 800 650 l 1
600 250 m 1
 600 300 l 1
 550 300 l 1
 500 300 l 1
 500 250 l 1
 500 200 l 1
 550 200 l 1
 600 200 l 1
 600 250 l 1
800 250 m 1
 800 300 l 1
 750 300 l 1
 700 300 l 1
 700 250 l 1
 700 200 l 1
 750 200 l 1
 800 200 l 1
 800 250 l 1
EndSplineSet
EndChar

StartChar: twodotenleader
Encoding: 8229 8229 228
Width: 1200
Flags: HW
LayerCount: 2
Back
Fore
SplineSet
800 500 m 1
 800 600 l 1
 900 600 l 1
 1000 600 l 1
 1000 500 l 1
 1000 400 l 1
 900 400 l 1
 800 400 l 1
 800 500 l 1
300 500 m 1
 300 600 l 1
 400 600 l 1
 500 600 l 1
 500 500 l 1
 500 400 l 1
 400 400 l 1
 300 400 l 1
 300 500 l 1
EndSplineSet
EndChar

StartChar: ellipsis
Encoding: 8230 8230 229
Width: 1200
Flags: HW
LayerCount: 2
Back
Fore
SplineSet
900 500 m 1
 900 600 l 1
 1000 600 l 1
 1100 600 l 1
 1100 500 l 1
 1100 400 l 1
 1000 400 l 1
 900 400 l 1
 900 500 l 1
500 500 m 1
 500 600 l 1
 600 600 l 1
 700 600 l 1
 700 500 l 1
 700 400 l 1
 600 400 l 1
 500 400 l 1
 500 500 l 1
100 500 m 1
 100 600 l 1
 200 600 l 1
 300 600 l 1
 300 500 l 1
 300 400 l 1
 200 400 l 1
 100 400 l 1
 100 500 l 1
EndSplineSet
EndChar

StartChar: perthousand
Encoding: 8240 8240 230
Width: 1200
Flags: HW
LayerCount: 2
Back
Fore
SplineSet
1000 450 m 1
 1000 500 l 1
 1050 500 l 1
 1100 500 l 1
 1100 450 l 1
 1100 400 l 1
 1150 400 l 1
 1200 400 l 1
 1200 250 l 1
 1200 100 l 1
 1150 100 l 1
 1100 100 l 1
 1100 50 l 1
 1100 0 l 1
 1050 0 l 1
 1000 0 l 1
 1000 50 l 1
 1000 100 l 1
 950 100 l 1
 900 100 l 1
 900 250 l 1
 900 400 l 1
 950 400 l 1
 1000 400 l 1
 1000 450 l 1
1100 250 m 1
 1100 400 l 1
 1050 400 l 1
 1000 400 l 1
 1000 250 l 1
 1000 100 l 1
 1050 100 l 1
 1100 100 l 1
 1100 250 l 1
200 950 m 1
 200 1000 l 1
 250 1000 l 1
 300 1000 l 1
 300 950 l 1
 300 900 l 1
 350 900 l 1
 400 900 l 1
 400 750 l 1
 400 600 l 1
 450 600 l 1
 500 600 l 1
 500 700 l 1
 500 800 l 1
 550 800 l 1
 600 800 l 1
 600 900 l 1
 600 1000 l 1
 650 1000 l 1
 700 1000 l 1
 700 900 l 1
 700 800 l 1
 650 800 l 1
 600 800 l 1
 600 700 l 1
 600 600 l 1
 550 600 l 1
 500 600 l 1
 500 500 l 1
 500 400 l 1
 550 400 l 1
 600 400 l 1
 600 450 l 1
 600 500 l 1
 650 500 l 1
 700 500 l 1
 700 450 l 1
 700 400 l 1
 750 400 l 1
 800 400 l 1
 800 250 l 1
 800 100 l 1
 750 100 l 1
 700 100 l 1
 700 50 l 1
 700 0 l 1
 650 0 l 1
 600 0 l 1
 600 50 l 1
 600 100 l 1
 550 100 l 1
 500 100 l 1
 500 250 l 1
 500 400 l 1
 450 400 l 1
 400 400 l 1
 400 300 l 1
 400 200 l 1
 350 200 l 1
 300 200 l 1
 300 100 l 1
 300 0 l 1
 250 0 l 1
 200 0 l 1
 200 100 l 1
 200 200 l 1
 250 200 l 1
 300 200 l 1
 300 300 l 1
 300 400 l 1
 350 400 l 1
 400 400 l 1
 400 500 l 1
 400 600 l 1
 350 600 l 1
 300 600 l 1
 300 550 l 1
 300 500 l 1
 250 500 l 1
 200 500 l 1
 200 550 l 1
 200 600 l 1
 150 600 l 1
 100 600 l 1
 100 750 l 1
 100 900 l 1
 150 900 l 1
 200 900 l 1
 200 950 l 1
300 750 m 1
 300 900 l 1
 250 900 l 1
 200 900 l 1
 200 750 l 1
 200 600 l 1
 250 600 l 1
 300 600 l 1
 300 750 l 1
700 250 m 1
 700 400 l 1
 650 400 l 1
 600 400 l 1
 600 250 l 1
 600 100 l 1
 650 100 l 1
 700 100 l 1
 700 250 l 1
EndSplineSet
EndChar

StartChar: minute
Encoding: 8242 8242 231
Width: 1200
Flags: HW
LayerCount: 2
Back
Fore
SplineSet
300 950 m 1
 300 1000 l 1
 350 1000 l 1
 400 1000 l 1
 400 950 l 1
 400 900 l 1
 350 900 l 1
 300 900 l 1
 300 850 l 1
 300 800 l 1
 250 800 l 1
 200 800 l 1
 200 750 l 1
 200 700 l 1
 150 700 l 1
 100 700 l 1
 100 750 l 1
 100 800 l 1
 150 800 l 1
 200 800 l 1
 200 850 l 1
 200 900 l 1
 250 900 l 1
 300 900 l 1
 300 950 l 1
EndSplineSet
EndChar

StartChar: second
Encoding: 8243 8243 232
Width: 1200
Flags: HW
LayerCount: 2
Back
Fore
SplineSet
600 950 m 1
 600 1000 l 1
 650 1000 l 1
 700 1000 l 1
 700 950 l 1
 700 900 l 1
 650 900 l 1
 600 900 l 1
 600 850 l 1
 600 800 l 1
 550 800 l 1
 500 800 l 1
 500 750 l 1
 500 700 l 1
 450 700 l 1
 400 700 l 1
 400 750 l 1
 400 800 l 1
 450 800 l 1
 500 800 l 1
 500 850 l 1
 500 900 l 1
 550 900 l 1
 600 900 l 1
 600 950 l 1
300 950 m 1
 300 1000 l 1
 350 1000 l 1
 400 1000 l 1
 400 950 l 1
 400 900 l 1
 350 900 l 1
 300 900 l 1
 300 850 l 1
 300 800 l 1
 250 800 l 1
 200 800 l 1
 200 750 l 1
 200 700 l 1
 150 700 l 1
 100 700 l 1
 100 750 l 1
 100 800 l 1
 150 800 l 1
 200 800 l 1
 200 850 l 1
 200 900 l 1
 250 900 l 1
 300 900 l 1
 300 950 l 1
EndSplineSet
EndChar

StartChar: uni203B
Encoding: 8251 8251 233
Width: 1200
Flags: HW
LayerCount: 2
Back
Fore
SplineSet
600 100 m 1
 600 200 l 1
 650 200 l 1
 700 200 l 1
 700 100 l 1
 700 0 l 1
 650 0 l 1
 600 0 l 1
 600 100 l 1
900 450 m 1
 900 500 l 1
 1000 500 l 1
 1100 500 l 1
 1100 450 l 1
 1100 400 l 1
 1000 400 l 1
 900 400 l 1
 900 450 l 1
200 450 m 1
 200 500 l 1
 300 500 l 1
 400 500 l 1
 400 450 l 1
 400 400 l 1
 300 400 l 1
 200 400 l 1
 200 450 l 1
600 800 m 1
 600 900 l 1
 650 900 l 1
 700 900 l 1
 700 800 l 1
 700 700 l 1
 650 700 l 1
 600 700 l 1
 600 800 l 1
200 850 m 1
 200 900 l 1
 250 900 l 1
 300 900 l 1
 300 850 l 1
 300 800 l 1
 350 800 l 1
 400 800 l 1
 400 750 l 1
 400 700 l 1
 450 700 l 1
 500 700 l 1
 500 650 l 1
 500 600 l 1
 550 600 l 1
 600 600 l 1
 600 550 l 1
 600 500 l 1
 650 500 l 1
 700 500 l 1
 700 550 l 1
 700 600 l 1
 750 600 l 1
 800 600 l 1
 800 650 l 1
 800 700 l 1
 850 700 l 1
 900 700 l 1
 900 750 l 1
 900 800 l 1
 950 800 l 1
 1000 800 l 1
 1000 850 l 1
 1000 900 l 1
 1050 900 l 1
 1100 900 l 1
 1100 850 l 1
 1100 800 l 1
 1050 800 l 1
 1000 800 l 1
 1000 750 l 1
 1000 700 l 1
 950 700 l 1
 900 700 l 1
 900 650 l 1
 900 600 l 1
 850 600 l 1
 800 600 l 1
 800 550 l 1
 800 500 l 1
 750 500 l 1
 700 500 l 1
 700 450 l 1
 700 400 l 1
 750 400 l 1
 800 400 l 1
 800 350 l 1
 800 300 l 1
 850 300 l 1
 900 300 l 1
 900 250 l 1
 900 200 l 1
 950 200 l 1
 1000 200 l 1
 1000 150 l 1
 1000 100 l 1
 1050 100 l 1
 1100 100 l 1
 1100 50 l 1
 1100 0 l 1
 1050 0 l 1
 1000 0 l 1
 1000 50 l 1
 1000 100 l 1
 950 100 l 1
 900 100 l 1
 900 150 l 1
 900 200 l 1
 850 200 l 1
 800 200 l 1
 800 250 l 1
 800 300 l 1
 750 300 l 1
 700 300 l 1
 700 350 l 1
 700 400 l 1
 650 400 l 1
 600 400 l 1
 600 350 l 1
 600 300 l 1
 550 300 l 1
 500 300 l 1
 500 250 l 1
 500 200 l 1
 450 200 l 1
 400 200 l 1
 400 150 l 1
 400 100 l 1
 350 100 l 1
 300 100 l 1
 300 50 l 1
 300 0 l 1
 250 0 l 1
 200 0 l 1
 200 50 l 1
 200 100 l 1
 250 100 l 1
 300 100 l 1
 300 150 l 1
 300 200 l 1
 350 200 l 1
 400 200 l 1
 400 250 l 1
 400 300 l 1
 450 300 l 1
 500 300 l 1
 500 350 l 1
 500 400 l 1
 550 400 l 1
 600 400 l 1
 600 450 l 1
 600 500 l 1
 550 500 l 1
 500 500 l 1
 500 550 l 1
 500 600 l 1
 450 600 l 1
 400 600 l 1
 400 650 l 1
 400 700 l 1
 350 700 l 1
 300 700 l 1
 300 750 l 1
 300 800 l 1
 250 800 l 1
 200 800 l 1
 200 850 l 1
EndSplineSet
EndChar

StartChar: uni2103
Encoding: 8451 8451 234
Width: 1200
Flags: HW
LayerCount: 2
Back
Fore
SplineSet
600 850 m 1
 600 900 l 1
 800 900 l 1
 1000 900 l 1
 1000 850 l 1
 1000 800 l 1
 1050 800 l 1
 1100 800 l 1
 1100 750 l 1
 1100 700 l 1
 1150 700 l 1
 1200 700 l 1
 1200 650 l 1
 1200 600 l 1
 1150 600 l 1
 1100 600 l 1
 1100 650 l 1
 1100 700 l 1
 1050 700 l 1
 1000 700 l 1
 1000 750 l 1
 1000 800 l 1
 800 800 l 1
 600 800 l 1
 600 750 l 1
 600 700 l 1
 550 700 l 1
 500 700 l 1
 500 400 l 1
 500 100 l 1
 550 100 l 1
 600 100 l 1
 600 50 l 1
 600 0 l 1
 800 0 l 1
 1000 0 l 1
 1000 50 l 1
 1000 100 l 1
 1050 100 l 1
 1100 100 l 1
 1100 150 l 1
 1100 200 l 1
 1150 200 l 1
 1200 200 l 1
 1200 150 l 1
 1200 100 l 1
 1150 100 l 1
 1100 100 l 1
 1100 50 l 1
 1100 0 l 1
 1050 0 l 1
 1000 0 l 1
 1000 -50 l 1
 1000 -100 l 1
 800 -100 l 1
 600 -100 l 1
 600 -50 l 1
 600 0 l 1
 550 0 l 1
 500 0 l 1
 500 50 l 1
 500 100 l 1
 450 100 l 1
 400 100 l 1
 400 400 l 1
 400 700 l 1
 450 700 l 1
 500 700 l 1
 500 750 l 1
 500 800 l 1
 550 800 l 1
 600 800 l 1
 600 850 l 1
200 950 m 1
 200 1000 l 1
 250 1000 l 1
 300 1000 l 1
 300 950 l 1
 300 900 l 1
 350 900 l 1
 400 900 l 1
 400 850 l 1
 400 800 l 1
 350 800 l 1
 300 800 l 1
 300 750 l 1
 300 700 l 1
 250 700 l 1
 200 700 l 1
 200 750 l 1
 200 800 l 1
 150 800 l 1
 100 800 l 1
 100 850 l 1
 100 900 l 1
 150 900 l 1
 200 900 l 1
 200 950 l 1
300 850 m 1
 300 900 l 1
 250 900 l 1
 200 900 l 1
 200 850 l 1
 200 800 l 1
 250 800 l 1
 300 800 l 1
 300 850 l 1
EndSplineSet
EndChar

StartChar: uni212B
Encoding: 8491 8491 235
Width: 1200
Flags: HW
LayerCount: 2
Back
Fore
SplineSet
600 950 m 1
 600 1000 l 1
 650 1000 l 1
 700 1000 l 1
 700 950 l 1
 700 900 l 1
 750 900 l 1
 800 900 l 1
 800 850 l 1
 800 800 l 1
 750 800 l 1
 700 800 l 1
 700 700 l 1
 700 600 l 1
 750 600 l 1
 800 600 l 1
 800 550 l 1
 800 500 l 1
 850 500 l 1
 900 500 l 1
 900 400 l 1
 900 300 l 1
 950 300 l 1
 1000 300 l 1
 1000 200 l 1
 1000 100 l 1
 1050 100 l 1
 1100 100 l 1
 1100 50 l 1
 1100 0 l 1
 1050 0 l 1
 1000 0 l 1
 1000 50 l 1
 1000 100 l 1
 950 100 l 1
 900 100 l 1
 900 150 l 1
 900 200 l 1
 650 200 l 1
 400 200 l 1
 400 150 l 1
 400 100 l 1
 350 100 l 1
 300 100 l 1
 300 50 l 1
 300 0 l 1
 250 0 l 1
 200 0 l 1
 200 50 l 1
 200 100 l 1
 250 100 l 1
 300 100 l 1
 300 200 l 1
 300 300 l 1
 350 300 l 1
 400 300 l 1
 400 400 l 1
 400 500 l 1
 450 500 l 1
 500 500 l 1
 500 550 l 1
 500 600 l 1
 550 600 l 1
 600 600 l 1
 600 700 l 1
 600 800 l 1
 550 800 l 1
 500 800 l 1
 500 850 l 1
 500 900 l 1
 550 900 l 1
 600 900 l 1
 600 950 l 1
700 850 m 1
 700 900 l 1
 650 900 l 1
 600 900 l 1
 600 850 l 1
 600 800 l 1
 650 800 l 1
 700 800 l 1
 700 850 l 1
700 550 m 1
 700 600 l 1
 650 600 l 1
 600 600 l 1
 600 550 l 1
 600 500 l 1
 550 500 l 1
 500 500 l 1
 500 400 l 1
 500 300 l 1
 650 300 l 1
 800 300 l 1
 800 400 l 1
 800 500 l 1
 750 500 l 1
 700 500 l 1
 700 550 l 1
EndSplineSet
EndChar

StartChar: arrowleft
Encoding: 8592 8592 236
Width: 1200
Flags: HW
LayerCount: 2
Back
Fore
SplineSet
300 650 m 1
 300 700 l 1
 350 700 l 1
 400 700 l 1
 400 650 l 1
 400 600 l 1
 350 600 l 1
 300 600 l 1
 300 550 l 1
 300 500 l 1
 750 500 l 1
 1200 500 l 1
 1200 450 l 1
 1200 400 l 1
 750 400 l 1
 300 400 l 1
 300 350 l 1
 300 300 l 1
 350 300 l 1
 400 300 l 1
 400 250 l 1
 400 200 l 1
 350 200 l 1
 300 200 l 1
 300 250 l 1
 300 300 l 1
 250 300 l 1
 200 300 l 1
 200 350 l 1
 200 400 l 1
 150 400 l 1
 100 400 l 1
 100 450 l 1
 100 500 l 1
 150 500 l 1
 200 500 l 1
 200 550 l 1
 200 600 l 1
 250 600 l 1
 300 600 l 1
 300 650 l 1
EndSplineSet
EndChar

StartChar: arrowup
Encoding: 8593 8593 237
Width: 1200
Flags: HW
LayerCount: 2
Back
Fore
SplineSet
600 950 m 1
 600 1000 l 1
 650 1000 l 1
 700 1000 l 1
 700 950 l 1
 700 900 l 1
 750 900 l 1
 800 900 l 1
 800 850 l 1
 800 800 l 1
 850 800 l 1
 900 800 l 1
 900 750 l 1
 900 700 l 1
 850 700 l 1
 800 700 l 1
 800 750 l 1
 800 800 l 1
 750 800 l 1
 700 800 l 1
 700 350 l 1
 700 -100 l 1
 650 -100 l 1
 600 -100 l 1
 600 350 l 1
 600 800 l 1
 550 800 l 1
 500 800 l 1
 500 750 l 1
 500 700 l 1
 450 700 l 1
 400 700 l 1
 400 750 l 1
 400 800 l 1
 450 800 l 1
 500 800 l 1
 500 850 l 1
 500 900 l 1
 550 900 l 1
 600 900 l 1
 600 950 l 1
EndSplineSet
EndChar

StartChar: arrowright
Encoding: 8594 8594 238
Width: 1200
Flags: HW
LayerCount: 2
Back
Fore
SplineSet
900 650 m 1
 900 700 l 1
 950 700 l 1
 1000 700 l 1
 1000 650 l 1
 1000 600 l 1
 1050 600 l 1
 1100 600 l 1
 1100 550 l 1
 1100 500 l 1
 1150 500 l 1
 1200 500 l 1
 1200 450 l 1
 1200 400 l 1
 1150 400 l 1
 1100 400 l 1
 1100 350 l 1
 1100 300 l 1
 1050 300 l 1
 1000 300 l 1
 1000 250 l 1
 1000 200 l 1
 950 200 l 1
 900 200 l 1
 900 250 l 1
 900 300 l 1
 950 300 l 1
 1000 300 l 1
 1000 350 l 1
 1000 400 l 1
 550 400 l 1
 100 400 l 1
 100 450 l 1
 100 500 l 1
 550 500 l 1
 1000 500 l 1
 1000 550 l 1
 1000 600 l 1
 950 600 l 1
 900 600 l 1
 900 650 l 1
EndSplineSet
EndChar

StartChar: arrowdown
Encoding: 8595 8595 239
Width: 1200
Flags: HW
LayerCount: 2
Back
Fore
SplineSet
600 550 m 1
 600 1000 l 1
 650 1000 l 1
 700 1000 l 1
 700 550 l 1
 700 100 l 1
 750 100 l 1
 800 100 l 1
 800 150 l 1
 800 200 l 1
 850 200 l 1
 900 200 l 1
 900 150 l 1
 900 100 l 1
 850 100 l 1
 800 100 l 1
 800 50 l 1
 800 0 l 1
 750 0 l 1
 700 0 l 1
 700 -50 l 1
 700 -100 l 1
 650 -100 l 1
 600 -100 l 1
 600 -50 l 1
 600 0 l 1
 550 0 l 1
 500 0 l 1
 500 50 l 1
 500 100 l 1
 450 100 l 1
 400 100 l 1
 400 150 l 1
 400 200 l 1
 450 200 l 1
 500 200 l 1
 500 150 l 1
 500 100 l 1
 550 100 l 1
 600 100 l 1
 600 550 l 1
EndSplineSet
EndChar

StartChar: arrowdblright
Encoding: 8658 8658 240
Width: 1200
Flags: HW
LayerCount: 2
Back
Fore
SplineSet
800 750 m 1
 800 800 l 1
 850 800 l 1
 900 800 l 1
 900 750 l 1
 900 700 l 1
 950 700 l 1
 1000 700 l 1
 1000 650 l 1
 1000 600 l 1
 1050 600 l 1
 1100 600 l 1
 1100 550 l 1
 1100 500 l 1
 1150 500 l 1
 1200 500 l 1
 1200 450 l 1
 1200 400 l 1
 1150 400 l 1
 1100 400 l 1
 1100 350 l 1
 1100 300 l 1
 1050 300 l 1
 1000 300 l 1
 1000 250 l 1
 1000 200 l 1
 950 200 l 1
 900 200 l 1
 900 150 l 1
 900 100 l 1
 850 100 l 1
 800 100 l 1
 800 150 l 1
 800 200 l 1
 850 200 l 1
 900 200 l 1
 900 250 l 1
 900 300 l 1
 500 300 l 1
 100 300 l 1
 100 350 l 1
 100 400 l 1
 600 400 l 1
 1100 400 l 1
 1100 450 l 1
 1100 500 l 1
 600 500 l 1
 100 500 l 1
 100 550 l 1
 100 600 l 1
 500 600 l 1
 900 600 l 1
 900 650 l 1
 900 700 l 1
 850 700 l 1
 800 700 l 1
 800 750 l 1
EndSplineSet
EndChar

StartChar: arrowdblboth
Encoding: 8660 8660 241
Width: 1200
Flags: HW
LayerCount: 2
Back
Fore
SplineSet
400 750 m 1
 400 800 l 1
 450 800 l 1
 500 800 l 1
 500 750 l 1
 500 700 l 1
 450 700 l 1
 400 700 l 1
 400 650 l 1
 400 600 l 1
 650 600 l 1
 900 600 l 1
 900 650 l 1
 900 700 l 1
 850 700 l 1
 800 700 l 1
 800 750 l 1
 800 800 l 1
 850 800 l 1
 900 800 l 1
 900 750 l 1
 900 700 l 1
 950 700 l 1
 1000 700 l 1
 1000 650 l 1
 1000 600 l 1
 1050 600 l 1
 1100 600 l 1
 1100 550 l 1
 1100 500 l 1
 1150 500 l 1
 1200 500 l 1
 1200 450 l 1
 1200 400 l 1
 1150 400 l 1
 1100 400 l 1
 1100 350 l 1
 1100 300 l 1
 1050 300 l 1
 1000 300 l 1
 1000 250 l 1
 1000 200 l 1
 950 200 l 1
 900 200 l 1
 900 150 l 1
 900 100 l 1
 850 100 l 1
 800 100 l 1
 800 150 l 1
 800 200 l 1
 850 200 l 1
 900 200 l 1
 900 250 l 1
 900 300 l 1
 650 300 l 1
 400 300 l 1
 400 250 l 1
 400 200 l 1
 450 200 l 1
 500 200 l 1
 500 150 l 1
 500 100 l 1
 450 100 l 1
 400 100 l 1
 400 150 l 1
 400 200 l 1
 350 200 l 1
 300 200 l 1
 300 250 l 1
 300 300 l 1
 250 300 l 1
 200 300 l 1
 200 350 l 1
 200 400 l 1
 150 400 l 1
 100 400 l 1
 100 450 l 1
 100 500 l 1
 150 500 l 1
 200 500 l 1
 200 550 l 1
 200 600 l 1
 250 600 l 1
 300 600 l 1
 300 650 l 1
 300 700 l 1
 350 700 l 1
 400 700 l 1
 400 750 l 1
1100 450 m 1
 1100 500 l 1
 650 500 l 1
 200 500 l 1
 200 450 l 1
 200 400 l 1
 650 400 l 1
 1100 400 l 1
 1100 450 l 1
EndSplineSet
EndChar

StartChar: universal
Encoding: 8704 8704 242
Width: 1200
Flags: HW
LayerCount: 2
Back
Fore
SplineSet
200 900 m 1
 200 1000 l 1
 250 1000 l 1
 300 1000 l 1
 300 900 l 1
 300 800 l 1
 350 800 l 1
 400 800 l 1
 400 750 l 1
 400 700 l 1
 650 700 l 1
 900 700 l 1
 900 750 l 1
 900 800 l 1
 950 800 l 1
 1000 800 l 1
 1000 900 l 1
 1000 1000 l 1
 1050 1000 l 1
 1100 1000 l 1
 1100 900 l 1
 1100 800 l 1
 1050 800 l 1
 1000 800 l 1
 1000 700 l 1
 1000 600 l 1
 950 600 l 1
 900 600 l 1
 900 500 l 1
 900 400 l 1
 850 400 l 1
 800 400 l 1
 800 300 l 1
 800 200 l 1
 750 200 l 1
 700 200 l 1
 700 100 l 1
 700 0 l 1
 650 0 l 1
 600 0 l 1
 600 100 l 1
 600 200 l 1
 550 200 l 1
 500 200 l 1
 500 300 l 1
 500 400 l 1
 450 400 l 1
 400 400 l 1
 400 500 l 1
 400 600 l 1
 350 600 l 1
 300 600 l 1
 300 700 l 1
 300 800 l 1
 250 800 l 1
 200 800 l 1
 200 900 l 1
800 500 m 1
 800 600 l 1
 650 600 l 1
 500 600 l 1
 500 500 l 1
 500 400 l 1
 550 400 l 1
 600 400 l 1
 600 300 l 1
 600 200 l 1
 650 200 l 1
 700 200 l 1
 700 300 l 1
 700 400 l 1
 750 400 l 1
 800 400 l 1
 800 500 l 1
EndSplineSet
EndChar

StartChar: partialdiff
Encoding: 8706 8706 243
Width: 1200
Flags: HW
LayerCount: 2
Back
Fore
SplineSet
500 950 m 1
 500 1000 l 1
 650 1000 l 1
 800 1000 l 1
 800 950 l 1
 800 900 l 1
 850 900 l 1
 900 900 l 1
 900 700 l 1
 900 500 l 1
 850 500 l 1
 800 500 l 1
 800 350 l 1
 800 200 l 1
 750 200 l 1
 700 200 l 1
 700 150 l 1
 700 100 l 1
 650 100 l 1
 600 100 l 1
 600 50 l 1
 600 0 l 1
 500 0 l 1
 400 0 l 1
 400 50 l 1
 400 100 l 1
 350 100 l 1
 300 100 l 1
 300 250 l 1
 300 400 l 1
 350 400 l 1
 400 400 l 1
 400 450 l 1
 400 500 l 1
 450 500 l 1
 500 500 l 1
 500 550 l 1
 500 600 l 1
 600 600 l 1
 700 600 l 1
 700 550 l 1
 700 500 l 1
 750 500 l 1
 800 500 l 1
 800 700 l 1
 800 900 l 1
 650 900 l 1
 500 900 l 1
 500 850 l 1
 500 800 l 1
 450 800 l 1
 400 800 l 1
 400 850 l 1
 400 900 l 1
 450 900 l 1
 500 900 l 1
 500 950 l 1
700 350 m 1
 700 500 l 1
 600 500 l 1
 500 500 l 1
 500 450 l 1
 500 400 l 1
 450 400 l 1
 400 400 l 1
 400 250 l 1
 400 100 l 1
 500 100 l 1
 600 100 l 1
 600 150 l 1
 600 200 l 1
 650 200 l 1
 700 200 l 1
 700 350 l 1
EndSplineSet
EndChar

StartChar: existential
Encoding: 8707 8707 244
Width: 1200
Flags: HW
LayerCount: 2
Back
Fore
SplineSet
100 850 m 1
 100 900 l 1
 600 900 l 1
 1100 900 l 1
 1100 450 l 1
 1100 0 l 1
 600 0 l 1
 100 0 l 1
 100 50 l 1
 100 100 l 1
 550 100 l 1
 1000 100 l 1
 1000 250 l 1
 1000 400 l 1
 550 400 l 1
 100 400 l 1
 100 450 l 1
 100 500 l 1
 550 500 l 1
 1000 500 l 1
 1000 650 l 1
 1000 800 l 1
 550 800 l 1
 100 800 l 1
 100 850 l 1
EndSplineSet
EndChar

StartChar: gradient
Encoding: 8711 8711 245
Width: 1200
Flags: HW
LayerCount: 2
Back
Fore
SplineSet
200 900 m 1
 200 1000 l 1
 650 1000 l 1
 1100 1000 l 1
 1100 900 l 1
 1100 800 l 1
 1050 800 l 1
 1000 800 l 1
 1000 700 l 1
 1000 600 l 1
 950 600 l 1
 900 600 l 1
 900 500 l 1
 900 400 l 1
 850 400 l 1
 800 400 l 1
 800 300 l 1
 800 200 l 1
 750 200 l 1
 700 200 l 1
 700 100 l 1
 700 0 l 1
 650 0 l 1
 600 0 l 1
 600 100 l 1
 600 200 l 1
 550 200 l 1
 500 200 l 1
 500 300 l 1
 500 400 l 1
 450 400 l 1
 400 400 l 1
 400 500 l 1
 400 600 l 1
 350 600 l 1
 300 600 l 1
 300 700 l 1
 300 800 l 1
 250 800 l 1
 200 800 l 1
 200 900 l 1
1000 850 m 1
 1000 900 l 1
 650 900 l 1
 300 900 l 1
 300 850 l 1
 300 800 l 1
 350 800 l 1
 400 800 l 1
 400 700 l 1
 400 600 l 1
 450 600 l 1
 500 600 l 1
 500 500 l 1
 500 400 l 1
 550 400 l 1
 600 400 l 1
 600 300 l 1
 600 200 l 1
 650 200 l 1
 700 200 l 1
 700 300 l 1
 700 400 l 1
 750 400 l 1
 800 400 l 1
 800 500 l 1
 800 600 l 1
 850 600 l 1
 900 600 l 1
 900 700 l 1
 900 800 l 1
 950 800 l 1
 1000 800 l 1
 1000 850 l 1
EndSplineSet
EndChar

StartChar: element
Encoding: 8712 8712 246
Width: 1200
Flags: HW
LayerCount: 2
Back
Fore
SplineSet
400 850 m 1
 400 900 l 1
 750 900 l 1
 1100 900 l 1
 1100 850 l 1
 1100 800 l 1
 750 800 l 1
 400 800 l 1
 400 750 l 1
 400 700 l 1
 350 700 l 1
 300 700 l 1
 300 600 l 1
 300 500 l 1
 700 500 l 1
 1100 500 l 1
 1100 450 l 1
 1100 400 l 1
 700 400 l 1
 300 400 l 1
 300 300 l 1
 300 200 l 1
 350 200 l 1
 400 200 l 1
 400 150 l 1
 400 100 l 1
 750 100 l 1
 1100 100 l 1
 1100 50 l 1
 1100 0 l 1
 750 0 l 1
 400 0 l 1
 400 50 l 1
 400 100 l 1
 350 100 l 1
 300 100 l 1
 300 150 l 1
 300 200 l 1
 250 200 l 1
 200 200 l 1
 200 450 l 1
 200 700 l 1
 250 700 l 1
 300 700 l 1
 300 750 l 1
 300 800 l 1
 350 800 l 1
 400 800 l 1
 400 850 l 1
EndSplineSet
EndChar

StartChar: suchthat
Encoding: 8715 8715 247
Width: 1200
Flags: HW
LayerCount: 2
Back
Fore
SplineSet
200 850 m 1
 200 900 l 1
 550 900 l 1
 900 900 l 1
 900 850 l 1
 900 800 l 1
 950 800 l 1
 1000 800 l 1
 1000 750 l 1
 1000 700 l 1
 1050 700 l 1
 1100 700 l 1
 1100 450 l 1
 1100 200 l 1
 1050 200 l 1
 1000 200 l 1
 1000 150 l 1
 1000 100 l 1
 950 100 l 1
 900 100 l 1
 900 50 l 1
 900 0 l 1
 550 0 l 1
 200 0 l 1
 200 50 l 1
 200 100 l 1
 550 100 l 1
 900 100 l 1
 900 150 l 1
 900 200 l 1
 950 200 l 1
 1000 200 l 1
 1000 300 l 1
 1000 400 l 1
 600 400 l 1
 200 400 l 1
 200 450 l 1
 200 500 l 1
 600 500 l 1
 1000 500 l 1
 1000 600 l 1
 1000 700 l 1
 950 700 l 1
 900 700 l 1
 900 750 l 1
 900 800 l 1
 550 800 l 1
 200 800 l 1
 200 850 l 1
EndSplineSet
EndChar

StartChar: minus
Encoding: 8722 8722 248
Width: 1200
Flags: HW
LayerCount: 2
Back
Fore
SplineSet
200 450 m 1
 200 500 l 1
 650 500 l 1
 1100 500 l 1
 1100 450 l 1
 1100 400 l 1
 650 400 l 1
 200 400 l 1
 200 450 l 1
EndSplineSet
EndChar

StartChar: radical
Encoding: 8730 8730 249
Width: 1200
Flags: HW
LayerCount: 2
Back
Fore
SplineSet
700 850 m 1
 700 1000 l 1
 950 1000 l 1
 1200 1000 l 1
 1200 950 l 1
 1200 900 l 1
 1000 900 l 1
 800 900 l 1
 800 800 l 1
 800 700 l 1
 750 700 l 1
 700 700 l 1
 700 550 l 1
 700 400 l 1
 650 400 l 1
 600 400 l 1
 600 250 l 1
 600 100 l 1
 550 100 l 1
 500 100 l 1
 500 0 l 1
 500 -100 l 1
 450 -100 l 1
 400 -100 l 1
 400 -50 l 1
 400 0 l 1
 350 0 l 1
 300 0 l 1
 300 50 l 1
 300 100 l 1
 250 100 l 1
 200 100 l 1
 200 150 l 1
 200 200 l 1
 150 200 l 1
 100 200 l 1
 100 250 l 1
 100 300 l 1
 150 300 l 1
 200 300 l 1
 200 250 l 1
 200 200 l 1
 250 200 l 1
 300 200 l 1
 300 150 l 1
 300 100 l 1
 400 100 l 1
 500 100 l 1
 500 250 l 1
 500 400 l 1
 550 400 l 1
 600 400 l 1
 600 550 l 1
 600 700 l 1
 650 700 l 1
 700 700 l 1
 700 850 l 1
EndSplineSet
EndChar

StartChar: proportional
Encoding: 8733 8733 250
Width: 1200
Flags: HW
LayerCount: 2
Back
Fore
SplineSet
200 650 m 1
 200 700 l 1
 350 700 l 1
 500 700 l 1
 500 650 l 1
 500 600 l 1
 550 600 l 1
 600 600 l 1
 600 550 l 1
 600 500 l 1
 650 500 l 1
 700 500 l 1
 700 550 l 1
 700 600 l 1
 750 600 l 1
 800 600 l 1
 800 650 l 1
 800 700 l 1
 950 700 l 1
 1100 700 l 1
 1100 650 l 1
 1100 600 l 1
 950 600 l 1
 800 600 l 1
 800 550 l 1
 800 500 l 1
 750 500 l 1
 700 500 l 1
 700 450 l 1
 700 400 l 1
 750 400 l 1
 800 400 l 1
 800 350 l 1
 800 300 l 1
 950 300 l 1
 1100 300 l 1
 1100 250 l 1
 1100 200 l 1
 950 200 l 1
 800 200 l 1
 800 250 l 1
 800 300 l 1
 750 300 l 1
 700 300 l 1
 700 350 l 1
 700 400 l 1
 650 400 l 1
 600 400 l 1
 600 350 l 1
 600 300 l 1
 550 300 l 1
 500 300 l 1
 500 250 l 1
 500 200 l 1
 350 200 l 1
 200 200 l 1
 200 250 l 1
 200 300 l 1
 150 300 l 1
 100 300 l 1
 100 450 l 1
 100 600 l 1
 150 600 l 1
 200 600 l 1
 200 650 l 1
500 550 m 1
 500 600 l 1
 350 600 l 1
 200 600 l 1
 200 450 l 1
 200 300 l 1
 350 300 l 1
 500 300 l 1
 500 350 l 1
 500 400 l 1
 550 400 l 1
 600 400 l 1
 600 450 l 1
 600 500 l 1
 550 500 l 1
 500 500 l 1
 500 550 l 1
EndSplineSet
EndChar

StartChar: infinity
Encoding: 8734 8734 251
Width: 1200
Flags: HW
LayerCount: 2
Back
Fore
SplineSet
200 650 m 1
 200 700 l 1
 350 700 l 1
 500 700 l 1
 500 650 l 1
 500 600 l 1
 550 600 l 1
 600 600 l 1
 600 550 l 1
 600 500 l 1
 650 500 l 1
 700 500 l 1
 700 550 l 1
 700 600 l 1
 750 600 l 1
 800 600 l 1
 800 650 l 1
 800 700 l 1
 950 700 l 1
 1100 700 l 1
 1100 650 l 1
 1100 600 l 1
 1150 600 l 1
 1200 600 l 1
 1200 450 l 1
 1200 300 l 1
 1150 300 l 1
 1100 300 l 1
 1100 250 l 1
 1100 200 l 1
 950 200 l 1
 800 200 l 1
 800 250 l 1
 800 300 l 1
 750 300 l 1
 700 300 l 1
 700 350 l 1
 700 400 l 1
 650 400 l 1
 600 400 l 1
 600 350 l 1
 600 300 l 1
 550 300 l 1
 500 300 l 1
 500 250 l 1
 500 200 l 1
 350 200 l 1
 200 200 l 1
 200 250 l 1
 200 300 l 1
 150 300 l 1
 100 300 l 1
 100 450 l 1
 100 600 l 1
 150 600 l 1
 200 600 l 1
 200 650 l 1
500 550 m 1
 500 600 l 1
 350 600 l 1
 200 600 l 1
 200 450 l 1
 200 300 l 1
 350 300 l 1
 500 300 l 1
 500 350 l 1
 500 400 l 1
 550 400 l 1
 600 400 l 1
 600 450 l 1
 600 500 l 1
 550 500 l 1
 500 500 l 1
 500 550 l 1
1100 450 m 1
 1100 600 l 1
 950 600 l 1
 800 600 l 1
 800 550 l 1
 800 500 l 1
 750 500 l 1
 700 500 l 1
 700 450 l 1
 700 400 l 1
 750 400 l 1
 800 400 l 1
 800 350 l 1
 800 300 l 1
 950 300 l 1
 1100 300 l 1
 1100 450 l 1
EndSplineSet
EndChar

StartChar: angle
Encoding: 8736 8736 252
Width: 1200
Flags: HW
LayerCount: 2
Back
Fore
SplineSet
900 750 m 1
 900 800 l 1
 950 800 l 1
 1000 800 l 1
 1000 750 l 1
 1000 700 l 1
 950 700 l 1
 900 700 l 1
 900 650 l 1
 900 600 l 1
 850 600 l 1
 800 600 l 1
 800 550 l 1
 800 500 l 1
 750 500 l 1
 700 500 l 1
 700 450 l 1
 700 400 l 1
 650 400 l 1
 600 400 l 1
 600 350 l 1
 600 300 l 1
 550 300 l 1
 500 300 l 1
 500 250 l 1
 500 200 l 1
 450 200 l 1
 400 200 l 1
 400 150 l 1
 400 100 l 1
 750 100 l 1
 1100 100 l 1
 1100 50 l 1
 1100 0 l 1
 650 0 l 1
 200 0 l 1
 200 50 l 1
 200 100 l 1
 250 100 l 1
 300 100 l 1
 300 150 l 1
 300 200 l 1
 350 200 l 1
 400 200 l 1
 400 250 l 1
 400 300 l 1
 450 300 l 1
 500 300 l 1
 500 350 l 1
 500 400 l 1
 550 400 l 1
 600 400 l 1
 600 450 l 1
 600 500 l 1
 650 500 l 1
 700 500 l 1
 700 550 l 1
 700 600 l 1
 750 600 l 1
 800 600 l 1
 800 650 l 1
 800 700 l 1
 850 700 l 1
 900 700 l 1
 900 750 l 1
EndSplineSet
EndChar

StartChar: logicaland
Encoding: 8743 8743 253
Width: 1200
Flags: HW
LayerCount: 2
Back
Fore
SplineSet
600 900 m 1
 600 1000 l 1
 650 1000 l 1
 700 1000 l 1
 700 900 l 1
 700 800 l 1
 750 800 l 1
 800 800 l 1
 800 700 l 1
 800 600 l 1
 850 600 l 1
 900 600 l 1
 900 500 l 1
 900 400 l 1
 950 400 l 1
 1000 400 l 1
 1000 300 l 1
 1000 200 l 1
 1050 200 l 1
 1100 200 l 1
 1100 100 l 1
 1100 0 l 1
 1050 0 l 1
 1000 0 l 1
 1000 100 l 1
 1000 200 l 1
 950 200 l 1
 900 200 l 1
 900 300 l 1
 900 400 l 1
 850 400 l 1
 800 400 l 1
 800 500 l 1
 800 600 l 1
 750 600 l 1
 700 600 l 1
 700 700 l 1
 700 800 l 1
 650 800 l 1
 600 800 l 1
 600 700 l 1
 600 600 l 1
 550 600 l 1
 500 600 l 1
 500 500 l 1
 500 400 l 1
 450 400 l 1
 400 400 l 1
 400 300 l 1
 400 200 l 1
 350 200 l 1
 300 200 l 1
 300 100 l 1
 300 0 l 1
 250 0 l 1
 200 0 l 1
 200 100 l 1
 200 200 l 1
 250 200 l 1
 300 200 l 1
 300 300 l 1
 300 400 l 1
 350 400 l 1
 400 400 l 1
 400 500 l 1
 400 600 l 1
 450 600 l 1
 500 600 l 1
 500 700 l 1
 500 800 l 1
 550 800 l 1
 600 800 l 1
 600 900 l 1
EndSplineSet
EndChar

StartChar: logicalor
Encoding: 8744 8744 254
Width: 1200
Flags: HW
LayerCount: 2
Back
Fore
SplineSet
200 900 m 1
 200 1000 l 1
 250 1000 l 1
 300 1000 l 1
 300 900 l 1
 300 800 l 1
 350 800 l 1
 400 800 l 1
 400 700 l 1
 400 600 l 1
 450 600 l 1
 500 600 l 1
 500 500 l 1
 500 400 l 1
 550 400 l 1
 600 400 l 1
 600 300 l 1
 600 200 l 1
 650 200 l 1
 700 200 l 1
 700 300 l 1
 700 400 l 1
 750 400 l 1
 800 400 l 1
 800 500 l 1
 800 600 l 1
 850 600 l 1
 900 600 l 1
 900 700 l 1
 900 800 l 1
 950 800 l 1
 1000 800 l 1
 1000 900 l 1
 1000 1000 l 1
 1050 1000 l 1
 1100 1000 l 1
 1100 900 l 1
 1100 800 l 1
 1050 800 l 1
 1000 800 l 1
 1000 700 l 1
 1000 600 l 1
 950 600 l 1
 900 600 l 1
 900 500 l 1
 900 400 l 1
 850 400 l 1
 800 400 l 1
 800 300 l 1
 800 200 l 1
 750 200 l 1
 700 200 l 1
 700 100 l 1
 700 0 l 1
 650 0 l 1
 600 0 l 1
 600 100 l 1
 600 200 l 1
 550 200 l 1
 500 200 l 1
 500 300 l 1
 500 400 l 1
 450 400 l 1
 400 400 l 1
 400 500 l 1
 400 600 l 1
 350 600 l 1
 300 600 l 1
 300 700 l 1
 300 800 l 1
 250 800 l 1
 200 800 l 1
 200 900 l 1
EndSplineSet
EndChar

StartChar: intersection
Encoding: 8745 8745 255
Width: 1200
Flags: HW
LayerCount: 2
Back
Fore
SplineSet
400 850 m 1
 400 900 l 1
 650 900 l 1
 900 900 l 1
 900 850 l 1
 900 800 l 1
 950 800 l 1
 1000 800 l 1
 1000 750 l 1
 1000 700 l 1
 1050 700 l 1
 1100 700 l 1
 1100 350 l 1
 1100 0 l 1
 1050 0 l 1
 1000 0 l 1
 1000 350 l 1
 1000 700 l 1
 950 700 l 1
 900 700 l 1
 900 750 l 1
 900 800 l 1
 650 800 l 1
 400 800 l 1
 400 750 l 1
 400 700 l 1
 350 700 l 1
 300 700 l 1
 300 350 l 1
 300 0 l 1
 250 0 l 1
 200 0 l 1
 200 350 l 1
 200 700 l 1
 250 700 l 1
 300 700 l 1
 300 750 l 1
 300 800 l 1
 350 800 l 1
 400 800 l 1
 400 850 l 1
EndSplineSet
EndChar

StartChar: union
Encoding: 8746 8746 256
Width: 1200
Flags: HW
LayerCount: 2
Back
Fore
SplineSet
200 550 m 1
 200 900 l 1
 250 900 l 1
 300 900 l 1
 300 550 l 1
 300 200 l 1
 350 200 l 1
 400 200 l 1
 400 150 l 1
 400 100 l 1
 650 100 l 1
 900 100 l 1
 900 150 l 1
 900 200 l 1
 950 200 l 1
 1000 200 l 1
 1000 550 l 1
 1000 900 l 1
 1050 900 l 1
 1100 900 l 1
 1100 550 l 1
 1100 200 l 1
 1050 200 l 1
 1000 200 l 1
 1000 150 l 1
 1000 100 l 1
 950 100 l 1
 900 100 l 1
 900 50 l 1
 900 0 l 1
 650 0 l 1
 400 0 l 1
 400 50 l 1
 400 100 l 1
 350 100 l 1
 300 100 l 1
 300 150 l 1
 300 200 l 1
 250 200 l 1
 200 200 l 1
 200 550 l 1
EndSplineSet
EndChar

StartChar: integral
Encoding: 8747 8747 257
Width: 1200
Flags: HW
LayerCount: 2
Back
Fore
SplineSet
600 950 m 1
 600 1000 l 1
 700 1000 l 1
 800 1000 l 1
 800 950 l 1
 800 900 l 1
 850 900 l 1
 900 900 l 1
 900 850 l 1
 900 800 l 1
 850 800 l 1
 800 800 l 1
 800 850 l 1
 800 900 l 1
 700 900 l 1
 600 900 l 1
 600 750 l 1
 600 600 l 1
 650 600 l 1
 700 600 l 1
 700 450 l 1
 700 300 l 1
 750 300 l 1
 800 300 l 1
 800 150 l 1
 800 0 l 1
 750 0 l 1
 700 0 l 1
 700 -50 l 1
 700 -100 l 1
 600 -100 l 1
 500 -100 l 1
 500 -50 l 1
 500 0 l 1
 450 0 l 1
 400 0 l 1
 400 50 l 1
 400 100 l 1
 450 100 l 1
 500 100 l 1
 500 50 l 1
 500 0 l 1
 600 0 l 1
 700 0 l 1
 700 150 l 1
 700 300 l 1
 650 300 l 1
 600 300 l 1
 600 450 l 1
 600 600 l 1
 550 600 l 1
 500 600 l 1
 500 750 l 1
 500 900 l 1
 550 900 l 1
 600 900 l 1
 600 950 l 1
EndSplineSet
EndChar

